<?xml version="1.0" encoding="UTF-8"?>
<!DOCTYPE svg PUBLIC "-//W3C//DTD SVG 1.1//EN" "http://www.w3.org/Graphics/SVG/1.1/DTD/svg11.dtd">
<!-- Creator: CorelDRAW -->
<svg xmlns="http://www.w3.org/2000/svg" xml:space="preserve" width="5in" height="1.27818in" version="1.1" style="shape-rendering:geometricPrecision; text-rendering:geometricPrecision; image-rendering:optimizeQuality; fill-rule:evenodd; clip-rule:evenodd"
viewBox="0 0 332.13 84.91"
 xmlns:xlink="http://www.w3.org/1999/xlink"
 xmlns:xodm="http://www.corel.com/coreldraw/odm/2003">
 <defs>
  <style type="text/css">
   <![CDATA[
    .fil0 {fill:black}
    .fil1 {fill:black;fill-rule:nonzero}
   ]]>
  </style>
 </defs>
 <g id="Capa_x0020_1">
  <metadata id="CorelCorpID_0Corel-Layer"/>
  <g id="_2074712765328">
   <path class="fil0" d="M227.93 31.23c0,-0.35 0.29,-1.41 0.4,-1.74l0.47 -1.62 0.27 -0.05c0.22,0.25 0.16,0.3 0.15,0.69 -0.01,0.34 -0.01,1.81 -0.12,2.08 -0.04,0.1 -0.02,0.07 -0.07,0.13 0,1.1 0.01,2.2 -0,3.3 -0,0.34 0.05,0.48 0.06,0.76 0.03,0.8 -0.04,1.73 0.06,2.52 0.32,2.53 0.16,7.21 0.16,9.91 0,0.7 -0.19,3.59 0.19,4.03 0.18,0.22 0.18,0.35 0.36,0.53 0.13,0.13 0.31,0.37 0.46,0.45 0.14,0.07 0.16,0.03 0.32,0.12 0.15,0.08 0.1,0.13 0.29,0.2l0.69 0.19c0.67,0.24 1.92,0.2 2.65,0.2 0.45,0 1.49,0.06 1.77,0.03 0.68,-0.08 0.8,-0.19 0.59,-1.08 -0.08,-0.32 -0.23,-0.21 -0.27,-0.56 -0.05,-0.44 0.01,-0.29 -0.23,-0.65 -0.16,-0.24 -0.07,-0.41 -0.15,-0.73 -0.06,-0.27 -0.2,-0.44 -0.24,-0.64 -0.09,-0.49 -0.02,-1.13 -0.11,-1.57 -0.09,-0.47 -0.24,-1 -0.25,-1.5 -0,-1.16 -0.05,-2.16 -0.05,-3.34 0,-0.6 -0.06,-1.01 -0.06,-1.62 0,-1.14 -0.23,-2.05 -0.23,-3.18l-0.06 -6.71c-0.03,-0.26 -0.05,-0.48 -0.05,-0.82 0,-0.83 -0.18,-1.58 -0.17,-2.37 0.01,-1.04 -0.11,-2.18 -0.11,-3.23 0,-1.66 -0.03,-3.43 0.05,-5.05 0.01,-0.28 0.12,-0.39 0.2,-0.63 0.13,-0.37 0,-0.71 0.21,-1.08 0.15,-0.27 0.43,-0.71 0.05,-0.97 -0.55,-0.38 -0.8,-0.3 -1.53,-0.3 -1.47,0 -2.91,-0 -4.28,0.31 -0.3,0.07 -0.81,0.58 -0.96,0.8 -0.06,0.09 -0.08,0.17 -0.14,0.28 -0.08,0.12 -0.13,0.14 -0.2,0.28 -0.07,0.15 -0.03,0.17 -0.08,0.33 -0.06,0.19 -0.11,0.14 -0.21,0.27 -0.16,0.19 -0.07,0.39 -0.24,0.65 -0.14,0.22 -0.16,0.35 -0.24,0.6 -0.09,0.32 -0.2,0.2 -0.37,0.93 -0.04,0.17 -0.06,0.17 -0.15,0.32 -0.15,0.27 -0.11,0.4 -0.18,0.7 -0.07,0.32 -0.19,0.3 -0.27,0.57 -0.08,0.29 -0.04,0.46 -0.17,0.71 -0.19,0.35 -0.13,0.24 -0.2,0.68 -0.05,0.3 -0.21,0.32 -0.29,0.6 -0.07,0.24 -0.03,0.47 -0.13,0.69 -0.11,0.25 -0.22,0.33 -0.24,0.64 -0.02,0.26 -0.13,0.44 -0.24,0.64 -0.13,0.24 -0.07,0.44 -0.18,0.7 -0.1,0.24 -0.2,0.3 -0.25,0.58 -0.06,0.35 -0.04,0.39 -0.23,0.65 -0.16,0.23 -0.1,0.41 -0.18,0.7 -0.08,0.28 -0.23,0.23 -0.27,0.61 -0.05,0.44 -0.06,0.3 -0.24,0.59 -0.15,0.23 -0.07,0.43 -0.18,0.7 -0.1,0.26 -0.22,0.31 -0.26,0.62 -0.05,0.34 -0.16,0.37 -0.27,0.61 -0.09,0.19 -0.07,0.48 -0.13,0.7 -0.08,0.28 -0.23,0.28 -0.27,0.61 -0.04,0.31 -0.07,0.42 -0.21,0.67 -0.16,0.27 -0.11,0.42 -0.17,0.71 -0.07,0.31 -0.17,0.33 -0.25,0.58 -0.1,0.29 0.03,0.43 -0.17,0.7 -0.23,0.3 -0.16,0.24 -0.22,0.66 -0.05,0.34 -0.18,0.37 -0.27,0.62 -0.07,0.2 -0.05,0.48 -0.14,0.68 -0.13,0.3 -0.23,0.16 -0.25,0.63 -0.02,0.37 -0.06,0.42 -0.21,0.67 -0.23,0.39 -0.02,0.64 -0.3,0.99 -0.23,0.3 -0.15,0.69 -0.28,1.01 -0.11,0.28 -0.18,0.23 -0.25,0.64 -0.06,0.36 -0.03,0.41 -0.31,0.58 -0.09,-0.16 -0.1,-0.25 -0.21,-0.41 -0.25,-0.35 -0.16,-0.61 -0.3,-0.95 -0.07,-0.18 -0.17,-0.25 -0.22,-0.46 -0.04,-0.18 -0.05,-0.33 -0.09,-0.52 -0.06,-0.25 -0.11,-0.27 -0.21,-0.47 -0.18,-0.37 0.01,-0.53 -0.3,-0.99 -0.2,-0.29 0.01,-0.35 -0.33,-0.91 -0.17,-0.28 -0.15,-0.7 -0.31,-0.98 -0.18,-0.31 -0.13,-0.66 -0.31,-0.98 -0.16,-0.29 -0.15,-0.71 -0.27,-1.02 -0.08,-0.19 -0.16,-0.17 -0.22,-0.41 -0.05,-0.19 -0.04,-0.35 -0.1,-0.52 -0.07,-0.19 -0.15,-0.2 -0.23,-0.4 -0.05,-0.15 -0.05,-0.39 -0.11,-0.55 -0.07,-0.16 -0.15,-0.2 -0.21,-0.42 -0.16,-0.62 -0.01,-0.35 -0.3,-0.99 -0.1,-0.22 -0.07,-0.3 -0.1,-0.56 -0.04,-0.36 -0.26,-0.58 -0.31,-0.93 -0.07,-0.47 -0.24,-0.54 -0.33,-0.97 -0.04,-0.21 -0.04,-0.32 -0.12,-0.5 -0.09,-0.2 -0.15,-0.22 -0.21,-0.47 -0.04,-0.19 -0.04,-0.36 -0.1,-0.52 -0.06,-0.17 -0.16,-0.23 -0.23,-0.45 -0.15,-0.45 0.08,-0.25 -0.27,-0.97 -0.09,-0.18 -0.08,-0.26 -0.12,-0.5 -0.04,-0.27 -0.11,-0.26 -0.22,-0.46 -0.11,-0.21 -0.07,-0.24 -0.13,-0.49 -0.08,-0.29 -0.17,-0.18 -0.25,-0.44 -0.05,-0.17 -0.04,-0.35 -0.09,-0.52 -0.08,-0.28 -0.14,-0.15 -0.24,-0.44 -0.07,-0.2 -0.05,-0.32 -0.1,-0.52 -0.06,-0.22 -0.14,-0.21 -0.22,-0.41 -0.07,-0.18 -0.06,-0.31 -0.11,-0.51 -0.05,-0.24 -0.13,-0.24 -0.23,-0.45 -0.09,-0.18 -0.09,-0.32 -0.14,-0.48 -0.07,-0.21 -0.16,-0.26 -0.23,-0.45 -0.07,-0.18 -0.05,-0.32 -0.12,-0.5 -0.08,-0.19 -0.18,-0.21 -0.24,-0.44 -0.05,-0.19 -0.04,-0.35 -0.1,-0.52 -0.07,-0.19 -0.16,-0.21 -0.23,-0.4 -0.09,-0.24 0,-0.25 -0.15,-0.47l-0.25 -0.44c-0.11,-0.22 -0.19,-0.17 -0.29,-0.35 -0.19,-0.35 -0.16,-0.38 -0.64,-0.69 -0.18,-0.12 -1.4,-0.39 -1.7,-0.4 -1,-0.01 -4.15,-0.11 -4.75,0.15 -0.33,0.14 -0.7,0.21 -0.59,0.64 0.06,0.26 0.18,0.27 0.25,0.44 0.07,0.16 0.06,0.32 0.16,0.47 0.1,0.14 0.19,0.23 0.25,0.43 0.13,0.46 0.31,0.41 0.34,0.96 0.03,0.54 0.28,0.43 0.28,1.57 0,0.29 0.05,0.34 0.06,0.6l-0.11 4.25c-0.02,0.21 0.01,0.44 -0.01,0.65 -0.07,0.75 -0.09,1.63 -0.16,2.38 -0.04,0.41 0.04,0.84 -0.03,1.24 -0.06,0.37 -0.09,3.29 -0.09,3.71 0,0.71 0.07,1.81 -0.01,2.47 -0.06,0.49 -0.17,1.19 -0.16,1.72 0,1 -0.11,1.97 -0.11,3.03 0,0.42 -0,0.84 0,1.26 0,0.61 -0.04,1.74 -0.17,2.32 -0.16,0.69 -0.2,1.61 -0.22,2.33 -0.01,0.4 -0.16,0.67 -0.24,1.05 -0.07,0.38 -0.03,0.78 -0.15,1.13 -0.2,0.54 -0.18,0.34 -0.28,1.01 -0.06,0.43 -0.21,0.51 -0.31,1 -0.09,0.46 -0.27,0.31 -0.27,1.02 0.24,0.14 0.4,0.19 0.79,0.2 0.34,0.01 0.74,0.01 1.08,-0 0.48,-0.01 1.48,-0.01 1.93,-0.19 0.39,-0.15 0.88,-0.11 1.21,-0.33l0.36 -0.18c0.05,-0.03 0.48,-0.48 0.5,-0.51 0.09,-0.16 0.34,-2.22 0.34,-2.53l0 -7.63c0,-0.68 0.06,-1.18 0.06,-1.87l0 -2.88c-0,-0.38 0.06,-0.57 0.06,-0.91 0,-1.26 -0.02,-2.53 -0,-3.79 0.01,-0.57 0.17,-1.19 0.11,-1.81 -0.04,-0.44 -0.14,-1.29 0.12,-1.72 0.26,0.16 0.18,0.3 0.31,0.59 0.07,0.16 0.1,0.15 0.14,0.33 0.03,0.15 0.04,0.24 0.07,0.39 0.07,0.33 0.2,0.35 0.27,0.66 0.08,0.32 0.02,0.46 0.21,0.73 0.2,0.28 0.19,0.7 0.39,1.02 0.11,0.18 0.07,0.1 0.11,0.35 0.07,0.44 0.07,0.32 0.27,0.67 0.14,0.25 0.05,0.49 0.18,0.75 0.12,0.24 0.22,0.36 0.26,0.63 0.05,0.39 0.19,0.33 0.3,0.64 0.09,0.26 0.07,0.45 0.23,0.71 0.19,0.31 0.09,0.48 0.22,0.72 0.15,0.3 0.22,0.22 0.28,0.66 0.05,0.38 0.18,0.36 0.28,0.65 0.11,0.32 -0.02,0.4 0.2,0.73 0.23,0.33 0.13,0.35 0.22,0.71 0.09,0.32 0.19,0.22 0.27,0.62 0.08,0.44 -0.03,0.33 0.24,0.7 0.14,0.19 0.12,0.53 0.2,0.73 0.06,0.16 0.1,0.15 0.17,0.31 0.1,0.22 0.08,0.54 0.18,0.75 0.08,0.16 0.11,0.14 0.19,0.29l0.41 1.45c0.04,0.31 0.19,0.41 0.28,0.66 0.16,0.45 -0.06,0.19 0.31,1.04 0.04,0.09 0.07,0.28 0.08,0.38 0.02,0.18 0.01,0.24 0.07,0.39 0.04,0.1 0.11,0.17 0.18,0.29 0.15,0.26 0.05,0.48 0.19,0.74 0.07,0.12 0.14,0.15 0.19,0.29 0.11,0.27 0.02,0.41 0.24,0.69 0.14,0.18 0.21,0.42 0.35,0.6 0.3,0.37 0.41,0.4 0.83,0.62 0.39,0.21 1.27,0.11 1.85,0.11 0.83,0 2.07,0.18 2.66,-0.35l0.42 -0.53c0.07,-0.18 0.02,-0.16 0.12,-0.35 0.07,-0.13 0.15,-0.2 0.19,-0.28 0.11,-0.2 0.08,-0.48 0.22,-0.71 0.2,-0.31 0.12,-0.29 0.19,-0.68 0.07,-0.36 0.22,-0.33 0.29,-0.65 0.09,-0.36 0.01,-0.44 0.2,-0.73 0.24,-0.35 0.08,-0.36 0.19,-0.74 0.09,-0.3 0.25,-0.32 0.3,-0.64 0.03,-0.18 0.01,-0.24 0.08,-0.38 0.09,-0.18 0.12,-0.13 0.19,-0.28 0.1,-0.22 0.05,-0.53 0.15,-0.78 0.14,-0.34 0.18,-0.13 0.27,-0.67 0.06,-0.37 0.18,-0.34 0.28,-0.61 0.08,-0.23 0.03,-0.52 0.15,-0.77 0.09,-0.2 0.1,-0.09 0.19,-0.29 0.04,-0.1 0.03,-0.24 0.07,-0.39 0.07,-0.3 0.25,-0.33 0.3,-0.64 0.08,-0.44 -0,-0.36 0.22,-0.72 0.14,-0.23 0.13,-0.47 0.19,-0.74 0.06,-0.27 0.04,-0.11 0.17,-0.3 0.22,-0.33 0.05,-0.67 0.32,-1.08 0.17,-0.26 0.1,-0.4 0.2,-0.68 0.1,-0.27 0.22,-0.34 0.27,-0.66 0.06,-0.36 0.08,-0.38 0.26,-0.68 0.11,-0.19 0.04,-0.45 0.33,-1.06 0.06,-0.13 0.07,-0.23 0.09,-0.37 0.05,-0.36 0.08,-0.38 0.25,-0.68 0.12,-0.22 0.08,-0.53 0.2,-0.73 0.09,-0.16 0.12,-0.06 0.19,-0.28 0.05,-0.15 0.02,-0.26 0.06,-0.43z"/>
   <path class="fil0" d="M61.55 22.54c0.4,0 0.49,-0.07 0.73,-0.2 0.26,-0.13 0.46,-0.08 0.71,-0.22 0.28,-0.16 0.41,-0.14 0.67,-0.25 0.35,-0.15 0.26,-0.17 0.75,-0.24 0.42,-0.06 0.44,-0.22 1.05,-0.33 0.46,-0.08 0.36,-0.18 1.14,-0.29 0.67,-0.1 0.22,-0.19 1.61,-0.33 0.3,-0.03 0.5,-0.14 0.75,-0.19 0.58,-0.11 1.2,-0.06 1.82,-0.14l1.74 -0.16c0.31,-0.04 0.63,0.01 0.94,-0.02 1.98,-0.15 2.07,0.02 3.69,0.24 0.34,0.05 0.61,0.02 0.93,0.07 0.34,0.06 0.39,0.16 0.77,0.22 0.49,0.07 0.4,0.01 0.78,0.21 0.28,0.15 0.52,0.09 0.75,0.24 0.31,0.21 0.69,0.35 0.99,0.53 0.29,0.19 0.84,0.63 1.04,0.89 0.12,0.15 0.06,0.12 0.21,0.27 0.2,0.19 0.09,0.23 0.25,0.43 0.01,0.02 0.11,0.12 0.12,0.14 0.19,0.25 0.04,0.33 0.3,0.64 0.13,0.15 0.09,0.1 0.13,0.34 0.14,0.82 0.36,0.23 0.36,2l-0.06 2.22c-0.03,0.35 -0.12,0.36 -0.22,0.61 -0.09,0.22 -0.05,0.45 -0.16,0.67 -0.11,0.22 -0.2,0.32 -0.27,0.57 -0.07,0.25 -0.18,0.31 -0.3,0.54l-0.72 0.97c-0.15,0.17 -0.27,0.27 -0.45,0.4 -0.18,0.14 -0.08,0.07 -0.22,0.21 -0.22,0.21 -0.51,0.36 -0.76,0.53 -0.21,0.15 -0.32,0.12 -0.56,0.3 -0.25,0.19 -0.35,0.1 -0.61,0.26 -0.33,0.21 -0.33,0.12 -0.65,0.22 -0.22,0.07 -0.38,0.22 -0.63,0.25 -0.34,0.05 -0.48,0.01 -0.8,0.09 -0.25,0.06 -0.44,0.17 -0.71,0.17 -0.66,0 -1.46,0.08 -2.09,-0.05l-0.11 -3.23c0,-0.36 0.09,-0.58 0.02,-0.93 -0.07,-0.38 0,-0.64 0.03,-0.94 0.15,-1.57 -0.16,-4.06 0.05,-5.61l-0 -0.39c-0.06,-0.26 -0.18,-0.31 -0.55,-0.31 -1.66,0 -1.78,-0.12 -3.25,0.22 -0.43,0.1 -0.97,0.05 -1.32,0.18 -0.21,0.08 -0.23,0.13 -0.53,0.18 -0.29,0.05 -0.41,0.04 -0.58,0.18 -0.37,0.29 -0.41,1.02 -0.41,1.45 0,1.18 0.17,2.17 0.17,3.33l0 5.45c0,0.16 -0.03,0.11 -0.03,0.2l-0 2.73c0.01,0.07 0,0.07 0.01,0.17l-0.04 2.55c0,0.41 -0.06,0.66 -0.06,1.01l-0.08 8.27c0.04,0.28 -0.11,1.6 -0.19,1.84 -0.05,0.14 -0.1,0.23 -0.14,0.38 -0.05,0.18 -0.02,0.31 -0.05,0.51 -0.09,0.67 -0.63,1.28 0.64,1.28 0.68,0 2.09,0.01 2.69,-0.17 0.63,-0.19 1.15,-0.12 1.55,-0.23 0.36,-0.11 0.34,-0.18 0.84,-0.26 0.26,-0.04 0.22,-0.03 0.39,-0.16 0.26,-0.19 0.48,-0.23 0.63,-0.49 0.32,-0.54 0.28,-0.7 0.28,-1.36l0 -6.87c-0,-0.32 -0.06,-0.42 -0.06,-0.75 0,-0.58 0.06,-0.97 0.06,-1.57l-0 -2.42c-0.01,-0.82 0.05,-0.61 1.58,-0.61 0.17,0 0.35,0.02 0.48,0.08 0.1,0.04 0.07,0.04 0.17,0.1 0.08,0.05 0.09,0.05 0.18,0.1 0.26,0.14 0.44,0.29 0.62,0.5 0.17,0.2 0.38,0.36 0.48,0.58l0.44 0.67c0.22,0.27 0.2,0.43 0.42,0.64 0.23,0.23 0.07,0.08 0.2,0.33 0.08,0.16 0.15,0.16 0.24,0.34 0.06,0.12 0.08,0.25 0.16,0.36 0.14,0.2 0.12,0.06 0.23,0.35 0.13,0.36 0.58,0.94 0.62,1.01 0.06,0.12 0.07,0.25 0.15,0.37l0.46 0.64c0.15,0.16 0.06,0.19 0.39,0.66 0.21,0.31 0.39,0.7 0.62,1.01 0.11,0.14 0.1,0.21 0.18,0.35 0.09,0.17 0.12,0.13 0.22,0.3 0.08,0.15 0.09,0.27 0.18,0.39 0.11,0.16 0.1,0.1 0.2,0.33 0.12,0.27 0.2,0.24 0.41,0.69l0.84 1.32c0.16,0.2 0.09,0.2 0.2,0.38l0.42 0.64c0.08,0.09 0.03,-0.01 0.12,0.14 0.04,0.06 0.05,0.11 0.08,0.18 0.08,0.14 0.18,0.21 0.26,0.32 0.12,0.16 0.04,0.18 0.18,0.35 0.11,0.14 0.12,0.1 0.24,0.29 0.24,0.41 0.69,0.88 0.97,1.26 0.14,0.19 0.28,0.46 0.47,0.64l1.68 1.58c0.14,0.1 0.16,0.09 0.32,0.22 0.19,0.16 0.43,0.39 0.66,0.47l0.36 0.18c0.19,0.12 0.41,0.12 0.59,0.23 0.24,0.14 0.4,0.13 0.68,0.2 0.62,0.14 0.37,0.27 1.5,0.27 2.8,0 1.97,-0.24 2.99,-0.3 0.29,-0.02 0.41,-0.09 0.62,-0.2 0.22,-0.11 0.39,-0.07 0.64,-0.13 0.29,-0.08 0.18,-0.17 0.55,-0.27 0.42,-0.11 0.26,-0.05 0.56,-0.26 0.39,-0.27 0.37,-0.42 0.21,-0.84 -0.07,-0.18 -0.06,-0.2 -0.24,-0.29l-0.74 -0.35c-0.2,-0.09 -0.15,-0.12 -0.34,-0.2 -0.17,-0.07 -0.23,-0.05 -0.4,-0.15 -0.12,-0.07 -0.19,-0.14 -0.34,-0.2 -0.44,-0.17 -0.64,-0.38 -1.03,-0.59 -0.46,-0.25 -0.82,-0.59 -1.2,-0.95 -0.19,-0.18 -0.09,-0.14 -0.22,-0.31l-0.39 -0.46c-0.01,-0.01 -0.02,-0.02 -0.03,-0.03 -0.01,-0.01 -0.02,-0.02 -0.03,-0.03l-0.83 -0.92c-0.22,-0.43 -0.54,-0.58 -0.72,-0.87l-0.16 -0.21c-0.01,-0.01 -0.02,-0.02 -0.02,-0.03 -0.12,-0.16 -0.13,-0.26 -0.28,-0.41 -0.38,-0.38 -0.56,-0.79 -0.68,-0.91 -0.26,-0.26 -0.51,-0.75 -0.68,-0.91 -0.21,-0.19 -0.26,-0.45 -0.44,-0.67l-1.09 -1.55c-0.07,-0.14 0.02,-0.02 -0.1,-0.16 -0.35,-0.4 -0.15,-0.26 -0.33,-0.52l-0.66 -0.97c-0.07,-0.08 -0.11,-0.02 -0.23,-0.25 -0.1,-0.19 -0.01,-0.16 -0.17,-0.36 -0.09,-0.11 -0.16,-0.17 -0.23,-0.3l-0.44 -0.67c-0.34,-0.42 -0.18,-0.35 -0.43,-0.62 -0.1,-0.11 -0.14,-0.18 -0.23,-0.3l-0.67 -0.92c-0.11,-0.16 -0.12,-0.1 -0.23,-0.3 -0.1,-0.18 -0.09,-0.2 -0.24,-0.34 -0.18,-0.18 -0.35,-0.37 -0.46,-0.6 -0.11,-0.24 -0.29,-0.39 -0.48,-0.58l-0.88 -1.28c0.25,-0.23 0.57,-0.3 0.87,-0.48 0.33,-0.2 0.15,-0.13 0.54,-0.27 0.21,-0.08 0.18,-0.12 0.33,-0.21 0.15,-0.08 0.23,-0.06 0.38,-0.16l1.92 -1.31c0.48,-0.41 0.98,-0.81 1.38,-1.29l0.65 -0.93c0.19,-0.51 0.22,-0.25 0.35,-0.7 0.08,-0.3 0.25,-0.32 0.36,-0.69 0.08,-0.26 0.27,-0.45 0.31,-0.73 0.07,-0.47 0.2,-0.41 0.31,-0.74 0.08,-0.26 0.01,-0.6 0.14,-0.89 0.14,-0.32 0.24,-0.38 0.24,-0.84 0,-0.9 0.09,-2.22 -0.06,-3.08 -0.07,-0.41 -0.18,-0.25 -0.29,-1.16 -0.03,-0.28 -0.14,-0.28 -0.25,-0.48 -0.16,-0.3 0.01,-0.25 -0.33,-0.77 -0.1,-0.15 -0.12,-0.37 -0.22,-0.51l-0.61 -0.87c-0.06,-0.11 -0.09,-0.1 -0.18,-0.19 -0.15,-0.15 -0.2,-0.23 -0.37,-0.38 -0.36,-0.32 -0.99,-0.98 -1.43,-1.2 -0.24,-0.12 -0.5,-0.24 -0.72,-0.42 -0.23,-0.18 -0.24,-0.14 -0.48,-0.28l-0.23 -0.15c-0.12,-0.06 -0.15,-0.06 -0.29,-0.1 -0.21,-0.06 -0.26,-0.14 -0.83,-0.32 -0.23,-0.07 -0.08,-0.03 -0.24,-0.14 -0.22,-0.14 -0.37,-0.1 -0.62,-0.15 -0.28,-0.06 -0.29,-0.14 -0.56,-0.21 -0.23,-0.06 -0.48,-0.05 -0.68,-0.1 -0.27,-0.07 -0.31,-0.15 -0.55,-0.21 -0.4,-0.11 -1,-0.07 -1.47,-0.1 -0.66,-0.04 -0.55,-0.25 -2.09,-0.25 -1.09,0 -2,-0.05 -3.1,-0.05 -0.88,0 -4.21,0.01 -5.05,0.17 -0.28,0.06 -0.29,0.13 -0.64,0.13 -0.65,0.01 -1.39,-0.03 -2.03,0.15 -0.47,0.13 -0.77,0.15 -1.28,0.22 -0.34,0.05 -0.36,0.1 -0.59,0.18 -0.47,0.15 -0.75,0.01 -1.22,0.27 -0.38,0.2 -0.89,0.12 -1.18,0.26 -0.58,0.29 -0.84,0.11 -1.16,0.32 -0.14,0.09 -0.29,0.17 -0.5,0.21l-1.07 0.4c-0.53,0.39 -0.22,0.55 -0.12,0.88 0.07,0.23 0.04,0.39 0.09,0.63 0.06,0.24 0.15,0.26 0.25,0.44 0.13,0.24 0.01,0.34 0.14,0.58 0.1,0.18 0.18,0.19 0.24,0.44 0.2,0.86 0.01,0.22 0.3,0.74 0.08,0.15 0.03,0.12 0.08,0.28 0.06,0.16 0.24,0.33 0.43,0.33z"/>
   <path class="fil0" d="M123.62 48.85l-2.93 -0.2c-0.18,-0.34 -0.17,-1.94 -0.17,-2.42 -0,-0.35 0.05,-0.52 0.06,-0.81 0.04,-1.12 -0,-2.31 -0,-3.44l0 -20.76c0.07,-0.35 0.82,-0.2 1.58,-0.2 0.75,0 2.07,-0.05 2.8,0.07 0.29,0.05 0.46,0.13 0.75,0.19 0.25,0.05 0.62,0.03 0.86,0.09 0.31,0.08 0.29,0.19 0.68,0.25 0.16,0.02 0.24,0.02 0.38,0.06 0.19,0.06 0.16,0.08 0.33,0.16 0.36,0.15 0.35,-0.01 0.68,0.25 0.32,0.25 0.18,-0.01 0.63,0.29 0.39,0.26 0.23,0 0.61,0.31l0.54 0.37c0.11,0.07 0.19,0.08 0.29,0.15l1.71 1.55c0.08,0.09 0.09,0.15 0.16,0.26 0.14,0.23 0.48,0.42 0.63,0.75 0.13,0.27 0.16,0.23 0.35,0.55 0.12,0.2 0.26,0.34 0.32,0.57 0.05,0.18 0.01,0.14 0.11,0.31 0.32,0.53 0.1,0.13 0.28,0.61 0.09,0.25 0.1,0.12 0.2,0.28 0.13,0.2 0.08,0.52 0.18,0.75 0.04,0.11 0.11,0.15 0.16,0.26 0.14,0.3 -0.02,0.53 0.29,1.05 0.26,0.44 0.07,1.33 0.33,2.28 0.06,0.22 0.11,0.48 0.11,0.76l0.05 2.73c0,0.34 -0.06,0.31 -0.02,0.62 0.07,0.45 -0.19,1.53 -0.27,1.95 -0.07,0.38 -0.05,0.97 -0.19,1.29 -0.4,0.92 -0.04,0.51 -0.45,1.46 -0.18,0.42 0,0.52 -0.26,0.88 -0.2,0.28 -0.11,0.22 -0.2,0.58 -0.09,0.35 -0.21,0.19 -0.29,0.5 -0.05,0.18 0.02,0.13 -0.07,0.29 -0.06,0.11 -0.1,0.1 -0.18,0.19 -0.17,0.21 -0.04,0.24 -0.29,0.5 -0.11,0.12 -0.08,0.08 -0.16,0.21 -0.09,0.16 -0.06,0.11 -0.18,0.24 -0.23,0.25 -0.02,0.14 -0.34,0.46 -0.12,0.12 -0.25,0.26 -0.36,0.39 -0.19,0.22 -1.37,1.24 -1.71,1.4 -0.38,0.18 -0.06,0.13 -0.5,0.31 -0.43,0.19 -0.23,0.18 -0.53,0.29 -0.5,0.17 -0.2,0.17 -0.53,0.28 -0.12,0.04 -0.18,0.03 -0.3,0.08 -0.14,0.06 -0.11,0.07 -0.24,0.14 -0.23,0.13 -0.39,0.08 -0.64,0.19 -0.93,0.41 -0.76,0.11 -1.3,0.35 -0.25,0.11 -0.32,0.13 -0.62,0.16 -0.25,0.03 -0.57,0.04 -0.78,0.06 -0.55,0.04 -0.99,0.11 -1.58,0.11zm-12.41 -30l0 1.67c0,0.18 0.52,0.49 0.73,0.51 0.65,0.05 1.38,-0.03 2.04,-0.01 0.33,0.01 0.28,0.06 0.28,0.36l0.04 2.46c0.05,1.17 -0.04,2.42 -0.04,3.56l0 19.39c0,0.58 0.07,1.18 -0.07,1.75 -0.03,0.13 -0.13,0.28 -0.18,0.44 -0.12,0.35 -0.07,0.7 -0.26,0.98 -0.16,0.23 -0.1,0.43 -0.25,0.68 -0.08,0.14 -0.1,0.11 -0.15,0.17 -0.09,0.13 -0.09,0.32 -0.16,0.46 -0.11,0.2 -0.17,0.1 -0.25,0.38 -0.28,0.99 0.21,0.76 0.8,0.96 0.23,0.08 0.17,0.13 0.46,0.19 0.3,0.07 0.9,0.07 1.22,0.12 0.88,0.15 1.51,0.21 2.47,0.21l3.16 0.14c0.26,-0 0.27,-0.02 0.57,0.01l3.94 -0.09c1.31,-0.01 1.54,-0.24 2.33,-0.34 1.18,-0.15 0.36,-0.03 1.08,-0.24 0.23,-0.07 0.32,-0.05 0.57,-0.09 0.41,-0.06 0.22,-0.18 1.02,-0.3 0.29,-0.05 0.22,-0.1 0.44,-0.21 0.2,-0.1 0.31,-0.07 0.5,-0.16 0.2,-0.09 0.18,-0.14 0.44,-0.22 0.23,-0.06 0.67,-0.33 0.89,-0.47l0.18 -0.09c0.25,-0.11 0.35,-0.27 0.63,-0.35 0.44,-0.13 0.81,-0.5 1.16,-0.78 0.5,-0.41 0.98,-0.59 1.45,-1.13 0.2,-0.22 0.59,-0.44 0.97,-0.95 0.12,-0.15 0.06,-0.07 0.16,-0.16l1.06 -1.18c0.14,-0.17 0.09,-0.21 0.25,-0.38 0.21,-0.23 0.4,-0.46 0.53,-0.74 0.11,-0.24 0.18,-0.19 0.27,-0.36 0.12,-0.21 0.02,-0.18 0.21,-0.42 0.18,-0.21 0.11,-0.17 0.2,-0.42 0.07,-0.19 0.19,-0.23 0.26,-0.37 0.08,-0.14 0.06,-0.31 0.14,-0.48 0.08,-0.2 0.15,-0.16 0.22,-0.41 0.06,-0.18 0.05,-0.33 0.13,-0.49 0.08,-0.17 0.17,-0.2 0.23,-0.4 0.2,-0.76 0.26,-0.66 0.37,-1.49 0.07,-0.54 0.28,-0.61 0.32,-0.93 0.05,-0.41 0.04,-0.71 0.15,-1.08 0.29,-0.97 0.12,-1.25 0.29,-2.17 0.11,-0.58 0.21,-0.96 0.24,-1.6 0.05,-0.9 0.05,-3.52 -0.18,-4.19 -0.08,-0.26 -0.13,-0.61 -0.16,-0.92 -0.04,-0.43 0.02,-0.58 -0.14,-0.94 -0.15,-0.34 -0.17,-0.45 -0.21,-0.88 -0.04,-0.43 -0.21,-0.41 -0.3,-0.79 -0.1,-0.41 -0.08,-0.45 -0.28,-0.81 -0.12,-0.22 -0.05,-0.17 -0.11,-0.4 -0.07,-0.27 -0.11,-0.15 -0.22,-0.36 -0.05,-0.1 -0.08,-0.26 -0.13,-0.39 -0.09,-0.23 -0.1,-0.18 -0.22,-0.36 -0.13,-0.2 -0.05,-0.19 -0.15,-0.37 -0.06,-0.11 -0.17,-0.2 -0.24,-0.34 -0.25,-0.53 -0.32,-0.54 -0.62,-1.01 -0.22,-0.35 -0.54,-0.58 -0.75,-0.94 -0.14,-0.23 -0.56,-0.64 -0.79,-0.86l-0.59 -0.53c-0.14,-0.12 -0.2,-0.14 -0.34,-0.25 -0.22,-0.17 -0.37,-0.38 -0.61,-0.52 -0.58,-0.31 -0.8,-0.53 -1.02,-0.66 -0.22,-0.13 -0.91,-0.55 -1.13,-0.6 -0.29,-0.07 -0.17,-0.01 -0.38,-0.17 -0.24,-0.19 -0.16,-0.08 -0.44,-0.16 -0.22,-0.06 -0.15,-0.1 -0.34,-0.2 -0.19,-0.1 -0.29,-0.07 -0.48,-0.12 -0.22,-0.06 -0.19,-0.1 -0.37,-0.18 -0.2,-0.08 -0.29,-0.06 -0.49,-0.12 -0.42,-0.12 -0.19,-0.21 -0.87,-0.29 -0.45,-0.05 -0.51,-0.19 -0.89,-0.26 -0.43,-0.08 -0.62,-0.03 -0.98,-0.18 -0.37,-0.15 -0.54,-0.14 -0.98,-0.19 -0.48,-0.05 -0.55,-0.11 -0.97,-0.19 -0.87,-0.16 -2.43,-0.1 -3.41,-0.13l-1.13 -0.05c-0.48,0 -4.55,0.09 -4.9,0.21 -0.25,0.08 -0.31,0.15 -0.64,0.19 -0.29,0.03 -0.6,-0.02 -0.86,0.04 -0.26,0.06 -0.34,0.16 -0.6,0.22 -0.21,0.05 -0.56,0.05 -0.75,0.09 -0.66,0.12 -0.3,0.2 -1.45,0.27 -0.36,0.02 -0.47,0.18 -0.74,0.25 -0.2,0.05 -0.4,0.03 -0.56,0.1 -0.25,0.11 -0.62,0.73 -0.62,1.01z"/>
   <path class="fil0" d="M263.22 31.08c0,1.31 0.11,11.66 -0.12,12.22 -0.1,0.23 -0.18,0.3 -0.21,0.62 -0.1,0.98 -0.15,0.57 -0.36,1.29 -0.07,0.24 -0.2,0.29 -0.3,0.54 -0.12,0.32 -0.21,0.28 -0.32,0.52 -0.1,0.2 0.03,0.1 -0.14,0.28 -0.26,0.29 -1,1.03 -1.31,1.2 -0.42,0.24 -1.01,0.55 -1.5,0.68 -0.3,0.08 -0.34,0.17 -0.64,0.24 -0.2,0.04 -0.57,0.05 -0.81,0.09 -1.46,0.22 -1.03,0.03 -2.43,-0.05 -0.59,-0.03 -0.74,-0.19 -1.29,-0.31 -0.29,-0.06 -0.29,-0.13 -0.53,-0.23 -0.18,-0.08 -0.9,-0.37 -1.04,-0.48 -0.57,-0.47 -0.9,-0.71 -1.39,-1.28 -0.07,-0.08 -0.14,-0.13 -0.19,-0.19 -0.11,-0.15 -0.09,-0.23 -0.29,-0.5 -0.17,-0.22 -0.07,-0.29 -0.22,-0.51 -0.16,-0.23 -0.18,-0.17 -0.23,-0.5 -0.05,-0.35 -0.05,-0.27 -0.2,-0.52 -0.11,-0.17 -0.11,-0.38 -0.15,-0.62 -0.04,-0.28 -0.1,-0.29 -0.2,-0.53 -0.16,-0.4 -0.15,-2.13 -0.23,-2.67 -0.1,-0.67 -0.22,-1.37 -0.1,-2.04 0.12,-0.7 0.03,-2.07 0.03,-2.85 -0,-0.53 0.06,-0.86 0.06,-1.36 -0.01,-2.4 0.11,-4.71 0.11,-7.12 0,-0.96 0,-1.92 0,-2.88 0,-1.05 0.2,-4.88 0.08,-5.53 -0.13,-0.74 -0.09,-0.57 -0.66,-0.82 -0.44,-0.19 -0.06,-0.18 -0.83,-0.32 -0.38,-0.07 -0.38,-0.2 -0.94,-0.27 -0.45,-0.06 -0.83,-0.21 -1.28,-0.27 -0.27,-0.04 -0.54,0 -0.81,-0.03l-2.16 -0.09c-0.24,0.04 -0.49,0.08 -0.67,0.16 -0.16,0.61 0.22,0.73 0.28,1.22 0.05,0.45 0.07,0.58 0.23,1 0.12,0.32 0.17,1.84 0.17,2.32 0,0.27 0.05,0.3 0.06,0.55 0.01,0.2 -0.01,0.41 -0,0.61l0.06 1.16c-0,0.45 0.06,0.77 0.06,1.16l0 3.08c-0,0.28 -0.04,0.32 -0.06,0.55 -0.02,0.38 0,0.83 0,1.21 0,0.47 -0.06,0.79 -0.06,1.21 0.01,0.86 -0.06,1.56 -0.06,2.37 0,0.82 -0,1.65 0,2.47 0,0.46 -0.06,0.75 -0.06,1.16l0 2.42c0,0.47 0.06,0.81 0.06,1.21 -0,1.09 0.21,1.35 0.22,2.23 0,0.27 0.05,0.3 0.06,0.55 0.01,0.38 -0.02,0.74 0.09,1.13 0.05,0.19 0.14,0.33 0.18,0.5 0.08,0.4 0.02,0.72 0.23,1 0.2,0.26 0.17,0.62 0.35,0.9 0.15,0.23 0.11,0.15 0.17,0.45 0.07,0.3 0.13,0.18 0.25,0.39 0.07,0.13 0.08,0.31 0.17,0.45 0.11,0.15 -0.02,-0.02 0.08,0.08l0.19 0.33c0.11,0.21 0.18,0.16 0.28,0.35 0.14,0.25 0.04,0.16 0.25,0.38l2.19 2.03c0.27,0.25 0.73,0.37 1.03,0.59 0.22,0.16 0.15,0.13 0.45,0.21 0.27,0.07 0.23,0.11 0.43,0.22l0.96 0.35c0.86,0.15 0.39,0.17 1.67,0.38 0.45,0.07 0.62,0.24 1.13,0.25 0.9,0.01 1.65,0.25 2.48,0.25 0.97,0 1.53,0.02 2.48,-0.16 0.71,-0.14 1.14,0.01 1.93,-0.29 0.18,-0.07 0.25,-0.05 0.47,-0.08 0.71,-0.09 0.69,-0.24 1.32,-0.34 0.38,-0.06 0.31,-0.18 0.8,-0.3 0.27,-0.07 0.17,-0.06 0.35,-0.19 0.21,-0.15 0.18,-0.07 0.4,-0.15 0.2,-0.08 0.16,-0.14 0.32,-0.21 0.18,-0.08 0.22,-0.02 0.4,-0.14 0.17,-0.11 0.08,-0.11 0.32,-0.22 0.74,-0.32 1.53,-1.14 2.06,-1.69 0.09,-0.09 0.03,-0.01 0.12,-0.15 0.07,-0.12 -0.01,-0.03 0.1,-0.16 0.11,-0.14 0.12,-0.11 0.25,-0.28l0.27 -0.27c0.11,-0.12 0.11,-0.18 0.22,-0.31 0.15,-0.17 0.17,-0.3 0.3,-0.49 0.08,-0.11 0.05,-0.05 0.12,-0.14 0.18,-0.22 0.07,-0.19 0.17,-0.4 0.07,-0.14 0.16,-0.18 0.23,-0.3 0.07,-0.13 0.07,-0.26 0.13,-0.39 0.08,-0.19 0.14,-0.17 0.21,-0.31 0.07,-0.14 0.05,-0.25 0.1,-0.42 0.09,-0.3 0.26,-0.42 0.3,-0.74 0.06,-0.45 0.15,-0.44 0.28,-0.76 0.1,-0.25 0.08,-0.58 0.13,-0.89 0.04,-0.24 0.17,-0.48 0.23,-0.8l0.21 -5.93c0,-1.36 -0.11,-2.6 -0.11,-3.99 0,-1.51 -0.07,-12.23 0.02,-12.81l0.21 -2.24c-0,-0.37 0.19,-1.2 -0.07,-1.45 -0.17,-0.17 -1.15,-0.18 -1.55,-0.09 -0.27,0.06 -0.29,0.17 -0.65,0.23 -0.24,0.04 -0.57,0.03 -0.77,0.12 -0.24,0.11 -0.38,0.19 -0.65,0.23 -0.71,0.1 -0.84,0.24 -1.46,0.31 -0.51,0.06 -0.31,0.12 -0.64,0.23 -0.73,0.25 -0.56,0.13 -0.99,0.78 -0.33,0.49 -0.05,1.64 -0.06,2.27l0.11 3.54c0.01,0.22 0.05,0.19 0.06,0.41 0.01,0.27 -0.07,0.43 -0.06,0.76 0.01,0.3 0.06,0.41 0.06,0.76 -0,0.54 0,1.08 -0,1.62 -0,0.53 0.06,0.98 0.06,1.57 0,0.56 0,1.11 0,1.67z"/>
   <path class="fil0" d="M274.79 35.98c0,0.73 0.02,1.52 0.14,2.2 0.06,0.36 0.08,0.47 0.09,0.88 0.01,0.24 0.05,0.23 0.06,0.45 0.02,0.31 -0.01,0.57 0.09,0.88 0.27,0.82 0.16,0.16 0.25,1.29 0.03,0.4 0.2,0.46 0.27,0.72 0.08,0.29 0.01,0.63 0.16,0.86 0.35,0.55 0.11,0.1 0.29,0.7 0.05,0.18 0.1,0.19 0.19,0.34 0.15,0.25 0.08,0.44 0.29,0.7 0.15,0.18 0.08,0.15 0.16,0.36 0.08,0.2 0.12,0.16 0.22,0.31 0.08,0.12 0.08,0.24 0.15,0.37 0.09,0.17 0.13,0.12 0.21,0.26 0.06,0.1 0.09,0.26 0.15,0.37 0.1,0.17 0.13,0.11 0.22,0.3 0.13,0.26 0.28,0.4 0.39,0.61l1.65 1.96c0.14,0.14 0.07,0.1 0.24,0.24l1.32 1.04c0.29,0.17 0.51,0.39 0.83,0.52 0.27,0.1 0.12,0.04 0.32,0.17 0.14,0.09 0.25,0.1 0.39,0.16 0.22,0.09 0.16,0.13 0.33,0.21 0.19,0.09 0.19,0.03 0.39,0.15 0.17,0.1 0.08,0.1 0.32,0.17 0.63,0.19 0.5,0.23 0.78,0.31 0.57,0.17 0.59,0.25 1.23,0.36 0.43,0.07 0.36,0.21 0.83,0.27 0.34,0.04 0.51,0.11 0.83,0.22 0.43,0.14 0.99,0.1 1.48,0.14 0.52,0.05 0.94,0.19 1.48,0.19 0.87,0 1.98,0.1 2.8,-0.12 0.54,-0.14 1.34,-0.02 1.84,-0.22 0.38,-0.16 0.35,-0.18 0.84,-0.21 0.57,-0.04 0.54,-0.22 1.18,-0.31 0.25,-0.04 0.23,-0.03 0.41,-0.14 0.31,-0.19 0.47,-0.1 0.77,-0.22 0.15,-0.06 0.13,-0.1 0.31,-0.18 0.21,-0.09 0.26,-0.03 0.45,-0.1 0.18,-0.06 0.14,-0.12 0.29,-0.2 0.21,-0.12 0.32,-0.05 0.7,-0.28 0.2,-0.12 0.22,-0.06 0.4,-0.14 0.14,-0.07 0.16,-0.15 0.28,-0.21 0.17,-0.08 0.18,-0.01 0.38,-0.12l0.63 -0.4c0.23,-0.16 0.35,-0.16 0.59,-0.38 0.21,-0.18 0.32,-0.29 0.46,-0.55 0.2,-0.37 0.11,-0.37 0.09,-0.78 -0.02,-0.37 -0.11,-0.5 -0.11,-0.86 0,-0.79 -0.08,-4.18 0.02,-4.78l0.15 -3.66c-0,-0.38 0.05,-0.59 0.06,-0.91l-0 -1.67c0,-0.3 -0.09,-0.36 -0.26,-0.52 -0.2,-0.19 -0.32,-0.19 -0.62,-0.25 -0.17,-0.04 -0.41,-0.13 -0.66,-0.17l-1.67 -0.07c-1.33,0 -2.87,0.01 -4.2,0.18 -0.56,0.07 -1.66,0.02 -2.45,0.13 -0.26,0.04 -0.34,0.17 -0.57,0.3 -0.34,0.2 -0.19,0.18 -0.36,0.49 -0.12,0.21 -0.27,0.19 -0.27,0.56 0,0.32 -0.12,0.96 0.14,1.18 0.44,0.37 0.14,0.2 0.67,0.46 0.13,0.06 0.05,0.04 0.17,0.1 0.43,0.2 1.18,0.07 1.75,0.15 0.56,0.08 1.05,0.03 1.5,0.37 0.22,0.17 0.41,0.58 0.46,0.85 0.1,0.54 0.08,5.72 -0.02,6.53 -0.04,0.33 -0.13,0.49 -0.35,0.7 -0.1,0.1 -0.18,0.1 -0.32,0.17 -0.22,0.11 -0.27,0.21 -0.58,0.24 -0.32,0.03 -0.4,0.01 -0.66,0.12 -0.32,0.14 -0.23,0.14 -0.69,0.14 -0.96,-0.01 -2.25,0.19 -3.19,-0.13 -0.38,-0.13 -0.88,-0.13 -1.25,-0.29 -0.26,-0.12 -0.35,-0.08 -0.62,-0.16 -0.24,-0.07 -0.21,-0.18 -0.5,-0.26 -0.39,-0.1 -0.24,-0.03 -0.54,-0.22 -0.2,-0.13 -0.33,-0.09 -0.52,-0.24l-0.69 -0.44c-0.13,-0.07 -0.13,-0.03 -0.25,-0.13l-1.95 -1.79c-0.14,-0.15 -0.13,-0.29 -0.29,-0.45l-0.84 -1.32c-0.03,-0.09 -0.06,-0.18 -0.11,-0.26 -0.07,-0.12 -0.08,-0.07 -0.16,-0.21l-0.45 -1.01c-0.05,-0.18 -0.21,-0.29 -0.26,-0.47 -0.07,-0.21 -0.04,-0.38 -0.14,-0.59 -0.12,-0.27 -0.16,-0.16 -0.22,-0.51 -0.03,-0.17 -0.04,-0.42 -0.12,-0.6 -0.1,-0.25 -0.18,-0.21 -0.2,-0.53 -0.02,-0.26 -0.05,-0.38 -0.06,-0.66 -0.02,-0.53 -0.26,-0.72 -0.28,-1.16 -0.07,-1.47 -0.15,-4.1 0.01,-5.5 0.03,-0.23 0.1,-0.31 0.18,-0.5 0.15,-0.33 0.03,-0.82 0.23,-1.16 0.31,-0.51 0.13,-0.67 0.3,-1.04 0.1,-0.22 0.18,-0.18 0.24,-0.5 0.11,-0.58 0.22,-0.52 0.36,-0.99 0.03,-0.09 0.04,-0.13 0.09,-0.22l0.26 -0.48c0.04,-0.11 0.07,-0.16 0.13,-0.23l0.62 -1.06c0.04,-0.06 0.14,-0.16 0.17,-0.2 0.11,-0.16 0.03,-0.11 0.11,-0.25l0.85 -0.91c0.18,-0.17 0.12,-0.22 0.32,-0.37 0.41,-0.31 0.76,-0.66 1.19,-0.95 0.14,-0.1 0.25,-0.23 0.4,-0.29l0.73 -0.36c0.23,-0.11 0.21,-0.19 0.46,-0.25 0.08,-0.02 0.2,-0.03 0.31,-0.07 0.21,-0.07 0.27,-0.17 0.47,-0.23 0.25,-0.07 0.39,-0.02 0.65,-0.13 0.39,-0.17 0.81,-0.17 1.28,-0.22 1.08,-0.12 0.22,-0.24 2.33,-0.24 0.49,0 0.95,-0 1.37,0.13 0.24,0.08 0.2,0.06 0.49,0.07 0.94,0.05 1.01,0.21 1.76,0.35 0.43,0.08 0.38,0.21 0.68,0.3l0.77 0.27c0.38,0.11 0.32,0.24 0.69,0.34 0.25,0.07 0.14,0.04 0.33,0.16 0.27,0.18 0.72,0.22 0.97,-0.01 0.16,-0.15 0.18,-0.34 0.33,-0.51 0.18,-0.21 0.15,-0.38 0.26,-0.63 0.08,-0.2 0.12,-0.13 0.2,-0.27 0.11,-0.19 0.03,-0.43 0.19,-0.69 0.18,-0.28 0.16,-0.22 0.23,-0.61 0.08,-0.42 0.17,-0.33 0.26,-0.62 0.09,-0.28 0.02,-0.43 0.17,-0.71 0.14,-0.27 0.34,-0.72 0.11,-1.01 -0.1,-0.12 -0.2,-0.12 -0.35,-0.19 -0.2,-0.09 -0.16,-0.14 -0.31,-0.22 -0.14,-0.08 -0.26,-0.07 -0.42,-0.13 -0.18,-0.07 -0.15,-0.11 -0.37,-0.17 -0.2,-0.06 -0.23,-0.01 -0.43,-0.12 -0.57,-0.32 -0.16,-0.15 -0.85,-0.25 -0.44,-0.07 -0.41,-0.2 -0.82,-0.23 -0.67,-0.05 -1.33,-0.24 -1.93,-0.29 -1.2,-0.11 -3.47,-0.11 -4.67,-0 -0.34,0.03 -0.61,0.15 -1.01,0.21 -0.43,0.05 -0.68,0 -1.06,0.16 -0.37,0.15 -0.65,0.15 -1.04,0.23 -0.39,0.08 0,0.09 -0.9,0.31 -0.2,0.05 -0.25,0.1 -0.43,0.17 -0.19,0.07 -0.3,0.06 -0.49,0.12 -0.22,0.07 -0.23,0.14 -0.39,0.21 -0.21,0.08 -0.26,0.03 -0.45,0.15 -0.33,0.21 -0.48,0.2 -0.82,0.43 -0.16,0.11 -0.23,0.09 -0.4,0.2l-0.72 0.47c-0.25,0.11 -0.16,0.01 -0.41,0.19l-1.38 1.04c-0.61,0.35 -1.1,0.88 -1.61,1.34l-0.55 0.62c-0.1,0.13 -0.2,0.2 -0.31,0.33 -0.1,0.12 -0.19,0.18 -0.28,0.3l-0.25 0.28c-0.01,0.01 -0.02,0.02 -0.03,0.03l-1.47 2.07c-0.08,0.23 -0.08,0.18 -0.22,0.36 -0.14,0.19 -0.08,0.23 -0.18,0.39 -0.09,0.16 -0.19,0.12 -0.25,0.33 -0.08,0.24 0.02,0.21 -0.14,0.43 -0.13,0.18 -0.13,0.1 -0.22,0.36 -0.11,0.33 -0.28,0.47 -0.34,0.8 -0.06,0.33 -0.09,0.2 -0.23,0.4 -0.17,0.26 -0.08,0.53 -0.29,0.85 -0.22,0.33 -0.12,0.51 -0.25,0.89 -0.14,0.39 -0.24,0.35 -0.25,0.89 -0,0.42 -0.1,0.62 -0.23,0.95 -0.14,0.35 -0.17,1.92 -0.22,2.58 -0.05,0.58 -0.17,0.66 -0.17,1.57z"/>
   <path class="fil0" d="M145.74 35.57c0,1.01 -0.06,2.08 0.06,3.07 0.03,0.27 0.18,0.51 0.21,0.77 0.06,0.56 -0.01,1.29 0.19,1.75 0.2,0.47 0.18,0.9 0.3,1.15 0.06,0.12 0.14,0.2 0.19,0.33 0.14,0.34 -0.03,0.42 0.21,0.77 0.19,0.29 0.13,0.46 0.27,0.72 0.17,0.32 0.2,0.27 0.29,0.65 0.08,0.31 0.22,0.31 0.32,0.67 0.08,0.29 0.26,0.36 0.34,0.66 0.06,0.23 0.03,0.14 0.18,0.29 0.2,0.2 0.08,0.12 0.17,0.35 0.06,0.16 0.1,0.12 0.22,0.26l0.41 0.59c0.12,0.23 0.68,0.93 0.89,1.12 0.43,0.4 0.8,0.87 1.27,1.24l1.03 0.75c0.27,0.14 0.5,0.36 0.75,0.54 0.13,0.09 0.19,0.09 0.32,0.17 0.23,0.14 0.46,0.21 0.66,0.37 0.26,0.19 0.09,0.06 0.37,0.17 0.2,0.08 0.13,0.11 0.29,0.2 0.19,0.1 0.24,0.04 0.43,0.12 0.09,0.04 0.21,0.13 0.3,0.18 0.19,0.09 0.25,0.05 0.43,0.12 0.36,0.13 0.31,0.19 0.77,0.27 0.34,0.06 0.48,0.23 0.76,0.28 0.32,0.05 0.68,0.03 0.94,0.12 0.28,0.09 0.56,0.18 0.85,0.19 0.39,0.02 0.63,0.03 1,0.06 0.73,0.06 1.09,0.19 1.93,0.19 0.72,0 1.42,-0.08 2.12,-0.17 0.6,-0.08 1.28,-0 1.76,-0.2 0.46,-0.18 1.17,-0.13 1.59,-0.34 0.2,-0.1 0.03,-0.06 0.33,-0.11 0.09,-0.02 0.3,-0.03 0.43,-0.07 0.28,-0.07 0.29,-0.17 0.72,-0.26 0.38,-0.08 0.26,-0.18 0.64,-0.28 0.33,-0.09 0.37,-0.18 0.68,-0.3 0.33,-0.14 0.66,-0.24 0.96,-0.45 0.2,-0.14 0.41,-0.16 0.6,-0.32 0.17,-0.15 0.42,-0.25 0.6,-0.37 0.26,-0.17 0.61,-0.35 0.81,-0.59 0.41,-0.49 0.33,-0.77 0.33,-1.37 0,-0.36 -0.23,-0.44 -0.23,-0.81 0,-0.91 -0.06,-1.95 0.05,-2.84l0.18 -5.2c-0,-0.35 0.06,-0.49 0.06,-0.86 -0,-0.58 -0.04,-1.18 0.02,-1.75 0.08,-0.76 -0.13,-0.85 -0.85,-1 -0.53,-0.11 -3.77,-0.13 -4.65,-0.13 -0.13,0 -0.28,0.03 -0.37,0.04 -1.03,0.07 -0.89,-0.05 -2.39,0.12l-1.45 0.12c-0.02,0 -0.03,0.01 -0.05,0.01 -0.33,0.04 -0.61,-0.03 -1.09,0.33 -0.34,0.25 -0.23,0.69 -0.36,1.04 -0.14,0.38 -0.13,0.71 0.12,1.07 0.14,0.2 0.27,0.16 0.52,0.25 0.24,0.08 0.29,0.19 0.52,0.23 0.3,0.06 0.45,-0.01 0.74,0.09 0.71,0.23 0.54,0.17 1.33,0.25 0.31,0.03 0.52,0.16 0.83,0.24 0.11,0.03 0.25,0.03 0.37,0.07 0.16,0.05 0.36,0.2 0.4,0.35 0.1,0.3 0.02,1.05 0.02,1.4l0.12 2.11c0.12,1.02 0.19,2.29 0.03,3.33 -0.04,0.28 -0.09,0.73 -0.28,0.91 -0.25,0.24 -0.83,0.42 -1.21,0.48 -0.29,0.05 -0.44,0.06 -0.72,0.16 -0.36,0.13 -0.4,0.04 -0.8,0.09 -0.5,0.06 -1.39,0.09 -1.92,0.02 -0.19,-0.02 -0.52,-0.02 -0.74,-0.05 -0.18,-0.03 -0.33,-0.11 -0.54,-0.17 -0.55,-0.15 -0.54,-0 -1.2,-0.29 -0.25,-0.1 -0.38,-0.05 -0.59,-0.18l-0.53 -0.23c-0.24,-0.08 -0.22,-0.17 -0.48,-0.28l-0.45 -0.25c-0.53,-0.31 -1.04,-0.74 -1.49,-1.14l-1.39 -1.48c-0.07,-0.1 -0.05,-0.13 -0.13,-0.24 -0.15,-0.21 -0.21,-0.12 -0.34,-0.41 -0.14,-0.32 -0.45,-0.57 -0.59,-0.83 -0.1,-0.2 -0.04,-0.27 -0.2,-0.48l-0.24 -0.5c-0.09,-0.24 -0.2,-0.24 -0.27,-0.47 -0.07,-0.23 -0.05,-0.36 -0.15,-0.58 -0.35,-0.73 -0.13,-0.55 -0.28,-1.11 -0.16,-0.59 -0.23,-0.22 -0.28,-1.16 -0.04,-0.89 -0.34,-0.76 -0.34,-2.48 0,-1.45 -0.01,-2.95 0.06,-4.4 0.01,-0.21 0.07,-0.33 0.14,-0.53 0.06,-0.19 0.12,-0.4 0.14,-0.58 0.02,-0.22 0,-0.4 0.04,-0.62 0.06,-0.36 -0,-0.28 0.16,-0.57 0.22,-0.4 0.07,-0.79 0.27,-1.13 0.41,-0.72 0.08,-0.59 0.38,-0.97 0.18,-0.22 0.12,-0.18 0.21,-0.47 0.08,-0.23 0.22,-0.35 0.35,-0.7l0.43 -0.67c0.5,-0.67 0.11,-0.23 0.77,-0.97 0.06,-0.06 0.11,-0.15 0.16,-0.21 0.07,-0.09 0.07,-0.08 0.16,-0.16l0.25 -0.29c0.01,-0 0.07,-0.05 0.09,-0.07l1.14 -0.95c0.14,-0.09 0.09,-0.12 0.27,-0.21l0.91 -0.55c0.21,-0.12 0.24,-0.09 0.45,-0.25 0.25,-0.19 0.24,-0.1 0.53,-0.18 0.3,-0.08 0.18,-0.14 0.48,-0.22 0.2,-0.05 0.4,-0.07 0.62,-0.16 0.48,-0.2 0.82,-0.14 1.28,-0.22 1.5,-0.28 1.18,-0.22 2.92,-0.22 0.37,0 0.58,0.04 0.87,0.13 0.5,0.15 1.17,0.09 1.67,0.32 0.22,0.1 0.68,0.13 0.8,0.2 0.19,0.1 0,0.1 0.31,0.17 0.14,0.03 0.27,0.02 0.41,0.09 0.14,0.06 0.11,0.11 0.3,0.19 0.18,0.08 0.2,0.04 0.36,0.13 0.17,0.1 0.08,0.08 0.31,0.18 0.22,0.09 0.38,0.27 0.56,0.4 0.24,0.17 0.25,0.21 0.56,0.21 0.17,0 0.31,-0.27 0.44,-0.41 0.17,-0.18 0.08,-0.01 0.14,-0.28 0.1,-0.43 0.33,-0.44 0.38,-0.87 0.04,-0.41 0.15,-0.32 0.28,-0.56 0.11,-0.22 0.02,-0.41 0.16,-0.67 0.15,-0.26 0.2,-0.2 0.24,-0.59 0.08,-0.78 0.34,-0.53 0.34,-1.72 0,-0.61 -0.77,-0.74 -1.22,-0.98 -0.27,-0.15 -0.57,-0.08 -0.86,-0.24 -0.27,-0.15 -0.57,-0.22 -0.92,-0.24 -0.47,-0.03 -0.48,-0.17 -0.9,-0.2 -0.75,-0.06 -1.74,-0.23 -2.03,-0.25 -1.49,-0.09 -3.23,-0.11 -4.67,0.11 -0.39,0.06 -0.68,0.08 -1.14,0.09 -0.46,0.02 -0.59,0.18 -1.01,0.26 -0.47,0.09 -0.52,0.01 -0.97,0.25 -0.24,0.13 -0.19,0.06 -0.48,0.12 -0.3,0.06 -0.17,0.09 -0.4,0.2 -0.21,0.09 -0.29,0.05 -0.5,0.11 -0.21,0.06 -0.17,0.12 -0.38,0.21 -0.19,0.08 -0.27,0.06 -0.46,0.15 -0.22,0.11 -0.14,0.12 -0.42,0.23 -0.19,0.07 -0.22,0.11 -0.39,0.21 -0.15,0.09 -0.24,0.1 -0.39,0.21l-0.39 0.2c-0.22,0.09 -0.19,0.14 -0.35,0.24l-0.34 0.25c-0.16,0.13 -0.19,0.06 -0.38,0.21 -0.08,0.06 -0.05,0.05 -0.15,0.12 -0.34,0.21 -0.59,0.49 -0.92,0.7l-1.61 1.28c-0.33,0.28 -1.27,1.34 -1.55,1.7 -0.1,0.13 -0.04,0.09 -0.12,0.2 -0.11,0.15 -0.18,0.14 -0.28,0.31 -0.17,0.28 -0.63,0.84 -0.71,1.09 -0.09,0.29 -0.05,0.15 -0.22,0.36 -0.14,0.17 -0.1,0.22 -0.19,0.38 -0.11,0.19 -0.16,0.09 -0.24,0.34 -0.07,0.24 -0,0.22 -0.17,0.4 -0.19,0.21 -0.11,0.08 -0.2,0.38 -0.09,0.31 -0.23,0.32 -0.36,0.79 -0.07,0.27 -0.11,0.2 -0.22,0.41 -0.16,0.29 -0.04,0.54 -0.26,0.88 -0.23,0.34 -0.12,0.5 -0.23,0.91 -0.08,0.31 -0.24,0.5 -0.3,0.85 -0.09,0.52 -0.01,0.41 -0.22,0.97 -0.19,0.51 -0.07,1.46 -0.21,2.03 -0.16,0.65 -0.22,1.34 -0.22,2.07z"/>
   <path class="fil0" d="M306.33 26.68c0,0.91 0.12,0.81 0.17,1.31 0.02,0.22 0.04,0.67 0.09,0.88 0.07,0.31 0.23,0.39 0.29,0.7 0.04,0.22 -0.02,0.25 0.1,0.42 0.1,0.15 0.16,0.08 0.24,0.29 0.05,0.14 0.03,0.21 0.1,0.36 0.13,0.28 0.47,0.72 0.58,0.94 0.09,0.19 0.07,0.14 0.2,0.28 0.13,0.14 0.12,0.17 0.21,0.31 0.61,0.88 2.05,2.08 2.97,2.7l0.63 0.39c0.36,0.21 0.58,0.41 0.97,0.6 0.15,0.08 0.15,0.13 0.32,0.22 0.2,0.11 0.21,0.05 0.4,0.15 0.32,0.17 0.61,0.42 0.96,0.56 0.24,0.09 0.28,0.21 0.49,0.27 0.4,0.1 1.33,0.68 1.78,0.88l0.48 0.28c0.22,0.12 0.18,0.02 0.39,0.16 0.38,0.27 0.71,0.37 1.01,0.56 0.12,0.07 0.16,0.15 0.29,0.24l0.66 0.37c0.37,0.22 1.68,1.28 1.98,1.61 0.62,0.7 0.42,0.65 0.64,0.94 0.11,0.14 0.14,0.14 0.18,0.29 0.17,0.63 0.22,0.46 0.3,0.75 0.11,0.4 0.11,1.81 -0.01,2.21 -0.06,0.18 -0.14,0.24 -0.21,0.37 -0.09,0.18 -0.03,0.29 -0.11,0.46 -0.07,0.15 -0.18,0.19 -0.27,0.36l-0.23 0.35c-0.08,0.1 -0.07,0.11 -0.13,0.18 -0.14,0.17 -0.66,0.61 -0.85,0.7 -0.23,0.11 -0.19,0.09 -0.38,0.21 -0.15,0.1 -0.26,0.13 -0.43,0.22 -0.25,0.14 -0.6,0.23 -0.87,0.38 -0.25,0.13 -0.7,0.12 -1.03,0.24 -0.69,0.25 -3.37,0.22 -4.25,0.1 -0.37,-0.05 -0.48,-0.18 -1.16,-0.28 -0.39,-0.06 -0.38,-0.15 -0.7,-0.23 -0.36,-0.09 -0.38,-0.02 -0.68,-0.2 -0.32,-0.2 -0.42,-0.07 -0.7,-0.23l-1.73 -0.97c-0.47,-0.35 -0.91,-0.12 -1.22,0.25 -0.21,0.25 -0.16,0.31 -0.21,0.67 -0.04,0.28 -0.19,0.4 -0.26,0.62 -0.1,0.33 -0.06,0.77 -0.16,1.12 -0.14,0.47 -0.25,0.33 -0.25,1.09 0,0.94 -0.2,1.29 0.47,1.7 0.13,0.08 0.22,0.08 0.34,0.15 0.18,0.09 0.1,0.12 0.3,0.18 0.3,0.1 0.41,0.02 0.77,0.22 0.3,0.17 0.46,0.1 0.82,0.17 0.73,0.14 0.21,0.25 1.7,0.3 0.43,0.01 0.51,0.08 0.84,0.15 0.86,0.2 3.42,0.1 4.4,0.1 0.52,0 0.87,-0.05 1.28,-0.17 0.45,-0.14 0.88,-0.06 1.29,-0.16 0.23,-0.05 0.28,-0.13 0.52,-0.19 0.23,-0.06 0.38,-0.05 0.63,-0.09 0.33,-0.05 0.22,-0.12 0.48,-0.22 0.24,-0.09 0.41,-0.03 0.6,-0.12 0.18,-0.08 0.18,-0.18 0.47,-0.24 0.42,-0.08 0.22,0.01 0.51,-0.2 0.09,-0.06 0.29,-0.1 0.69,-0.34l0.91 -0.5c0.19,-0.16 0.47,-0.26 0.68,-0.4 0.39,-0.25 1.26,-1.01 1.46,-1.37 0.06,-0.11 0.03,-0.1 0.12,-0.2l0.32 -0.32c0.18,-0.16 0.43,-0.36 0.54,-0.58 0.06,-0.11 0.03,-0.12 0.09,-0.22 0.12,-0.22 0.06,-0.06 0.19,-0.19l0.75 -1.3c0.08,-0.26 -0,-0.3 0.16,-0.51 0.16,-0.21 0.17,-0.16 0.22,-0.46 0.18,-1.26 0.39,0.01 0.39,-3.08 0,-0.45 -0.01,-1.02 -0.08,-1.45 -0.06,-0.37 -0.1,-0.33 -0.2,-0.58 -0.06,-0.14 -0.09,-0.49 -0.11,-0.66 -0.04,-0.39 -0.04,-0.3 -0.22,-0.56 -0.17,-0.25 -0.09,-0.44 -0.34,-0.81 -0.09,-0.13 -0.08,-0.15 -0.12,-0.29 -0.1,-0.31 -0.17,-0.28 -0.32,-0.52l-1.02 -1.36 -1.02 -0.96c-0.13,-0.08 -0.14,-0.05 -0.26,-0.17l-0.45 -0.36c-0.31,-0.35 -0.42,0.02 -0.43,-0.42 -0.27,-0.02 -0.41,-0.24 -0.63,-0.34 -0.41,-0.2 -0.78,-0.53 -1.17,-0.77l-0.65 -0.33c-0.13,-0.08 -0.22,-0.08 -0.34,-0.15 -0.14,-0.07 -0.13,-0.1 -0.29,-0.19 -0.13,-0.07 -0.19,-0.1 -0.31,-0.18 -0.2,-0.14 -0.47,-0.17 -0.65,-0.32 -0.23,-0.19 -0.05,-0.06 -0.33,-0.16 -0.2,-0.07 -0.16,-0.09 -0.31,-0.18 -0.12,-0.07 -0.23,-0.11 -0.34,-0.2 -0.14,-0.1 -0.1,-0.12 -0.3,-0.19 -0.46,-0.15 -0.34,-0.2 -0.66,-0.32 -0.34,-0.13 -0.6,-0.38 -0.92,-0.54 -0.19,-0.1 -0.19,-0.03 -0.35,-0.14l-0.71 -0.47c-0.15,-0.09 -0.05,-0.02 -0.19,-0.09 -0.28,-0.13 -1.45,-1.08 -1.69,-1.26l-0.49 -0.47c-0.31,-0.45 -0.54,-0.65 -0.73,-1.16 -0.12,-0.32 -0.2,-0.25 -0.27,-0.67 -0.07,-0.47 -0.16,-2.07 0.05,-2.49 0.05,-0.1 0.14,-0.16 0.2,-0.28 0.09,-0.2 -0.01,-0.19 0.14,-0.38l0.65 -0.78c0.14,-0.15 0.99,-0.69 1.2,-0.75 0.61,-0.18 0.51,-0.22 0.75,-0.29 0.13,-0.04 0.26,-0.04 0.43,-0.07 0.35,-0.07 0.38,-0.17 0.77,-0.22 1.23,-0.15 2.83,-0.16 4.06,0 0.36,0.05 0.28,0.2 0.74,0.25 0.3,0.04 0.54,0.08 0.81,0.19 0.26,0.11 0.49,0.14 0.7,0.28 0.24,0.16 0.64,0.25 0.9,0.41l0.4 0.25c0.24,0.17 0.14,0.02 0.37,0.13 0.12,0.05 0.42,0.57 0.95,-0.19 0.08,-0.12 0.08,-0.16 0.19,-0.29 0.24,-0.26 0.14,-0.39 0.27,-0.67 0.05,-0.1 0.14,-0.18 0.2,-0.28 0.13,-0.22 0.07,-0.48 0.21,-0.72 0.2,-0.32 0.17,-0.3 0.24,-0.69 0.07,-0.4 0.15,-0.4 0.25,-0.69 0.09,-0.28 0.13,-0.9 0.07,-1.23 -0.06,-0.3 -0.19,-0.35 -0.4,-0.55 -0.27,-0.27 -0.66,-0.33 -1.02,-0.45 -0.36,-0.12 -0.15,-0.19 -0.73,-0.26 -0.07,-0.01 -0.35,-0.04 -0.44,-0.07 -0.56,-0.16 0.16,-0.12 -1.27,-0.23 -0.94,-0.07 -1.73,-0.3 -2.71,-0.3 -1.08,0 -2.31,-0.05 -3.33,0.15 -0.62,0.12 -1.39,0.11 -1.89,0.33 -0.23,0.1 -0.36,0.09 -0.64,0.14 -0.37,0.06 -0.24,0.1 -0.49,0.21 -0.24,0.11 -0.4,0.04 -0.62,0.15 -0.29,0.14 -0.1,0.13 -0.5,0.2 -0.32,0.06 -0.27,0.08 -0.49,0.22 -0.2,0.13 -0.29,0.09 -0.48,0.23 -0.12,0.09 -0.06,0.09 -0.23,0.15 -0.15,0.05 -0.16,0.02 -0.31,0.08 -0.31,0.12 -0.58,0.46 -0.88,0.57 -0.27,0.1 -0.43,0.26 -0.64,0.44l-1.12 0.97c-0.13,0.13 -0.07,0.06 -0.21,0.17l-0.73 0.71 -1.09 1.76c-0.08,0.26 -0.04,0.28 -0.19,0.48 -0.22,0.28 -0.11,0.51 -0.37,1.03 -0.12,0.24 -0.17,0.86 -0.18,1.2 -0.01,0.44 -0.17,0.74 -0.17,1.21z"/>
   <path class="fil0" d="M177.9 17.74c0,0.32 0.18,0.48 0.28,0.71 0.06,0.14 0.07,0.27 0.12,0.4 0.13,0.34 0.12,-0.05 0.31,0.69 0.08,0.3 0.19,0.17 0.34,0.71 0.06,0.21 0.08,0.2 0.18,0.35 0.18,0.27 0.14,0.45 0.14,0.84 -0,0.38 0.06,0.56 0.06,0.96 -0,0.68 0.04,1.26 0.05,1.97 0,0.31 0.06,0.53 0.06,0.91l-0 6.01c0,0.08 0,0.16 0.01,0.24 0.05,0.91 0.1,1.88 0.01,2.79 -0.08,0.84 -0.03,4.69 -0.02,5.5 0,0.29 0.06,0.35 0.06,0.65 0,0.72 -0.06,1.51 0,2.22 0.07,0.75 0.11,4.02 0.05,5 -0.01,0.23 -0.06,0.24 -0.06,0.5l-0.32 1.99c-0.07,0.22 -0.13,0.2 -0.2,0.38 -0.07,0.16 -0.03,0.33 -0.11,0.51 -0.07,0.18 -0.15,0.18 -0.21,0.37 -0.05,0.16 -0.05,0.31 -0.09,0.47 -0.11,0.38 -0.36,0.41 0.02,0.78 0.23,0.22 0.66,0.15 1.13,0.15l1.24 0.05c0.74,0.02 1.84,-0.07 2.53,0.01 0.73,0.09 1.78,-0.04 2.54,0.05 0.54,0.07 4.46,0.14 4.98,0.14 2.41,0 3.68,0.05 6.01,-0.23 0.36,-0.04 0.51,-0.02 0.78,-0.21 0.36,-0.26 0.3,-0 0.82,-0.58 0.1,-0.12 0.11,-0.14 0.16,-0.31 0.13,-0.44 0.22,-0.44 0.28,-0.61 0.15,-0.46 0.1,-2.9 -0.13,-3.22 -0.05,-0.06 -0.03,-0.03 -0.1,-0.12 -0.03,-0.04 -0.06,-0.1 -0.08,-0.13 -0.05,-0.07 -0.18,-0.2 -0.28,-0.2 -0.84,0 -1.06,0.3 -1.81,0.3 -0.72,0.01 -1.13,0.31 -1.86,0.3 -0.65,-0 -1.33,0.12 -1.91,0.21 -1.52,0.24 -5.1,0.04 -6.84,0.04 -0.23,-0.3 -0.15,-0.33 -0.21,-0.72 -0.11,-0.79 -0.12,-2.12 -0.07,-2.91 0.01,-0.22 0.06,-0.24 0.06,-0.5l-0.05 -1.63c-0.01,-0.18 0.05,-0.29 0.05,-0.55l0 -3.18c-0.02,-0.69 -0.23,-1.64 -0.06,-2.32 0.41,-0.08 3.81,-0.1 4.34,-0.04l4.32 0.02c0.25,-0.06 0.3,-0.23 0.47,-0.39 0.18,-0.18 0.48,-0.87 0.53,-1.14 0.04,-0.24 0.16,-0.35 0.25,-0.58 0.11,-0.27 0.1,-0.82 0.3,-1.35 0.06,-0.15 0.03,-0.41 -0.12,-0.58 -0.1,-0.12 -0.13,-0.11 -0.27,-0.16 -0.01,-0 -0.03,-0.01 -0.04,-0.01l-0.12 -0.05c-1.05,-0.41 -9.4,0.13 -9.77,-0.2l0 -4.95c0,-1.54 -0.11,-3.59 0.05,-5.01 0.07,-0.63 -0.02,-0.44 2.21,-0.44 0.47,0 0.94,0 1.41,0 1.29,-0 2.7,0.14 3.94,0.26 0.63,0.06 1.28,0.05 1.9,0.17 0.54,0.11 0.54,0.12 1.11,0.12 0.52,0 0.84,-0.84 0.95,-1.01 0.12,-0.18 0.09,-0.01 0.19,-0.29 0.17,-0.47 0.34,-0.51 0.38,-1.07 0.03,-0.41 0.17,-0.41 0.27,-0.67 0.08,-0.21 0.07,-0.64 0.11,-0.86l0.08 -0.84c-0.03,-0.76 -0.63,-0.56 -1.87,-0.56 -1.65,0 -3.13,0.1 -4.74,0.1 -0.46,-0 -0.74,0.05 -1.13,0.05l-6.1 -0c-1.56,0 -3.17,0.11 -4.74,0.1 -0.4,-0 -0.68,0.04 -1.13,0.05 -0.45,0.01 -0.62,0.15 -0.62,0.56z"/>
   <path class="fil0" d="M97.67 18.45c0,0.59 0.19,0.35 0.29,1 0.06,0.39 0.04,0.78 0.18,1.15 0.2,0.53 0.21,1.73 0.2,2.44 -0,0.43 0.06,0.74 0.06,1.21l0.17 3.79c0,1.2 0.04,2.06 -0.1,3.24l-0.06 4.34c0,1.96 -0.06,3.81 -0.06,5.81 0,1.95 0,3.91 0,5.86 0,1.01 -0.06,1.92 -0.06,2.88 0,0.98 -0.34,1.59 -0.34,2.68 0,0.39 0.8,0.2 1.11,0.13 0.84,-0.2 1.5,-0.05 2.1,-0.24 0.89,-0.28 1.04,-0.09 2.09,-0.25 0.43,-0.07 0.76,-0.19 1.26,-0.24 0.28,-0.02 0.5,-0.01 0.67,-0.11 0.15,-0.09 0.23,-0.27 0.23,-0.5 -0.01,-1.15 -0.41,-1.4 -0.4,-2.48 0,-0.43 -0.07,-0.85 -0.14,-1.24l-0.14 -2.7c0.14,-1.51 0.05,-5.34 0.05,-7.02 0,-1.87 0,-3.74 0,-5.61l0.27 -12.29c0.11,-0.7 -0.16,-0.42 0.18,-1.25 0.13,-0.31 0.12,-0.88 0.12,-1.31 0,-1.19 0.41,-1.11 -1.13,-1.11 -0.29,0 -0.27,0.15 -0.84,0.21 -0.28,0.03 -0.69,0.05 -0.93,0.13 -0.36,0.13 -0.4,0.16 -0.84,0.21 -0.69,0.08 -0.42,0.11 -0.83,0.22 -0.42,0.12 -0.89,0.02 -1.33,0.23 -0.57,0.28 -0.87,0.08 -1.3,0.31 -0.16,0.09 -0.49,0.32 -0.49,0.52z"/>
   <path class="fil0" d="M227.93 31.23c0.08,-0.22 0,-0.12 0.14,-0.3 0.12,-0.17 0.12,-0.1 0.18,-0.35 0.07,-0.3 0.15,-0.44 0.26,-0.73 0.21,-0.58 -0.07,-0.32 0.3,-1.15 0.11,-0.24 -0.03,-0.24 0.23,-0.3l0 2.31c0.05,-0.06 0.03,-0.03 0.07,-0.13 0.1,-0.27 0.11,-1.74 0.12,-2.08 0.01,-0.39 0.07,-0.44 -0.15,-0.69l-0.27 0.05 -0.47 1.62c-0.12,0.34 -0.4,1.4 -0.4,1.74z"/>
  </g>
  <g id="_2074712774736">
   <path class="fil1" d="M7.72 68.99l-1.83 0 0 10.26c0,0.59 -0.08,1.03 -0.23,1.32 -0.15,0.29 -0.35,0.43 -0.6,0.43 -0.25,0 -0.45,-0.14 -0.61,-0.43 -0.16,-0.29 -0.24,-0.72 -0.24,-1.31l0 -10.26 -1.83 0c-0.29,0 -0.5,-0.11 -0.64,-0.32 -0.14,-0.22 -0.21,-0.5 -0.21,-0.86 0,-0.37 0.07,-0.66 0.22,-0.87 0.14,-0.21 0.35,-0.32 0.63,-0.32l5.34 0c0.29,0 0.51,0.11 0.65,0.33 0.14,0.22 0.21,0.51 0.21,0.86 0,0.36 -0.07,0.64 -0.22,0.86 -0.14,0.21 -0.36,0.32 -0.64,0.32zm5.32 7.31l-3.02 0c0,0.6 0.08,1.13 0.21,1.58 0.14,0.46 0.32,0.8 0.55,1.03 0.23,0.23 0.48,0.35 0.75,0.35 0.19,0 0.35,-0.04 0.51,-0.11 0.15,-0.07 0.3,-0.19 0.44,-0.35 0.14,-0.16 0.28,-0.33 0.4,-0.51 0.12,-0.18 0.28,-0.42 0.47,-0.73 0.08,-0.12 0.19,-0.17 0.34,-0.17 0.16,0 0.29,0.08 0.39,0.22 0.1,0.14 0.15,0.36 0.15,0.63 0,0.24 -0.06,0.51 -0.16,0.83 -0.11,0.32 -0.27,0.62 -0.5,0.91 -0.22,0.29 -0.5,0.54 -0.83,0.73 -0.33,0.19 -0.72,0.29 -1.15,0.29 -0.99,0 -1.76,-0.48 -2.31,-1.45 -0.55,-0.96 -0.82,-2.27 -0.82,-3.92 0,-0.78 0.07,-1.5 0.2,-2.17 0.13,-0.66 0.33,-1.23 0.59,-1.71 0.26,-0.47 0.58,-0.84 0.96,-1.09 0.38,-0.25 0.8,-0.38 1.26,-0.38 0.6,0 1.12,0.22 1.55,0.65 0.43,0.43 0.75,0.99 0.97,1.69 0.21,0.69 0.32,1.39 0.32,2.1 0,0.66 -0.11,1.09 -0.33,1.29 -0.22,0.19 -0.53,0.29 -0.94,0.29zm-3.02 -1.5l2.8 0c-0.04,-0.9 -0.18,-1.57 -0.43,-2.02 -0.25,-0.44 -0.57,-0.67 -0.97,-0.67 -0.39,0 -0.7,0.23 -0.95,0.68 -0.25,0.45 -0.4,1.12 -0.45,2.01zm11.12 2.95c0,0.33 -0.06,0.68 -0.17,1.05 -0.11,0.37 -0.29,0.73 -0.52,1.06 -0.24,0.34 -0.53,0.61 -0.89,0.81 -0.36,0.21 -0.76,0.31 -1.21,0.31 -0.95,0 -1.7,-0.47 -2.23,-1.42 -0.54,-0.95 -0.8,-2.22 -0.8,-3.82 0,-1.08 0.12,-2.03 0.37,-2.86 0.25,-0.83 0.6,-1.47 1.06,-1.92 0.46,-0.45 1.02,-0.68 1.66,-0.68 0.4,0 0.77,0.1 1.1,0.3 0.33,0.2 0.62,0.46 0.85,0.77 0.23,0.32 0.41,0.65 0.53,1.01 0.12,0.36 0.19,0.69 0.19,1 0,0.32 -0.07,0.58 -0.21,0.8 -0.14,0.22 -0.3,0.33 -0.5,0.33 -0.13,0 -0.23,-0.06 -0.32,-0.17 -0.08,-0.11 -0.18,-0.29 -0.29,-0.54 -0.19,-0.49 -0.39,-0.86 -0.59,-1.1 -0.21,-0.24 -0.47,-0.37 -0.78,-0.37 -0.46,0 -0.82,0.3 -1.1,0.91 -0.28,0.61 -0.42,1.44 -0.42,2.49 0,0.49 0.04,0.95 0.11,1.36 0.07,0.41 0.17,0.77 0.31,1.06 0.13,0.29 0.3,0.51 0.49,0.67 0.19,0.15 0.4,0.23 0.63,0.23 0.31,0 0.57,-0.12 0.79,-0.37 0.22,-0.24 0.42,-0.62 0.59,-1.12 0.09,-0.3 0.19,-0.53 0.3,-0.69 0.11,-0.17 0.24,-0.25 0.4,-0.25 0.19,0 0.35,0.13 0.47,0.37 0.12,0.24 0.19,0.5 0.19,0.78zm2.74 -5.99l0 0.32c0.27,-0.61 0.57,-1.06 0.89,-1.35 0.32,-0.29 0.69,-0.43 1.11,-0.43 0.41,0 0.77,0.15 1.09,0.45 0.32,0.3 0.56,0.73 0.72,1.28 0.1,0.32 0.17,0.67 0.2,1.04 0.03,0.37 0.04,0.85 0.04,1.43l0 4.9c0,0.53 -0.07,0.93 -0.21,1.19 -0.14,0.27 -0.33,0.41 -0.55,0.41 -0.23,0 -0.42,-0.14 -0.56,-0.41 -0.14,-0.28 -0.21,-0.67 -0.21,-1.19l0 -4.39c0,-0.87 -0.07,-1.53 -0.21,-1.99 -0.14,-0.46 -0.42,-0.69 -0.84,-0.69 -0.27,0 -0.52,0.14 -0.75,0.42 -0.23,0.28 -0.39,0.66 -0.5,1.16 -0.08,0.39 -0.11,1.12 -0.11,2.2l0 3.3c0,0.53 -0.07,0.93 -0.22,1.2 -0.14,0.27 -0.33,0.4 -0.56,0.4 -0.22,0 -0.4,-0.14 -0.55,-0.41 -0.14,-0.28 -0.21,-0.67 -0.21,-1.19l0 -7.61c0,-0.5 0.06,-0.88 0.19,-1.12 0.13,-0.25 0.3,-0.37 0.52,-0.37 0.13,0 0.26,0.06 0.37,0.16 0.11,0.11 0.2,0.27 0.26,0.49 0.07,0.22 0.1,0.49 0.1,0.8zm11.36 3.9c0,0.79 -0.07,1.51 -0.21,2.17 -0.14,0.66 -0.35,1.23 -0.62,1.71 -0.27,0.48 -0.6,0.84 -0.97,1.09 -0.38,0.25 -0.8,0.38 -1.27,0.38 -0.47,0 -0.89,-0.13 -1.26,-0.39 -0.37,-0.26 -0.7,-0.63 -0.97,-1.11 -0.27,-0.48 -0.48,-1.04 -0.62,-1.7 -0.14,-0.66 -0.21,-1.38 -0.21,-2.17 0,-0.8 0.07,-1.53 0.21,-2.19 0.14,-0.66 0.35,-1.23 0.62,-1.7 0.27,-0.47 0.59,-0.83 0.97,-1.08 0.38,-0.25 0.8,-0.38 1.26,-0.38 0.47,0 0.89,0.13 1.27,0.39 0.38,0.26 0.71,0.63 0.98,1.1 0.27,0.47 0.48,1.04 0.62,1.7 0.14,0.66 0.21,1.38 0.21,2.17zm-1.55 0c0,-1.07 -0.14,-1.91 -0.41,-2.51 -0.28,-0.6 -0.65,-0.9 -1.11,-0.9 -0.3,0 -0.57,0.13 -0.8,0.4 -0.23,0.27 -0.41,0.66 -0.53,1.18 -0.13,0.52 -0.19,1.13 -0.19,1.82 0,0.69 0.06,1.29 0.18,1.8 0.12,0.51 0.3,0.91 0.52,1.18 0.23,0.27 0.5,0.41 0.81,0.41 0.47,0 0.84,-0.3 1.11,-0.9 0.28,-0.6 0.41,-1.43 0.41,-2.49zm2.76 3.75l0 -11.42c0,-0.53 0.07,-0.93 0.21,-1.2 0.14,-0.27 0.32,-0.4 0.56,-0.4 0.23,0 0.42,0.13 0.56,0.4 0.14,0.27 0.21,0.67 0.21,1.2l0 11.42c0,0.53 -0.07,0.93 -0.22,1.2 -0.14,0.27 -0.33,0.4 -0.56,0.4 -0.23,0 -0.41,-0.14 -0.55,-0.41 -0.14,-0.28 -0.21,-0.67 -0.21,-1.19zm8.91 -3.75c0,0.79 -0.07,1.51 -0.21,2.17 -0.14,0.66 -0.35,1.23 -0.62,1.71 -0.27,0.48 -0.6,0.84 -0.97,1.09 -0.38,0.25 -0.8,0.38 -1.27,0.38 -0.47,0 -0.89,-0.13 -1.26,-0.39 -0.37,-0.26 -0.7,-0.63 -0.97,-1.11 -0.27,-0.48 -0.48,-1.04 -0.62,-1.7 -0.14,-0.66 -0.21,-1.38 -0.21,-2.17 0,-0.8 0.07,-1.53 0.21,-2.19 0.14,-0.66 0.35,-1.23 0.62,-1.7 0.27,-0.47 0.59,-0.83 0.97,-1.08 0.38,-0.25 0.8,-0.38 1.26,-0.38 0.47,0 0.89,0.13 1.27,0.39 0.38,0.26 0.71,0.63 0.98,1.1 0.27,0.47 0.48,1.04 0.62,1.7 0.14,0.66 0.21,1.38 0.21,2.17zm-1.55 0c0,-1.07 -0.14,-1.91 -0.41,-2.51 -0.28,-0.6 -0.65,-0.9 -1.11,-0.9 -0.3,0 -0.57,0.13 -0.8,0.4 -0.23,0.27 -0.41,0.66 -0.53,1.18 -0.13,0.52 -0.19,1.13 -0.19,1.82 0,0.69 0.06,1.29 0.18,1.8 0.12,0.51 0.3,0.91 0.52,1.18 0.23,0.27 0.5,0.41 0.81,0.41 0.47,0 0.84,-0.3 1.11,-0.9 0.28,-0.6 0.41,-1.43 0.41,-2.49zm8.43 -3.42l0 7.65c0,0.88 -0.05,1.63 -0.16,2.26 -0.11,0.63 -0.28,1.15 -0.52,1.56 -0.24,0.41 -0.56,0.72 -0.95,0.92 -0.39,0.2 -0.88,0.3 -1.45,0.3 -0.53,0 -1.01,-0.13 -1.43,-0.38 -0.42,-0.25 -0.74,-0.58 -0.97,-0.98 -0.23,-0.4 -0.34,-0.81 -0.34,-1.24 0,-0.32 0.06,-0.58 0.19,-0.79 0.13,-0.2 0.28,-0.3 0.46,-0.3 0.23,0 0.42,0.17 0.59,0.51 0.08,0.17 0.17,0.35 0.26,0.52 0.09,0.17 0.19,0.33 0.29,0.45 0.11,0.13 0.24,0.22 0.39,0.28 0.15,0.06 0.32,0.09 0.52,0.09 0.4,0 0.71,-0.1 0.93,-0.28 0.22,-0.19 0.38,-0.45 0.46,-0.8 0.09,-0.34 0.14,-0.7 0.16,-1.09 0.02,-0.39 0.03,-1.01 0.03,-1.87 -0.24,0.57 -0.51,1 -0.82,1.29 -0.31,0.3 -0.68,0.44 -1.11,0.44 -0.52,0 -0.97,-0.22 -1.35,-0.67 -0.39,-0.45 -0.68,-1.08 -0.89,-1.89 -0.21,-0.81 -0.31,-1.74 -0.31,-2.8 0,-0.79 0.06,-1.51 0.19,-2.14 0.13,-0.64 0.31,-1.18 0.54,-1.61 0.23,-0.44 0.5,-0.77 0.81,-0.99 0.3,-0.22 0.64,-0.33 1,-0.33 0.44,0 0.82,0.14 1.14,0.43 0.32,0.29 0.62,0.74 0.89,1.35l0 -0.36c0,-0.46 0.07,-0.81 0.2,-1.06 0.13,-0.25 0.3,-0.38 0.51,-0.38 0.3,0 0.5,0.17 0.59,0.5 0.1,0.33 0.15,0.81 0.15,1.44zm-4.47 3.34c0,1.07 0.14,1.87 0.41,2.42 0.27,0.55 0.62,0.82 1.06,0.82 0.25,0 0.5,-0.12 0.73,-0.35 0.23,-0.23 0.41,-0.59 0.56,-1.06 0.14,-0.47 0.21,-1.05 0.21,-1.72 0,-1.07 -0.14,-1.91 -0.41,-2.51 -0.28,-0.6 -0.64,-0.9 -1.09,-0.9 -0.44,0 -0.79,0.29 -1.06,0.86 -0.26,0.57 -0.4,1.39 -0.4,2.44zm7.57 -3.78l0 7.61c0,0.53 -0.07,0.93 -0.22,1.19 -0.15,0.27 -0.33,0.41 -0.56,0.41 -0.23,0 -0.41,-0.14 -0.55,-0.41 -0.14,-0.28 -0.21,-0.67 -0.21,-1.19l0 -7.53c0,-0.52 0.07,-0.92 0.21,-1.18 0.14,-0.26 0.32,-0.4 0.55,-0.4 0.23,0 0.41,0.13 0.56,0.4 0.15,0.26 0.22,0.63 0.22,1.1zm-0.27 -5.27l0.76 0c0.19,0 0.29,0.05 0.29,0.14 0,0.05 -0.11,0.26 -0.32,0.63 -0.21,0.37 -0.42,0.71 -0.64,1.05 -0.21,0.33 -0.36,0.54 -0.45,0.61 -0.21,0.19 -0.45,0.28 -0.69,0.28 -0.16,0 -0.24,-0.08 -0.24,-0.24 0,-0.11 0.05,-0.3 0.15,-0.57l0.25 -0.81c0.15,-0.47 0.28,-0.77 0.39,-0.9 0.11,-0.13 0.28,-0.19 0.5,-0.19zm5.76 13c-0.37,0.49 -0.73,0.86 -1.08,1.11 -0.35,0.25 -0.74,0.37 -1.17,0.37 -0.4,0 -0.74,-0.14 -1.04,-0.4 -0.3,-0.27 -0.53,-0.63 -0.69,-1.08 -0.16,-0.46 -0.24,-0.95 -0.24,-1.48 0,-0.72 0.13,-1.33 0.4,-1.84 0.27,-0.51 0.64,-0.85 1.1,-1.02 0.1,-0.04 0.34,-0.13 0.73,-0.26 0.39,-0.13 0.72,-0.26 1,-0.37 0.28,-0.11 0.58,-0.25 0.9,-0.41 -0.02,-0.69 -0.1,-1.2 -0.25,-1.53 -0.15,-0.33 -0.45,-0.49 -0.9,-0.49 -0.39,0 -0.69,0.09 -0.88,0.28 -0.2,0.18 -0.37,0.46 -0.51,0.84 -0.14,0.37 -0.24,0.62 -0.3,0.74 -0.06,0.12 -0.19,0.18 -0.38,0.18 -0.17,0 -0.32,-0.1 -0.45,-0.29 -0.13,-0.19 -0.19,-0.43 -0.19,-0.73 0,-0.46 0.1,-0.92 0.29,-1.35 0.19,-0.44 0.49,-0.8 0.9,-1.08 0.41,-0.28 0.91,-0.42 1.52,-0.42 0.68,0 1.21,0.14 1.6,0.41 0.39,0.27 0.66,0.7 0.82,1.3 0.16,0.59 0.24,1.38 0.24,2.35 0,0.62 -0,1.14 -0,1.57 -0,0.43 -0,0.91 -0.01,1.44 0,0.49 0.05,1.01 0.14,1.55 0.1,0.53 0.14,0.88 0.14,1.03 0,0.27 -0.07,0.52 -0.22,0.74 -0.15,0.22 -0.32,0.33 -0.51,0.33 -0.16,0 -0.31,-0.13 -0.47,-0.38 -0.15,-0.25 -0.32,-0.62 -0.49,-1.1zm-0.1 -3.82c-0.23,0.14 -0.55,0.29 -0.99,0.45 -0.43,0.16 -0.73,0.28 -0.89,0.35 -0.17,0.08 -0.32,0.22 -0.47,0.43 -0.15,0.22 -0.23,0.52 -0.23,0.91 0,0.4 0.09,0.74 0.27,1.02 0.18,0.28 0.41,0.42 0.69,0.42 0.3,0 0.59,-0.12 0.84,-0.34 0.26,-0.23 0.45,-0.52 0.57,-0.89 0.14,-0.4 0.21,-1.06 0.21,-1.97l0 -0.38zm10.19 7.45l0 -3.71c-0.3,0.51 -0.61,0.89 -0.93,1.16 -0.32,0.27 -0.68,0.4 -1.07,0.4 -0.48,0 -0.91,-0.21 -1.31,-0.65 -0.39,-0.43 -0.7,-1.05 -0.93,-1.86 -0.22,-0.81 -0.34,-1.76 -0.34,-2.85 0,-1.12 0.11,-2.08 0.34,-2.88 0.23,-0.8 0.54,-1.41 0.94,-1.83 0.4,-0.42 0.85,-0.63 1.33,-0.63 0.41,0 0.79,0.15 1.11,0.44 0.33,0.29 0.61,0.74 0.84,1.34l0 -0.32c0,-0.48 0.07,-0.85 0.2,-1.1 0.14,-0.25 0.31,-0.38 0.53,-0.38 0.21,0 0.39,0.13 0.53,0.37 0.13,0.25 0.2,0.62 0.2,1.1l0 11.39c0,1.17 -0.24,1.75 -0.73,1.75 -0.3,0 -0.5,-0.16 -0.59,-0.47 -0.09,-0.31 -0.14,-0.74 -0.14,-1.28zm-3.02 -7.52c0,0.71 0.07,1.32 0.2,1.83 0.13,0.51 0.31,0.89 0.53,1.14 0.22,0.25 0.45,0.37 0.7,0.37 0.28,0 0.53,-0.13 0.76,-0.37 0.23,-0.25 0.41,-0.62 0.55,-1.13 0.14,-0.51 0.21,-1.13 0.21,-1.88 0,-0.53 -0.04,-1 -0.12,-1.43 -0.08,-0.42 -0.19,-0.78 -0.33,-1.06 -0.14,-0.28 -0.3,-0.49 -0.48,-0.63 -0.18,-0.14 -0.37,-0.21 -0.58,-0.21 -0.41,0 -0.76,0.29 -1.03,0.88 -0.28,0.59 -0.41,1.42 -0.41,2.49zm10.03 3.88l0 -0.34c-0.19,0.4 -0.38,0.73 -0.58,1 -0.2,0.27 -0.42,0.47 -0.67,0.6 -0.24,0.13 -0.51,0.2 -0.82,0.2 -0.37,0 -0.71,-0.13 -1,-0.39 -0.29,-0.26 -0.52,-0.63 -0.69,-1.09 -0.19,-0.56 -0.29,-1.36 -0.29,-2.41l0 -5.21c0,-0.53 0.07,-0.92 0.21,-1.18 0.14,-0.26 0.32,-0.39 0.55,-0.39 0.23,0 0.42,0.13 0.56,0.4 0.14,0.26 0.21,0.65 0.21,1.18l0 4.21c0,0.61 0.03,1.12 0.09,1.54 0.06,0.41 0.17,0.74 0.32,0.97 0.16,0.23 0.37,0.35 0.64,0.35 0.26,0 0.51,-0.13 0.73,-0.4 0.23,-0.26 0.4,-0.61 0.5,-1.03 0.09,-0.37 0.13,-1.19 0.13,-2.45l0 -3.2c0,-0.52 0.07,-0.92 0.21,-1.18 0.14,-0.26 0.33,-0.4 0.56,-0.4 0.23,0 0.41,0.13 0.55,0.39 0.14,0.26 0.21,0.65 0.21,1.18l0 7.63c0,0.5 -0.07,0.88 -0.2,1.13 -0.13,0.25 -0.31,0.38 -0.52,0.38 -0.21,0 -0.39,-0.13 -0.52,-0.39 -0.14,-0.26 -0.21,-0.63 -0.21,-1.09zm7.29 -3.22l-3.02 0c0,0.6 0.08,1.13 0.21,1.58 0.14,0.46 0.32,0.8 0.55,1.03 0.23,0.23 0.48,0.35 0.75,0.35 0.19,0 0.35,-0.04 0.51,-0.11 0.15,-0.07 0.3,-0.19 0.44,-0.35 0.14,-0.16 0.28,-0.33 0.4,-0.51 0.12,-0.18 0.28,-0.42 0.47,-0.73 0.08,-0.12 0.19,-0.17 0.34,-0.17 0.16,0 0.29,0.08 0.39,0.22 0.1,0.14 0.15,0.36 0.15,0.63 0,0.24 -0.06,0.51 -0.16,0.83 -0.11,0.32 -0.27,0.62 -0.5,0.91 -0.22,0.29 -0.5,0.54 -0.83,0.73 -0.33,0.19 -0.72,0.29 -1.15,0.29 -0.99,0 -1.76,-0.48 -2.31,-1.45 -0.55,-0.96 -0.82,-2.27 -0.82,-3.92 0,-0.78 0.07,-1.5 0.2,-2.17 0.13,-0.66 0.33,-1.23 0.59,-1.71 0.26,-0.47 0.58,-0.84 0.96,-1.09 0.38,-0.25 0.8,-0.38 1.26,-0.38 0.6,0 1.12,0.22 1.55,0.65 0.43,0.43 0.75,0.99 0.97,1.69 0.21,0.69 0.32,1.39 0.32,2.1 0,0.66 -0.11,1.09 -0.33,1.29 -0.22,0.19 -0.53,0.29 -0.94,0.29zm-3.02 -1.5l2.8 0c-0.04,-0.9 -0.18,-1.57 -0.43,-2.02 -0.25,-0.44 -0.57,-0.67 -0.97,-0.67 -0.39,0 -0.7,0.23 -0.95,0.68 -0.25,0.45 -0.4,1.12 -0.45,2.01zm14.01 2.95c0,0.33 -0.06,0.68 -0.17,1.05 -0.11,0.37 -0.29,0.73 -0.52,1.06 -0.24,0.34 -0.53,0.61 -0.89,0.81 -0.36,0.21 -0.76,0.31 -1.21,0.31 -0.95,0 -1.7,-0.47 -2.23,-1.42 -0.54,-0.95 -0.8,-2.22 -0.8,-3.82 0,-1.08 0.12,-2.03 0.37,-2.86 0.24,-0.83 0.6,-1.47 1.06,-1.92 0.46,-0.45 1.02,-0.68 1.66,-0.68 0.4,0 0.77,0.1 1.1,0.3 0.33,0.2 0.62,0.46 0.85,0.77 0.23,0.32 0.41,0.65 0.53,1.01 0.12,0.36 0.18,0.69 0.18,1 0,0.32 -0.07,0.58 -0.21,0.8 -0.14,0.22 -0.3,0.33 -0.5,0.33 -0.13,0 -0.23,-0.06 -0.32,-0.17 -0.08,-0.11 -0.18,-0.29 -0.29,-0.54 -0.19,-0.49 -0.39,-0.86 -0.59,-1.1 -0.21,-0.24 -0.47,-0.37 -0.78,-0.37 -0.46,0 -0.82,0.3 -1.1,0.91 -0.28,0.61 -0.42,1.44 -0.42,2.49 0,0.49 0.04,0.95 0.11,1.36 0.07,0.41 0.17,0.77 0.31,1.06 0.14,0.29 0.3,0.51 0.49,0.67 0.19,0.15 0.4,0.23 0.63,0.23 0.31,0 0.57,-0.12 0.79,-0.37 0.22,-0.24 0.42,-0.62 0.59,-1.12 0.09,-0.3 0.19,-0.53 0.3,-0.69 0.11,-0.17 0.24,-0.25 0.4,-0.25 0.19,0 0.35,0.13 0.47,0.37 0.12,0.24 0.19,0.5 0.19,0.78zm5.34 1.77l0 -0.34c-0.19,0.4 -0.38,0.73 -0.58,1 -0.2,0.27 -0.42,0.47 -0.67,0.6 -0.24,0.13 -0.51,0.2 -0.82,0.2 -0.37,0 -0.71,-0.13 -1,-0.39 -0.29,-0.26 -0.52,-0.63 -0.69,-1.09 -0.19,-0.56 -0.29,-1.36 -0.29,-2.41l0 -5.21c0,-0.53 0.07,-0.92 0.21,-1.18 0.14,-0.26 0.32,-0.39 0.55,-0.39 0.23,0 0.42,0.13 0.56,0.4 0.14,0.26 0.21,0.65 0.21,1.18l0 4.21c0,0.61 0.03,1.12 0.09,1.54 0.06,0.41 0.17,0.74 0.32,0.97 0.16,0.23 0.37,0.35 0.64,0.35 0.26,0 0.51,-0.13 0.73,-0.4 0.23,-0.26 0.4,-0.61 0.5,-1.03 0.09,-0.37 0.13,-1.19 0.13,-2.45l0 -3.2c0,-0.52 0.07,-0.92 0.21,-1.18 0.14,-0.26 0.33,-0.4 0.56,-0.4 0.23,0 0.41,0.13 0.55,0.39 0.14,0.26 0.21,0.65 0.21,1.18l0 7.63c0,0.5 -0.07,0.88 -0.2,1.13 -0.13,0.25 -0.31,0.38 -0.52,0.38 -0.21,0 -0.39,-0.13 -0.52,-0.39 -0.14,-0.26 -0.21,-0.63 -0.21,-1.09zm7.29 -3.22l-3.02 0c0,0.6 0.08,1.13 0.21,1.58 0.14,0.46 0.32,0.8 0.55,1.03 0.23,0.23 0.48,0.35 0.75,0.35 0.18,0 0.35,-0.04 0.51,-0.11 0.15,-0.07 0.3,-0.19 0.44,-0.35 0.14,-0.16 0.28,-0.33 0.4,-0.51 0.12,-0.18 0.28,-0.42 0.47,-0.73 0.08,-0.12 0.19,-0.17 0.34,-0.17 0.16,0 0.29,0.08 0.39,0.22 0.1,0.14 0.15,0.36 0.15,0.63 0,0.24 -0.06,0.51 -0.16,0.83 -0.11,0.32 -0.27,0.62 -0.5,0.91 -0.22,0.29 -0.5,0.54 -0.83,0.73 -0.33,0.19 -0.72,0.29 -1.15,0.29 -0.99,0 -1.76,-0.48 -2.31,-1.45 -0.55,-0.96 -0.82,-2.27 -0.82,-3.92 0,-0.78 0.07,-1.5 0.2,-2.17 0.13,-0.66 0.33,-1.23 0.59,-1.71 0.26,-0.47 0.58,-0.84 0.96,-1.09 0.38,-0.25 0.8,-0.38 1.26,-0.38 0.6,0 1.12,0.22 1.55,0.65 0.43,0.43 0.75,0.99 0.97,1.69 0.21,0.69 0.32,1.39 0.32,2.1 0,0.66 -0.11,1.09 -0.33,1.29 -0.22,0.19 -0.53,0.29 -0.94,0.29zm-3.02 -1.5l2.8 0c-0.04,-0.9 -0.18,-1.57 -0.43,-2.02 -0.25,-0.44 -0.57,-0.67 -0.97,-0.67 -0.39,0 -0.7,0.23 -0.95,0.68 -0.25,0.45 -0.4,1.12 -0.45,2.01zm6.99 -3.05l0 0.32c0.27,-0.61 0.57,-1.06 0.89,-1.35 0.32,-0.29 0.69,-0.43 1.11,-0.43 0.41,0 0.77,0.15 1.09,0.45 0.32,0.3 0.56,0.73 0.72,1.28 0.1,0.32 0.17,0.67 0.2,1.04 0.03,0.37 0.04,0.85 0.04,1.43l0 4.9c0,0.53 -0.07,0.93 -0.21,1.19 -0.14,0.27 -0.33,0.41 -0.55,0.41 -0.23,0 -0.42,-0.14 -0.56,-0.41 -0.14,-0.28 -0.21,-0.67 -0.21,-1.19l0 -4.39c0,-0.87 -0.07,-1.53 -0.21,-1.99 -0.14,-0.46 -0.42,-0.69 -0.84,-0.69 -0.27,0 -0.52,0.14 -0.75,0.42 -0.23,0.28 -0.39,0.66 -0.5,1.16 -0.08,0.39 -0.11,1.12 -0.11,2.2l0 3.3c0,0.53 -0.07,0.93 -0.22,1.2 -0.14,0.27 -0.33,0.4 -0.56,0.4 -0.22,0 -0.4,-0.14 -0.55,-0.41 -0.14,-0.28 -0.21,-0.67 -0.21,-1.19l0 -7.61c0,-0.5 0.06,-0.88 0.19,-1.12 0.13,-0.25 0.3,-0.37 0.52,-0.37 0.13,0 0.26,0.06 0.37,0.16 0.11,0.11 0.2,0.27 0.26,0.49 0.07,0.22 0.1,0.49 0.1,0.8zm5.68 -1.22l0.17 0 0 -1.58c0,-0.42 0.01,-0.76 0.02,-1 0.01,-0.24 0.05,-0.45 0.11,-0.62 0.06,-0.18 0.15,-0.33 0.26,-0.44 0.11,-0.11 0.24,-0.17 0.38,-0.17 0.19,0 0.37,0.13 0.53,0.38 0.11,0.17 0.17,0.37 0.2,0.62 0.03,0.24 0.04,0.58 0.04,1.03l0 1.79 0.56 0c0.22,0 0.39,0.09 0.5,0.26 0.12,0.18 0.17,0.41 0.17,0.68 0,0.36 -0.08,0.6 -0.25,0.74 -0.16,0.14 -0.4,0.21 -0.7,0.21l-0.29 0 0 4.84c0,0.41 0.01,0.73 0.03,0.95 0.02,0.22 0.06,0.4 0.13,0.54 0.08,0.14 0.19,0.21 0.36,0.21 0.09,0 0.21,-0.03 0.37,-0.08 0.15,-0.05 0.28,-0.08 0.36,-0.08 0.13,0 0.24,0.09 0.34,0.26 0.1,0.17 0.15,0.38 0.15,0.63 0,0.42 -0.13,0.75 -0.4,0.97 -0.27,0.23 -0.66,0.34 -1.17,0.34 -0.48,0 -0.85,-0.14 -1.09,-0.41 -0.25,-0.28 -0.41,-0.66 -0.49,-1.15 -0.08,-0.49 -0.12,-1.14 -0.12,-1.96l0 -5.05 -0.2 0c-0.22,0 -0.39,-0.09 -0.51,-0.27 -0.12,-0.18 -0.18,-0.41 -0.18,-0.68 0,-0.27 0.06,-0.5 0.18,-0.68 0.12,-0.17 0.3,-0.26 0.53,-0.26z"/>
   <path class="fil1" d="M126.41 79.52c-0.37,0.49 -0.73,0.86 -1.08,1.11 -0.35,0.25 -0.74,0.37 -1.17,0.37 -0.4,0 -0.74,-0.14 -1.04,-0.4 -0.3,-0.27 -0.53,-0.63 -0.69,-1.08 -0.16,-0.46 -0.24,-0.95 -0.24,-1.48 0,-0.72 0.13,-1.33 0.4,-1.84 0.27,-0.51 0.64,-0.85 1.1,-1.02 0.1,-0.04 0.34,-0.13 0.73,-0.26 0.39,-0.13 0.72,-0.26 1,-0.37 0.28,-0.11 0.58,-0.25 0.9,-0.41 -0.02,-0.69 -0.1,-1.2 -0.24,-1.53 -0.15,-0.33 -0.45,-0.49 -0.9,-0.49 -0.39,0 -0.69,0.09 -0.88,0.28 -0.2,0.18 -0.37,0.46 -0.51,0.84 -0.14,0.37 -0.24,0.62 -0.3,0.74 -0.06,0.12 -0.18,0.18 -0.38,0.18 -0.17,0 -0.32,-0.1 -0.45,-0.29 -0.13,-0.19 -0.19,-0.43 -0.19,-0.73 0,-0.46 0.1,-0.92 0.29,-1.35 0.19,-0.44 0.49,-0.8 0.9,-1.08 0.41,-0.28 0.91,-0.42 1.52,-0.42 0.68,0 1.21,0.14 1.6,0.41 0.39,0.27 0.66,0.7 0.82,1.3 0.16,0.59 0.24,1.38 0.24,2.35 0,0.62 -0,1.14 -0,1.57 -0,0.43 -0,0.91 -0.01,1.44 0,0.49 0.05,1.01 0.14,1.55 0.1,0.53 0.14,0.88 0.14,1.03 0,0.27 -0.07,0.52 -0.22,0.74 -0.15,0.22 -0.32,0.33 -0.51,0.33 -0.16,0 -0.31,-0.13 -0.47,-0.38 -0.15,-0.25 -0.32,-0.62 -0.49,-1.1zm-0.1 -3.82c-0.23,0.14 -0.55,0.29 -0.99,0.45 -0.43,0.16 -0.73,0.28 -0.89,0.35 -0.17,0.08 -0.32,0.22 -0.47,0.43 -0.15,0.22 -0.23,0.52 -0.23,0.91 0,0.4 0.09,0.74 0.27,1.02 0.18,0.28 0.41,0.42 0.69,0.42 0.3,0 0.59,-0.12 0.84,-0.34 0.26,-0.23 0.45,-0.52 0.57,-0.89 0.14,-0.4 0.21,-1.06 0.21,-1.97l0 -0.38zm6.06 -5.18l0.17 0 0 -1.58c0,-0.42 0.01,-0.76 0.02,-1 0.01,-0.24 0.05,-0.45 0.11,-0.62 0.06,-0.18 0.15,-0.33 0.26,-0.44 0.11,-0.11 0.24,-0.17 0.38,-0.17 0.19,0 0.37,0.13 0.53,0.38 0.11,0.17 0.17,0.37 0.2,0.62 0.03,0.24 0.04,0.58 0.04,1.03l0 1.79 0.56 0c0.22,0 0.39,0.09 0.5,0.26 0.12,0.18 0.17,0.41 0.17,0.68 0,0.36 -0.08,0.6 -0.25,0.74 -0.16,0.14 -0.4,0.21 -0.7,0.21l-0.29 0 0 4.84c0,0.41 0.01,0.73 0.03,0.95 0.02,0.22 0.06,0.4 0.13,0.54 0.08,0.14 0.19,0.21 0.36,0.21 0.09,0 0.21,-0.03 0.37,-0.08 0.15,-0.05 0.28,-0.08 0.36,-0.08 0.13,0 0.24,0.09 0.34,0.26 0.1,0.17 0.15,0.38 0.15,0.63 0,0.42 -0.13,0.75 -0.4,0.97 -0.27,0.23 -0.66,0.34 -1.17,0.34 -0.48,0 -0.85,-0.14 -1.09,-0.41 -0.25,-0.28 -0.41,-0.66 -0.49,-1.15 -0.08,-0.49 -0.12,-1.14 -0.12,-1.96l0 -5.05 -0.2 0c-0.22,0 -0.39,-0.09 -0.51,-0.27 -0.12,-0.18 -0.18,-0.41 -0.18,-0.68 0,-0.27 0.06,-0.5 0.18,-0.68 0.12,-0.17 0.3,-0.26 0.53,-0.26zm8.01 8.98l0 -0.34c-0.19,0.4 -0.38,0.73 -0.58,1 -0.2,0.27 -0.42,0.47 -0.67,0.6 -0.24,0.13 -0.51,0.2 -0.82,0.2 -0.37,0 -0.71,-0.13 -1,-0.39 -0.29,-0.26 -0.52,-0.63 -0.69,-1.09 -0.19,-0.56 -0.29,-1.36 -0.29,-2.41l0 -5.21c0,-0.53 0.07,-0.92 0.21,-1.18 0.14,-0.26 0.32,-0.39 0.55,-0.39 0.23,0 0.42,0.13 0.56,0.4 0.14,0.26 0.21,0.65 0.21,1.18l0 4.21c0,0.61 0.03,1.12 0.09,1.54 0.06,0.41 0.17,0.74 0.32,0.97 0.16,0.23 0.37,0.35 0.64,0.35 0.26,0 0.51,-0.13 0.73,-0.4 0.23,-0.26 0.4,-0.61 0.5,-1.03 0.09,-0.37 0.13,-1.19 0.13,-2.45l0 -3.2c0,-0.52 0.07,-0.92 0.21,-1.18 0.14,-0.26 0.33,-0.4 0.56,-0.4 0.23,0 0.41,0.13 0.55,0.39 0.14,0.26 0.21,0.65 0.21,1.18l0 7.63c0,0.5 -0.07,0.88 -0.2,1.13 -0.13,0.25 -0.31,0.38 -0.52,0.38 -0.21,0 -0.39,-0.13 -0.52,-0.39 -0.14,-0.26 -0.21,-0.63 -0.21,-1.09zm7.38 -11.53l0 3.9c0.2,-0.39 0.39,-0.69 0.57,-0.92 0.19,-0.22 0.39,-0.39 0.62,-0.51 0.23,-0.11 0.47,-0.17 0.73,-0.17 0.39,0 0.74,0.14 1.04,0.42 0.3,0.28 0.54,0.69 0.71,1.23 0.11,0.31 0.18,0.67 0.22,1.06 0.04,0.39 0.06,0.84 0.06,1.34l0 5.05c0,0.53 -0.07,0.93 -0.21,1.19 -0.14,0.27 -0.33,0.41 -0.56,0.41 -0.51,0 -0.76,-0.53 -0.76,-1.6l0 -4.45c0,-0.84 -0.07,-1.49 -0.22,-1.94 -0.15,-0.45 -0.43,-0.68 -0.84,-0.68 -0.27,0 -0.52,0.13 -0.74,0.4 -0.22,0.27 -0.39,0.63 -0.49,1.09 -0.08,0.39 -0.13,1.09 -0.13,2.09l0 3.48c0,0.52 -0.07,0.92 -0.21,1.19 -0.14,0.27 -0.33,0.41 -0.57,0.41 -0.51,0 -0.76,-0.53 -0.76,-1.6l0 -11.42c0,-0.53 0.07,-0.93 0.2,-1.2 0.13,-0.27 0.32,-0.4 0.56,-0.4 0.24,0 0.43,0.13 0.57,0.4 0.14,0.27 0.21,0.67 0.21,1.2zm7.02 3.81l0 7.61c0,0.53 -0.07,0.93 -0.22,1.19 -0.15,0.27 -0.33,0.41 -0.56,0.41 -0.23,0 -0.41,-0.14 -0.55,-0.41 -0.14,-0.28 -0.21,-0.67 -0.21,-1.19l0 -7.53c0,-0.52 0.07,-0.92 0.21,-1.18 0.14,-0.26 0.32,-0.4 0.55,-0.4 0.23,0 0.41,0.13 0.56,0.4 0.15,0.26 0.22,0.63 0.22,1.1zm-0.76 -2.72c-0.21,0 -0.4,-0.11 -0.55,-0.34 -0.15,-0.22 -0.23,-0.54 -0.23,-0.95 0,-0.37 0.08,-0.67 0.23,-0.92 0.16,-0.24 0.34,-0.36 0.54,-0.36 0.2,0 0.38,0.11 0.53,0.33 0.15,0.22 0.23,0.54 0.23,0.95 0,0.41 -0.08,0.72 -0.23,0.95 -0.15,0.23 -0.33,0.34 -0.54,0.34zm7.32 8.49c0,0.72 -0.1,1.35 -0.31,1.86 -0.21,0.52 -0.51,0.91 -0.92,1.18 -0.41,0.27 -0.9,0.4 -1.48,0.4 -0.55,0 -1.03,-0.14 -1.42,-0.43 -0.4,-0.29 -0.69,-0.65 -0.88,-1.08 -0.19,-0.43 -0.28,-0.87 -0.28,-1.3 0,-0.29 0.06,-0.54 0.18,-0.74 0.12,-0.21 0.27,-0.31 0.46,-0.31 0.16,0 0.29,0.07 0.37,0.2 0.09,0.13 0.17,0.32 0.25,0.57 0.16,0.47 0.35,0.82 0.57,1.05 0.22,0.23 0.52,0.35 0.9,0.35 0.31,0 0.56,-0.12 0.76,-0.35 0.2,-0.23 0.3,-0.5 0.3,-0.81 0,-0.46 -0.1,-0.8 -0.31,-1.01 -0.21,-0.21 -0.54,-0.41 -1.01,-0.61 -0.53,-0.22 -0.96,-0.46 -1.3,-0.71 -0.33,-0.25 -0.6,-0.58 -0.8,-0.98 -0.2,-0.41 -0.3,-0.91 -0.3,-1.49 0,-0.53 0.09,-1.03 0.28,-1.5 0.18,-0.47 0.46,-0.84 0.82,-1.12 0.36,-0.28 0.79,-0.42 1.3,-0.42 0.4,0 0.76,0.07 1.07,0.21 0.32,0.14 0.58,0.33 0.8,0.57 0.21,0.24 0.38,0.5 0.49,0.79 0.11,0.29 0.17,0.57 0.17,0.85 0,0.3 -0.06,0.55 -0.18,0.74 -0.12,0.19 -0.29,0.29 -0.51,0.29 -0.16,0 -0.29,-0.08 -0.4,-0.23 -0.11,-0.15 -0.24,-0.39 -0.38,-0.69 -0.12,-0.26 -0.25,-0.46 -0.41,-0.62 -0.16,-0.15 -0.37,-0.23 -0.64,-0.23 -0.28,0 -0.51,0.1 -0.69,0.3 -0.18,0.2 -0.28,0.46 -0.28,0.76 0,0.28 0.07,0.5 0.2,0.68 0.14,0.18 0.32,0.33 0.55,0.44 0.23,0.12 0.55,0.26 0.95,0.42 0.48,0.2 0.87,0.44 1.17,0.71 0.3,0.28 0.53,0.6 0.69,0.98 0.16,0.38 0.24,0.8 0.24,1.29zm1.39 -7.03l0.17 0 0 -1.58c0,-0.42 0.01,-0.76 0.02,-1 0.01,-0.24 0.05,-0.45 0.11,-0.62 0.06,-0.18 0.15,-0.33 0.26,-0.44 0.11,-0.11 0.24,-0.17 0.38,-0.17 0.19,0 0.37,0.13 0.53,0.38 0.11,0.17 0.17,0.37 0.2,0.62 0.03,0.24 0.04,0.58 0.04,1.03l0 1.79 0.56 0c0.22,0 0.39,0.09 0.5,0.26 0.12,0.18 0.17,0.41 0.17,0.68 0,0.36 -0.08,0.6 -0.25,0.74 -0.16,0.14 -0.4,0.21 -0.7,0.21l-0.29 0 0 4.84c0,0.41 0.01,0.73 0.03,0.95 0.02,0.22 0.06,0.4 0.13,0.54 0.08,0.14 0.19,0.21 0.36,0.21 0.09,0 0.21,-0.03 0.37,-0.08 0.15,-0.05 0.28,-0.08 0.36,-0.08 0.13,0 0.24,0.09 0.34,0.26 0.1,0.17 0.15,0.38 0.15,0.63 0,0.42 -0.13,0.75 -0.4,0.97 -0.27,0.23 -0.66,0.34 -1.17,0.34 -0.48,0 -0.85,-0.14 -1.09,-0.41 -0.25,-0.28 -0.41,-0.66 -0.49,-1.15 -0.08,-0.49 -0.12,-1.14 -0.12,-1.96l0 -5.05 -0.2 0c-0.22,0 -0.39,-0.09 -0.51,-0.27 -0.12,-0.18 -0.18,-0.41 -0.18,-0.68 0,-0.27 0.06,-0.5 0.18,-0.68 0.12,-0.17 0.3,-0.26 0.53,-0.26zm9.78 5.12c0,0.79 -0.07,1.51 -0.21,2.17 -0.14,0.66 -0.35,1.23 -0.62,1.71 -0.27,0.48 -0.6,0.84 -0.97,1.09 -0.38,0.25 -0.8,0.38 -1.27,0.38 -0.47,0 -0.89,-0.13 -1.26,-0.39 -0.37,-0.26 -0.7,-0.63 -0.97,-1.11 -0.27,-0.48 -0.48,-1.04 -0.62,-1.7 -0.14,-0.66 -0.21,-1.38 -0.21,-2.17 0,-0.8 0.07,-1.53 0.21,-2.19 0.14,-0.66 0.35,-1.23 0.62,-1.7 0.27,-0.47 0.59,-0.83 0.97,-1.08 0.38,-0.25 0.8,-0.38 1.26,-0.38 0.47,0 0.89,0.13 1.27,0.39 0.38,0.26 0.71,0.63 0.98,1.1 0.27,0.47 0.48,1.04 0.62,1.7 0.14,0.66 0.21,1.38 0.21,2.17zm-1.55 0c0,-1.07 -0.14,-1.91 -0.41,-2.51 -0.28,-0.6 -0.65,-0.9 -1.11,-0.9 -0.3,0 -0.57,0.13 -0.8,0.4 -0.23,0.27 -0.41,0.66 -0.53,1.18 -0.13,0.52 -0.19,1.13 -0.19,1.82 0,0.69 0.06,1.29 0.18,1.8 0.12,0.51 0.3,0.91 0.52,1.18 0.23,0.27 0.5,0.41 0.81,0.41 0.47,0 0.84,-0.3 1.11,-0.9 0.28,-0.6 0.41,-1.43 0.41,-2.49zm4.29 1.55l0 2.2c0,0.53 -0.07,0.93 -0.22,1.2 -0.15,0.27 -0.33,0.4 -0.56,0.4 -0.22,0 -0.41,-0.14 -0.55,-0.41 -0.14,-0.27 -0.21,-0.67 -0.21,-1.19l0 -7.33c0,-1.18 0.25,-1.77 0.75,-1.77 0.25,0 0.44,0.14 0.55,0.41 0.11,0.28 0.18,0.69 0.19,1.23 0.18,-0.54 0.37,-0.95 0.57,-1.23 0.19,-0.28 0.45,-0.41 0.78,-0.41 0.32,0 0.64,0.14 0.94,0.41 0.3,0.28 0.46,0.65 0.46,1.1 0,0.32 -0.06,0.59 -0.19,0.8 -0.13,0.21 -0.27,0.31 -0.42,0.31 -0.06,0 -0.19,-0.06 -0.41,-0.18 -0.22,-0.12 -0.41,-0.18 -0.57,-0.18 -0.23,0 -0.41,0.1 -0.55,0.3 -0.14,0.2 -0.25,0.5 -0.33,0.9 -0.08,0.4 -0.13,0.87 -0.16,1.42 -0.03,0.55 -0.04,1.22 -0.04,2.01zm5.08 -5.41l0 7.61c0,0.53 -0.07,0.93 -0.22,1.19 -0.15,0.27 -0.33,0.41 -0.56,0.41 -0.23,0 -0.41,-0.14 -0.55,-0.41 -0.14,-0.28 -0.21,-0.67 -0.21,-1.19l0 -7.53c0,-0.52 0.07,-0.92 0.21,-1.18 0.14,-0.26 0.32,-0.4 0.55,-0.4 0.23,0 0.41,0.13 0.56,0.4 0.15,0.26 0.22,0.63 0.22,1.1zm-0.76 -2.72c-0.21,0 -0.4,-0.11 -0.55,-0.34 -0.15,-0.22 -0.23,-0.54 -0.23,-0.95 0,-0.37 0.08,-0.67 0.23,-0.92 0.16,-0.24 0.34,-0.36 0.54,-0.36 0.2,0 0.38,0.11 0.53,0.33 0.15,0.22 0.23,0.54 0.23,0.95 0,0.41 -0.08,0.72 -0.23,0.95 -0.15,0.23 -0.33,0.34 -0.54,0.34zm6.25 10.45c-0.37,0.49 -0.73,0.86 -1.08,1.11 -0.35,0.25 -0.74,0.37 -1.17,0.37 -0.4,0 -0.74,-0.14 -1.04,-0.4 -0.3,-0.27 -0.53,-0.63 -0.69,-1.08 -0.16,-0.46 -0.24,-0.95 -0.24,-1.48 0,-0.72 0.13,-1.33 0.4,-1.84 0.27,-0.51 0.64,-0.85 1.1,-1.02 0.1,-0.04 0.34,-0.13 0.73,-0.26 0.39,-0.13 0.72,-0.26 1,-0.37 0.28,-0.11 0.58,-0.25 0.9,-0.41 -0.02,-0.69 -0.1,-1.2 -0.25,-1.53 -0.15,-0.33 -0.45,-0.49 -0.9,-0.49 -0.39,0 -0.69,0.09 -0.88,0.28 -0.2,0.18 -0.37,0.46 -0.51,0.84 -0.14,0.37 -0.24,0.62 -0.3,0.74 -0.06,0.12 -0.19,0.18 -0.38,0.18 -0.17,0 -0.32,-0.1 -0.45,-0.29 -0.13,-0.19 -0.19,-0.43 -0.19,-0.73 0,-0.46 0.1,-0.92 0.29,-1.35 0.19,-0.44 0.49,-0.8 0.9,-1.08 0.41,-0.28 0.91,-0.42 1.52,-0.42 0.68,0 1.21,0.14 1.6,0.41 0.39,0.27 0.66,0.7 0.82,1.3 0.16,0.59 0.24,1.38 0.24,2.35 0,0.62 -0,1.14 -0,1.57 -0,0.43 -0,0.91 -0.01,1.44 0,0.49 0.05,1.01 0.14,1.55 0.1,0.53 0.14,0.88 0.14,1.03 0,0.27 -0.07,0.52 -0.22,0.74 -0.15,0.22 -0.32,0.33 -0.51,0.33 -0.16,0 -0.31,-0.13 -0.47,-0.38 -0.15,-0.25 -0.32,-0.62 -0.49,-1.1zm-0.1 -3.82c-0.23,0.14 -0.55,0.29 -0.99,0.45 -0.43,0.16 -0.73,0.28 -0.89,0.35 -0.17,0.08 -0.32,0.22 -0.47,0.43 -0.15,0.22 -0.23,0.52 -0.23,0.91 0,0.4 0.09,0.74 0.27,1.02 0.18,0.28 0.41,0.42 0.69,0.42 0.3,0 0.59,-0.12 0.84,-0.34 0.26,-0.23 0.45,-0.52 0.57,-0.89 0.14,-0.4 0.21,-1.06 0.21,-1.97l0 -0.38zm4.12 5.31c-0.25,0 -0.46,-0.13 -0.64,-0.39 -0.18,-0.26 -0.27,-0.63 -0.27,-1.09 0,-0.4 0.09,-0.75 0.27,-1.02 0.18,-0.28 0.39,-0.41 0.62,-0.41 0.18,0 0.35,0.08 0.49,0.25 0.15,0.17 0.26,0.41 0.35,0.74 0.08,0.33 0.12,0.73 0.12,1.2 0,0.64 -0.08,1.23 -0.24,1.79 -0.16,0.56 -0.35,0.99 -0.58,1.32 -0.23,0.33 -0.43,0.49 -0.62,0.49 -0.12,0 -0.21,-0.07 -0.29,-0.2 -0.07,-0.13 -0.11,-0.28 -0.11,-0.46 0,-0.26 0.08,-0.48 0.23,-0.64 0.44,-0.42 0.66,-0.94 0.66,-1.57zm9.69 -1.52l0 -0.26c-0.21,0.4 -0.41,0.73 -0.61,0.99 -0.2,0.25 -0.42,0.45 -0.66,0.58 -0.24,0.13 -0.49,0.2 -0.77,0.2 -0.37,0 -0.71,-0.14 -1.02,-0.4 -0.31,-0.27 -0.59,-0.65 -0.82,-1.14 -0.23,-0.49 -0.4,-1.08 -0.52,-1.74 -0.12,-0.67 -0.18,-1.39 -0.18,-2.17 0,-1.65 0.24,-2.93 0.71,-3.85 0.47,-0.92 1.09,-1.38 1.86,-1.38 0.45,0 0.82,0.13 1.12,0.39 0.3,0.26 0.6,0.66 0.89,1.2l0 -3.89c0,-0.54 0.06,-0.95 0.19,-1.22 0.13,-0.28 0.31,-0.41 0.54,-0.41 0.23,0 0.41,0.13 0.54,0.38 0.13,0.25 0.19,0.63 0.19,1.12l0 11.61c0,0.5 -0.07,0.88 -0.2,1.13 -0.14,0.25 -0.31,0.38 -0.53,0.38 -0.21,0 -0.39,-0.13 -0.52,-0.39 -0.14,-0.26 -0.21,-0.63 -0.21,-1.11zm-3.03 -3.86c0,0.71 0.07,1.32 0.19,1.82 0.13,0.5 0.31,0.88 0.53,1.13 0.23,0.25 0.47,0.38 0.74,0.38 0.27,0 0.52,-0.12 0.74,-0.36 0.22,-0.24 0.4,-0.61 0.54,-1.11 0.13,-0.5 0.2,-1.12 0.2,-1.87 0,-0.7 -0.07,-1.3 -0.2,-1.8 -0.13,-0.51 -0.31,-0.89 -0.54,-1.16 -0.23,-0.27 -0.48,-0.4 -0.75,-0.4 -0.28,0 -0.53,0.13 -0.76,0.41 -0.22,0.27 -0.39,0.67 -0.52,1.18 -0.12,0.51 -0.18,1.11 -0.18,1.78zm10.34 0.67l-3.02 0c0,0.6 0.08,1.13 0.21,1.58 0.14,0.46 0.32,0.8 0.55,1.03 0.23,0.23 0.48,0.35 0.75,0.35 0.19,0 0.35,-0.04 0.51,-0.11 0.15,-0.07 0.3,-0.19 0.44,-0.35 0.14,-0.16 0.28,-0.33 0.4,-0.51 0.12,-0.18 0.28,-0.42 0.47,-0.73 0.08,-0.12 0.19,-0.17 0.34,-0.17 0.16,0 0.29,0.08 0.39,0.22 0.1,0.14 0.15,0.36 0.15,0.63 0,0.24 -0.06,0.51 -0.16,0.83 -0.11,0.32 -0.27,0.62 -0.5,0.91 -0.22,0.29 -0.5,0.54 -0.83,0.73 -0.33,0.19 -0.72,0.29 -1.15,0.29 -0.99,0 -1.76,-0.48 -2.31,-1.45 -0.55,-0.96 -0.82,-2.27 -0.82,-3.92 0,-0.78 0.07,-1.5 0.2,-2.17 0.14,-0.66 0.33,-1.23 0.59,-1.71 0.26,-0.47 0.58,-0.84 0.96,-1.09 0.38,-0.25 0.8,-0.38 1.26,-0.38 0.6,0 1.12,0.22 1.55,0.65 0.43,0.43 0.75,0.99 0.97,1.69 0.21,0.69 0.32,1.39 0.32,2.1 0,0.66 -0.11,1.09 -0.33,1.29 -0.22,0.19 -0.53,0.29 -0.94,0.29zm-3.02 -1.5l2.8 0c-0.04,-0.9 -0.18,-1.57 -0.43,-2.02 -0.25,-0.44 -0.57,-0.67 -0.97,-0.67 -0.39,0 -0.7,0.23 -0.95,0.68 -0.25,0.45 -0.4,1.12 -0.45,2.01zm5.67 -4.27l0.17 0 0 -1.58c0,-0.42 0.01,-0.76 0.02,-1 0.01,-0.24 0.05,-0.45 0.11,-0.62 0.06,-0.18 0.15,-0.33 0.26,-0.44 0.11,-0.11 0.24,-0.17 0.38,-0.17 0.19,0 0.37,0.13 0.53,0.38 0.11,0.17 0.17,0.37 0.2,0.62 0.03,0.24 0.04,0.58 0.04,1.03l0 1.79 0.57 0c0.22,0 0.39,0.09 0.5,0.26 0.12,0.18 0.17,0.41 0.17,0.68 0,0.36 -0.08,0.6 -0.25,0.74 -0.16,0.14 -0.4,0.21 -0.7,0.21l-0.29 0 0 4.84c0,0.41 0.01,0.73 0.03,0.95 0.02,0.22 0.06,0.4 0.13,0.54 0.08,0.14 0.19,0.21 0.36,0.21 0.09,0 0.21,-0.03 0.37,-0.08 0.15,-0.05 0.28,-0.08 0.36,-0.08 0.13,0 0.24,0.09 0.34,0.26 0.1,0.17 0.15,0.38 0.15,0.63 0,0.42 -0.13,0.75 -0.41,0.97 -0.27,0.23 -0.66,0.34 -1.17,0.34 -0.48,0 -0.85,-0.14 -1.09,-0.41 -0.25,-0.28 -0.41,-0.66 -0.49,-1.15 -0.08,-0.49 -0.12,-1.14 -0.12,-1.96l0 -5.05 -0.2 0c-0.22,0 -0.39,-0.09 -0.51,-0.27 -0.12,-0.18 -0.18,-0.41 -0.18,-0.68 0,-0.27 0.06,-0.5 0.18,-0.68 0.12,-0.17 0.3,-0.26 0.53,-0.26zm7.91 8.99c-0.37,0.49 -0.73,0.86 -1.08,1.11 -0.35,0.25 -0.74,0.37 -1.17,0.37 -0.4,0 -0.74,-0.14 -1.04,-0.4 -0.3,-0.27 -0.53,-0.63 -0.69,-1.08 -0.16,-0.46 -0.24,-0.95 -0.24,-1.48 0,-0.72 0.13,-1.33 0.4,-1.84 0.27,-0.51 0.64,-0.85 1.1,-1.02 0.1,-0.04 0.34,-0.13 0.73,-0.26 0.39,-0.13 0.72,-0.26 1,-0.37 0.28,-0.11 0.58,-0.25 0.9,-0.41 -0.02,-0.69 -0.1,-1.2 -0.25,-1.53 -0.15,-0.33 -0.45,-0.49 -0.9,-0.49 -0.39,0 -0.69,0.09 -0.88,0.28 -0.2,0.18 -0.37,0.46 -0.51,0.84 -0.14,0.37 -0.24,0.62 -0.3,0.74 -0.06,0.12 -0.19,0.18 -0.38,0.18 -0.17,0 -0.32,-0.1 -0.45,-0.29 -0.13,-0.19 -0.19,-0.43 -0.19,-0.73 0,-0.46 0.1,-0.92 0.29,-1.35 0.19,-0.44 0.49,-0.8 0.9,-1.08 0.41,-0.28 0.91,-0.42 1.52,-0.42 0.68,0 1.21,0.14 1.6,0.41 0.39,0.27 0.66,0.7 0.82,1.3 0.16,0.59 0.24,1.38 0.24,2.35 0,0.62 -0,1.14 -0,1.57 -0,0.43 -0,0.91 -0.01,1.44 0,0.49 0.05,1.01 0.14,1.55 0.1,0.53 0.14,0.88 0.14,1.03 0,0.27 -0.07,0.52 -0.22,0.74 -0.15,0.22 -0.32,0.33 -0.51,0.33 -0.16,0 -0.31,-0.13 -0.47,-0.38 -0.15,-0.25 -0.32,-0.62 -0.49,-1.1zm-0.1 -3.82c-0.23,0.14 -0.55,0.29 -0.99,0.45 -0.43,0.16 -0.73,0.28 -0.89,0.35 -0.17,0.08 -0.32,0.22 -0.47,0.43 -0.15,0.22 -0.23,0.52 -0.23,0.91 0,0.4 0.09,0.74 0.27,1.02 0.18,0.28 0.41,0.42 0.69,0.42 0.3,0 0.59,-0.12 0.84,-0.34 0.26,-0.23 0.45,-0.52 0.57,-0.89 0.14,-0.4 0.21,-1.06 0.21,-1.97l0 -0.38zm3.08 3.69l0 -11.42c0,-0.53 0.07,-0.93 0.21,-1.2 0.14,-0.27 0.32,-0.4 0.56,-0.4 0.23,0 0.42,0.13 0.56,0.4 0.14,0.27 0.21,0.67 0.21,1.2l0 11.42c0,0.53 -0.07,0.93 -0.22,1.2 -0.14,0.27 -0.33,0.4 -0.56,0.4 -0.23,0 -0.41,-0.14 -0.55,-0.41 -0.14,-0.28 -0.21,-0.67 -0.21,-1.19zm3.14 0l0 -11.42c0,-0.53 0.07,-0.93 0.21,-1.2 0.14,-0.27 0.32,-0.4 0.56,-0.4 0.23,0 0.42,0.13 0.56,0.4 0.14,0.27 0.21,0.67 0.21,1.2l0 11.42c0,0.53 -0.07,0.93 -0.22,1.2 -0.14,0.27 -0.33,0.4 -0.56,0.4 -0.23,0 -0.41,-0.14 -0.55,-0.41 -0.14,-0.28 -0.21,-0.67 -0.21,-1.19zm7.44 -3.1l-3.02 0c0,0.6 0.08,1.13 0.21,1.58 0.14,0.46 0.32,0.8 0.55,1.03 0.23,0.23 0.48,0.35 0.75,0.35 0.19,0 0.35,-0.04 0.51,-0.11 0.15,-0.07 0.3,-0.19 0.44,-0.35 0.14,-0.16 0.28,-0.33 0.4,-0.51 0.12,-0.18 0.28,-0.42 0.47,-0.73 0.08,-0.12 0.19,-0.17 0.34,-0.17 0.16,0 0.29,0.08 0.39,0.22 0.1,0.14 0.15,0.36 0.15,0.63 0,0.24 -0.06,0.51 -0.16,0.83 -0.11,0.32 -0.27,0.62 -0.5,0.91 -0.22,0.29 -0.5,0.54 -0.83,0.73 -0.33,0.19 -0.72,0.29 -1.15,0.29 -0.99,0 -1.76,-0.48 -2.31,-1.45 -0.55,-0.96 -0.82,-2.27 -0.82,-3.92 0,-0.78 0.07,-1.5 0.2,-2.17 0.13,-0.66 0.33,-1.23 0.59,-1.71 0.26,-0.47 0.58,-0.84 0.96,-1.09 0.38,-0.25 0.8,-0.38 1.26,-0.38 0.6,0 1.12,0.22 1.55,0.65 0.43,0.43 0.75,0.99 0.97,1.69 0.21,0.69 0.32,1.39 0.32,2.1 0,0.66 -0.11,1.09 -0.33,1.29 -0.22,0.19 -0.53,0.29 -0.94,0.29zm-3.02 -1.5l2.8 0c-0.04,-0.9 -0.18,-1.57 -0.43,-2.02 -0.25,-0.44 -0.57,-0.67 -0.97,-0.67 -0.39,0 -0.7,0.23 -0.95,0.68 -0.25,0.45 -0.4,1.12 -0.45,2.01z"/>
   <path class="fil1" d="M238.51 77.56c0,0.72 -0.1,1.35 -0.31,1.86 -0.21,0.52 -0.51,0.91 -0.92,1.18 -0.4,0.27 -0.9,0.4 -1.48,0.4 -0.55,0 -1.03,-0.14 -1.42,-0.43 -0.4,-0.29 -0.69,-0.65 -0.88,-1.08 -0.19,-0.43 -0.28,-0.87 -0.28,-1.3 0,-0.29 0.06,-0.54 0.18,-0.74 0.12,-0.21 0.27,-0.31 0.46,-0.31 0.16,0 0.29,0.07 0.37,0.2 0.09,0.13 0.17,0.32 0.25,0.57 0.16,0.47 0.35,0.82 0.57,1.05 0.22,0.23 0.52,0.35 0.9,0.35 0.31,0 0.56,-0.12 0.76,-0.35 0.2,-0.23 0.3,-0.5 0.3,-0.81 0,-0.46 -0.1,-0.8 -0.31,-1.01 -0.21,-0.21 -0.54,-0.41 -1.01,-0.61 -0.53,-0.22 -0.96,-0.46 -1.3,-0.71 -0.33,-0.25 -0.6,-0.58 -0.8,-0.98 -0.2,-0.41 -0.3,-0.91 -0.3,-1.49 0,-0.53 0.09,-1.03 0.28,-1.5 0.19,-0.47 0.46,-0.84 0.82,-1.12 0.36,-0.28 0.79,-0.42 1.3,-0.42 0.4,0 0.76,0.07 1.07,0.21 0.32,0.14 0.58,0.33 0.8,0.57 0.21,0.24 0.38,0.5 0.49,0.79 0.11,0.29 0.17,0.57 0.17,0.85 0,0.3 -0.06,0.55 -0.18,0.74 -0.12,0.19 -0.29,0.29 -0.51,0.29 -0.16,0 -0.29,-0.08 -0.41,-0.23 -0.11,-0.15 -0.24,-0.39 -0.38,-0.69 -0.12,-0.26 -0.25,-0.46 -0.41,-0.62 -0.16,-0.15 -0.37,-0.23 -0.64,-0.23 -0.28,0 -0.51,0.1 -0.69,0.3 -0.18,0.2 -0.28,0.46 -0.28,0.76 0,0.28 0.07,0.5 0.2,0.68 0.14,0.18 0.32,0.33 0.55,0.44 0.23,0.12 0.55,0.26 0.95,0.42 0.48,0.2 0.87,0.44 1.17,0.71 0.3,0.28 0.53,0.6 0.69,0.98 0.16,0.38 0.24,0.8 0.24,1.29zm8.42 5.59l0 -3.71c-0.3,0.51 -0.61,0.89 -0.93,1.16 -0.32,0.27 -0.68,0.4 -1.07,0.4 -0.48,0 -0.91,-0.21 -1.31,-0.65 -0.39,-0.43 -0.7,-1.05 -0.93,-1.86 -0.22,-0.81 -0.34,-1.76 -0.34,-2.85 0,-1.12 0.11,-2.08 0.34,-2.88 0.23,-0.8 0.54,-1.41 0.94,-1.83 0.4,-0.42 0.85,-0.63 1.33,-0.63 0.41,0 0.79,0.15 1.11,0.44 0.33,0.29 0.61,0.74 0.84,1.34l0 -0.32c0,-0.48 0.07,-0.85 0.2,-1.1 0.14,-0.25 0.31,-0.38 0.53,-0.38 0.21,0 0.39,0.13 0.53,0.37 0.13,0.25 0.2,0.62 0.2,1.1l0 11.39c0,1.17 -0.24,1.75 -0.73,1.75 -0.3,0 -0.5,-0.16 -0.59,-0.47 -0.09,-0.31 -0.14,-0.74 -0.14,-1.28zm-3.02 -7.52c0,0.71 0.07,1.32 0.2,1.83 0.13,0.51 0.31,0.89 0.53,1.14 0.22,0.25 0.45,0.37 0.7,0.37 0.28,0 0.53,-0.13 0.76,-0.37 0.23,-0.25 0.41,-0.62 0.55,-1.13 0.14,-0.51 0.21,-1.13 0.21,-1.88 0,-0.53 -0.04,-1 -0.12,-1.43 -0.08,-0.42 -0.19,-0.78 -0.33,-1.06 -0.14,-0.28 -0.3,-0.49 -0.48,-0.63 -0.18,-0.14 -0.37,-0.21 -0.58,-0.21 -0.41,0 -0.76,0.29 -1.03,0.88 -0.28,0.59 -0.41,1.42 -0.41,2.49zm10.03 3.88l0 -0.34c-0.19,0.4 -0.38,0.73 -0.58,1 -0.2,0.27 -0.42,0.47 -0.67,0.6 -0.24,0.13 -0.51,0.2 -0.82,0.2 -0.37,0 -0.71,-0.13 -1,-0.39 -0.29,-0.26 -0.52,-0.63 -0.69,-1.09 -0.19,-0.56 -0.29,-1.36 -0.29,-2.41l0 -5.21c0,-0.53 0.07,-0.92 0.21,-1.18 0.14,-0.26 0.32,-0.39 0.55,-0.39 0.23,0 0.42,0.13 0.56,0.4 0.14,0.26 0.21,0.65 0.21,1.18l0 4.21c0,0.61 0.03,1.12 0.09,1.54 0.06,0.41 0.17,0.74 0.32,0.97 0.16,0.23 0.37,0.35 0.64,0.35 0.26,0 0.51,-0.13 0.73,-0.4 0.23,-0.26 0.4,-0.61 0.5,-1.03 0.09,-0.37 0.13,-1.19 0.13,-2.45l0 -3.2c0,-0.52 0.07,-0.92 0.21,-1.18 0.14,-0.26 0.33,-0.4 0.56,-0.4 0.23,0 0.41,0.13 0.55,0.39 0.14,0.26 0.21,0.65 0.21,1.18l0 7.63c0,0.5 -0.07,0.88 -0.2,1.13 -0.13,0.25 -0.31,0.38 -0.52,0.38 -0.21,0 -0.39,-0.13 -0.52,-0.39 -0.14,-0.26 -0.21,-0.63 -0.21,-1.09zm7.29 -3.22l-3.02 0c0,0.6 0.08,1.13 0.21,1.58 0.14,0.46 0.32,0.8 0.55,1.03 0.23,0.23 0.48,0.35 0.75,0.35 0.19,0 0.35,-0.04 0.51,-0.11 0.15,-0.07 0.3,-0.19 0.44,-0.35 0.14,-0.16 0.28,-0.33 0.4,-0.51 0.12,-0.18 0.28,-0.42 0.47,-0.73 0.08,-0.12 0.19,-0.17 0.34,-0.17 0.16,0 0.29,0.08 0.39,0.22 0.1,0.14 0.15,0.36 0.15,0.63 0,0.24 -0.06,0.51 -0.16,0.83 -0.11,0.32 -0.27,0.62 -0.5,0.91 -0.22,0.29 -0.5,0.54 -0.83,0.73 -0.33,0.19 -0.72,0.29 -1.15,0.29 -0.99,0 -1.76,-0.48 -2.31,-1.45 -0.55,-0.96 -0.82,-2.27 -0.82,-3.92 0,-0.78 0.07,-1.5 0.2,-2.17 0.13,-0.66 0.33,-1.23 0.59,-1.71 0.26,-0.47 0.58,-0.84 0.96,-1.09 0.38,-0.25 0.8,-0.38 1.26,-0.38 0.6,0 1.12,0.22 1.55,0.65 0.43,0.43 0.75,0.99 0.97,1.69 0.21,0.69 0.32,1.39 0.32,2.1 0,0.66 -0.11,1.09 -0.33,1.29 -0.22,0.19 -0.53,0.29 -0.94,0.29zm-3.02 -1.5l2.8 0c-0.04,-0.9 -0.18,-1.57 -0.43,-2.02 -0.25,-0.44 -0.57,-0.67 -0.97,-0.67 -0.39,0 -0.7,0.23 -0.95,0.68 -0.25,0.45 -0.4,1.12 -0.45,2.01zm8.57 -4.27l0.17 0 0 -1.58c0,-0.42 0.01,-0.76 0.02,-1 0.01,-0.24 0.05,-0.45 0.11,-0.62 0.06,-0.18 0.15,-0.33 0.26,-0.44 0.11,-0.11 0.24,-0.17 0.38,-0.17 0.19,0 0.37,0.13 0.53,0.38 0.11,0.17 0.17,0.37 0.2,0.62 0.03,0.24 0.04,0.58 0.04,1.03l0 1.79 0.57 0c0.22,0 0.39,0.09 0.5,0.26 0.12,0.18 0.17,0.41 0.17,0.68 0,0.36 -0.08,0.6 -0.25,0.74 -0.16,0.14 -0.4,0.21 -0.7,0.21l-0.29 0 0 4.84c0,0.41 0.01,0.73 0.03,0.95 0.02,0.22 0.06,0.4 0.13,0.54 0.08,0.14 0.19,0.21 0.36,0.21 0.09,0 0.21,-0.03 0.37,-0.08 0.15,-0.05 0.28,-0.08 0.36,-0.08 0.13,0 0.24,0.09 0.34,0.26 0.1,0.17 0.15,0.38 0.15,0.63 0,0.42 -0.14,0.75 -0.41,0.97 -0.27,0.23 -0.66,0.34 -1.17,0.34 -0.48,0 -0.85,-0.14 -1.09,-0.41 -0.25,-0.28 -0.41,-0.66 -0.49,-1.15 -0.08,-0.49 -0.12,-1.14 -0.12,-1.96l0 -5.05 -0.2 0c-0.22,0 -0.39,-0.09 -0.51,-0.27 -0.12,-0.18 -0.18,-0.41 -0.18,-0.68 0,-0.27 0.06,-0.5 0.18,-0.68 0.12,-0.17 0.3,-0.26 0.53,-0.26zm5.54 6.67l0 2.2c0,0.53 -0.07,0.93 -0.22,1.2 -0.15,0.27 -0.33,0.4 -0.56,0.4 -0.22,0 -0.41,-0.14 -0.55,-0.41 -0.14,-0.27 -0.21,-0.67 -0.21,-1.19l0 -7.33c0,-1.18 0.25,-1.77 0.75,-1.77 0.25,0 0.44,0.14 0.55,0.41 0.11,0.28 0.18,0.69 0.19,1.23 0.18,-0.54 0.37,-0.95 0.57,-1.23 0.19,-0.28 0.45,-0.41 0.78,-0.41 0.32,0 0.64,0.14 0.94,0.41 0.3,0.28 0.46,0.65 0.46,1.1 0,0.32 -0.06,0.59 -0.19,0.8 -0.13,0.21 -0.27,0.31 -0.42,0.31 -0.06,0 -0.19,-0.06 -0.41,-0.18 -0.22,-0.12 -0.41,-0.18 -0.57,-0.18 -0.23,0 -0.41,0.1 -0.55,0.3 -0.14,0.2 -0.25,0.5 -0.33,0.9 -0.08,0.4 -0.13,0.87 -0.16,1.42 -0.03,0.55 -0.04,1.22 -0.04,2.01zm7.15 2.32c-0.37,0.49 -0.73,0.86 -1.08,1.11 -0.35,0.25 -0.74,0.37 -1.17,0.37 -0.4,0 -0.74,-0.14 -1.04,-0.4 -0.3,-0.27 -0.53,-0.63 -0.69,-1.08 -0.16,-0.46 -0.24,-0.95 -0.24,-1.48 0,-0.72 0.13,-1.33 0.4,-1.84 0.27,-0.51 0.64,-0.85 1.1,-1.02 0.1,-0.04 0.34,-0.13 0.73,-0.26 0.39,-0.13 0.72,-0.26 1,-0.37 0.28,-0.11 0.58,-0.25 0.9,-0.41 -0.02,-0.69 -0.1,-1.2 -0.25,-1.53 -0.15,-0.33 -0.45,-0.49 -0.9,-0.49 -0.39,0 -0.69,0.09 -0.88,0.28 -0.2,0.18 -0.37,0.46 -0.51,0.84 -0.14,0.37 -0.24,0.62 -0.3,0.74 -0.06,0.12 -0.19,0.18 -0.38,0.18 -0.17,0 -0.32,-0.1 -0.45,-0.29 -0.13,-0.19 -0.19,-0.43 -0.19,-0.73 0,-0.46 0.1,-0.92 0.29,-1.35 0.19,-0.44 0.49,-0.8 0.9,-1.08 0.41,-0.28 0.91,-0.42 1.52,-0.42 0.68,0 1.21,0.14 1.6,0.41 0.39,0.27 0.66,0.7 0.82,1.3 0.16,0.59 0.24,1.38 0.24,2.35 0,0.62 -0,1.14 -0,1.57 -0,0.43 -0,0.91 -0.01,1.44 0,0.49 0.05,1.01 0.14,1.55 0.1,0.53 0.14,0.88 0.14,1.03 0,0.27 -0.07,0.52 -0.22,0.74 -0.15,0.22 -0.32,0.33 -0.51,0.33 -0.16,0 -0.31,-0.13 -0.47,-0.38 -0.15,-0.25 -0.32,-0.62 -0.49,-1.1zm-0.1 -3.82c-0.23,0.14 -0.55,0.29 -0.99,0.45 -0.43,0.16 -0.73,0.28 -0.89,0.35 -0.17,0.08 -0.32,0.22 -0.47,0.43 -0.15,0.22 -0.23,0.52 -0.23,0.91 0,0.4 0.09,0.74 0.27,1.02 0.18,0.28 0.41,0.42 0.69,0.42 0.3,0 0.59,-0.12 0.84,-0.34 0.26,-0.23 0.45,-0.52 0.57,-0.89 0.14,-0.4 0.21,-1.06 0.21,-1.97l0 -0.38zm8.04 1.86c0,0.72 -0.1,1.35 -0.31,1.86 -0.21,0.52 -0.51,0.91 -0.92,1.18 -0.41,0.27 -0.9,0.4 -1.48,0.4 -0.55,0 -1.03,-0.14 -1.42,-0.43 -0.4,-0.29 -0.69,-0.65 -0.88,-1.08 -0.19,-0.43 -0.28,-0.87 -0.28,-1.3 0,-0.29 0.06,-0.54 0.18,-0.74 0.12,-0.21 0.27,-0.31 0.46,-0.31 0.16,0 0.29,0.07 0.37,0.2 0.09,0.13 0.17,0.32 0.25,0.57 0.16,0.47 0.35,0.82 0.57,1.05 0.22,0.23 0.52,0.35 0.9,0.35 0.31,0 0.56,-0.12 0.76,-0.35 0.2,-0.23 0.3,-0.5 0.3,-0.81 0,-0.46 -0.1,-0.8 -0.31,-1.01 -0.21,-0.21 -0.54,-0.41 -1.01,-0.61 -0.53,-0.22 -0.96,-0.46 -1.3,-0.71 -0.33,-0.25 -0.6,-0.58 -0.8,-0.98 -0.2,-0.41 -0.3,-0.91 -0.3,-1.49 0,-0.53 0.09,-1.03 0.28,-1.5 0.19,-0.47 0.46,-0.84 0.82,-1.12 0.36,-0.28 0.79,-0.42 1.3,-0.42 0.4,0 0.76,0.07 1.07,0.21 0.32,0.14 0.58,0.33 0.8,0.57 0.21,0.24 0.38,0.5 0.49,0.79 0.11,0.29 0.17,0.57 0.17,0.85 0,0.3 -0.06,0.55 -0.18,0.74 -0.12,0.19 -0.29,0.29 -0.51,0.29 -0.16,0 -0.29,-0.08 -0.4,-0.23 -0.11,-0.15 -0.24,-0.39 -0.38,-0.69 -0.12,-0.26 -0.25,-0.46 -0.41,-0.62 -0.16,-0.15 -0.37,-0.23 -0.64,-0.23 -0.28,0 -0.51,0.1 -0.69,0.3 -0.18,0.2 -0.28,0.46 -0.28,0.76 0,0.28 0.07,0.5 0.2,0.68 0.14,0.18 0.32,0.33 0.55,0.44 0.23,0.12 0.55,0.26 0.95,0.42 0.48,0.2 0.87,0.44 1.17,0.71 0.3,0.28 0.53,0.6 0.69,0.98 0.16,0.38 0.24,0.8 0.24,1.29zm6.84 0.18c0,0.33 -0.06,0.68 -0.17,1.05 -0.11,0.37 -0.29,0.73 -0.52,1.06 -0.24,0.34 -0.53,0.61 -0.89,0.81 -0.36,0.21 -0.76,0.31 -1.21,0.31 -0.95,0 -1.7,-0.47 -2.23,-1.42 -0.54,-0.95 -0.8,-2.22 -0.8,-3.82 0,-1.08 0.12,-2.03 0.37,-2.86 0.24,-0.83 0.6,-1.47 1.06,-1.92 0.46,-0.45 1.02,-0.68 1.66,-0.68 0.4,0 0.77,0.1 1.1,0.3 0.33,0.2 0.61,0.46 0.85,0.77 0.23,0.32 0.41,0.65 0.53,1.01 0.12,0.36 0.19,0.69 0.19,1 0,0.32 -0.07,0.58 -0.21,0.8 -0.14,0.22 -0.3,0.33 -0.5,0.33 -0.13,0 -0.23,-0.06 -0.32,-0.17 -0.08,-0.11 -0.18,-0.29 -0.29,-0.54 -0.19,-0.49 -0.39,-0.86 -0.59,-1.1 -0.21,-0.24 -0.47,-0.37 -0.78,-0.37 -0.45,0 -0.82,0.3 -1.1,0.91 -0.28,0.61 -0.42,1.44 -0.42,2.49 0,0.49 0.04,0.95 0.11,1.36 0.07,0.41 0.17,0.77 0.31,1.06 0.13,0.29 0.3,0.51 0.49,0.67 0.19,0.15 0.4,0.23 0.63,0.23 0.31,0 0.57,-0.12 0.79,-0.37 0.22,-0.24 0.42,-0.62 0.59,-1.12 0.09,-0.3 0.19,-0.53 0.3,-0.69 0.11,-0.17 0.24,-0.25 0.4,-0.25 0.19,0 0.35,0.13 0.47,0.37 0.12,0.24 0.19,0.5 0.19,0.78zm2.88 -5.95l0 7.61c0,0.53 -0.07,0.93 -0.22,1.19 -0.15,0.27 -0.33,0.41 -0.56,0.41 -0.23,0 -0.41,-0.14 -0.55,-0.41 -0.14,-0.28 -0.21,-0.67 -0.21,-1.19l0 -7.53c0,-0.52 0.07,-0.92 0.21,-1.18 0.14,-0.26 0.32,-0.4 0.55,-0.4 0.23,0 0.41,0.13 0.56,0.4 0.15,0.26 0.22,0.63 0.22,1.1zm-0.76 -2.72c-0.21,0 -0.4,-0.11 -0.55,-0.34 -0.15,-0.22 -0.23,-0.54 -0.23,-0.95 0,-0.37 0.08,-0.67 0.23,-0.92 0.16,-0.24 0.34,-0.36 0.54,-0.36 0.2,0 0.38,0.11 0.53,0.33 0.15,0.22 0.23,0.54 0.23,0.95 0,0.41 -0.08,0.72 -0.23,0.95 -0.15,0.23 -0.33,0.34 -0.54,0.34zm6.66 7.23l-3.02 0c0,0.6 0.08,1.13 0.21,1.58 0.14,0.46 0.32,0.8 0.55,1.03 0.23,0.23 0.48,0.35 0.75,0.35 0.19,0 0.35,-0.04 0.51,-0.11 0.15,-0.07 0.3,-0.19 0.44,-0.35 0.14,-0.16 0.28,-0.33 0.4,-0.51 0.12,-0.18 0.28,-0.42 0.47,-0.73 0.08,-0.12 0.19,-0.17 0.34,-0.17 0.16,0 0.29,0.08 0.39,0.22 0.1,0.14 0.15,0.36 0.15,0.63 0,0.24 -0.06,0.51 -0.16,0.83 -0.11,0.32 -0.27,0.62 -0.5,0.91 -0.22,0.29 -0.5,0.54 -0.83,0.73 -0.33,0.19 -0.72,0.29 -1.15,0.29 -0.99,0 -1.76,-0.48 -2.31,-1.45 -0.55,-0.96 -0.82,-2.27 -0.82,-3.92 0,-0.78 0.07,-1.5 0.2,-2.17 0.13,-0.66 0.33,-1.23 0.59,-1.71 0.26,-0.47 0.58,-0.84 0.96,-1.09 0.38,-0.25 0.8,-0.38 1.26,-0.38 0.6,0 1.12,0.22 1.55,0.65 0.43,0.43 0.75,0.99 0.97,1.69 0.21,0.69 0.32,1.39 0.32,2.1 0,0.66 -0.11,1.09 -0.33,1.29 -0.22,0.19 -0.53,0.29 -0.94,0.29zm-3.02 -1.5l2.8 0c-0.04,-0.9 -0.18,-1.57 -0.43,-2.02 -0.25,-0.44 -0.57,-0.67 -0.97,-0.67 -0.39,0 -0.7,0.23 -0.95,0.68 -0.25,0.45 -0.4,1.12 -0.45,2.01zm6.99 -3.05l0 0.32c0.27,-0.61 0.57,-1.06 0.89,-1.35 0.32,-0.29 0.69,-0.43 1.11,-0.43 0.41,0 0.77,0.15 1.09,0.45 0.32,0.3 0.56,0.73 0.72,1.28 0.1,0.32 0.17,0.67 0.2,1.04 0.03,0.37 0.04,0.85 0.04,1.43l0 4.9c0,0.53 -0.07,0.93 -0.21,1.19 -0.14,0.27 -0.33,0.41 -0.55,0.41 -0.23,0 -0.42,-0.14 -0.56,-0.41 -0.14,-0.28 -0.21,-0.67 -0.21,-1.19l0 -4.39c0,-0.87 -0.07,-1.53 -0.21,-1.99 -0.14,-0.46 -0.42,-0.69 -0.84,-0.69 -0.27,0 -0.52,0.14 -0.75,0.42 -0.23,0.28 -0.39,0.66 -0.5,1.16 -0.08,0.39 -0.11,1.12 -0.11,2.2l0 3.3c0,0.53 -0.07,0.93 -0.22,1.2 -0.14,0.27 -0.33,0.4 -0.56,0.4 -0.22,0 -0.4,-0.14 -0.55,-0.41 -0.14,-0.28 -0.21,-0.67 -0.21,-1.19l0 -7.61c0,-0.5 0.06,-0.88 0.19,-1.12 0.13,-0.25 0.3,-0.37 0.52,-0.37 0.13,0 0.26,0.06 0.37,0.16 0.11,0.11 0.2,0.27 0.26,0.49 0.07,0.22 0.1,0.49 0.1,0.8zm9.81 7.75l0 -0.26c-0.21,0.4 -0.41,0.73 -0.61,0.99 -0.2,0.25 -0.42,0.45 -0.66,0.58 -0.24,0.13 -0.49,0.2 -0.77,0.2 -0.37,0 -0.71,-0.14 -1.02,-0.4 -0.31,-0.27 -0.59,-0.65 -0.82,-1.14 -0.23,-0.49 -0.4,-1.08 -0.52,-1.74 -0.12,-0.67 -0.18,-1.39 -0.18,-2.17 0,-1.65 0.24,-2.93 0.71,-3.85 0.47,-0.92 1.09,-1.38 1.86,-1.38 0.45,0 0.82,0.13 1.12,0.39 0.3,0.26 0.6,0.66 0.89,1.2l0 -3.89c0,-0.54 0.06,-0.95 0.19,-1.22 0.13,-0.28 0.31,-0.41 0.54,-0.41 0.23,0 0.41,0.13 0.54,0.38 0.13,0.25 0.19,0.63 0.19,1.12l0 11.61c0,0.5 -0.07,0.88 -0.2,1.13 -0.14,0.25 -0.31,0.38 -0.53,0.38 -0.21,0 -0.39,-0.13 -0.52,-0.39 -0.14,-0.26 -0.21,-0.63 -0.21,-1.11zm-3.03 -3.86c0,0.71 0.07,1.32 0.19,1.82 0.13,0.5 0.31,0.88 0.53,1.13 0.23,0.25 0.47,0.38 0.74,0.38 0.27,0 0.52,-0.12 0.74,-0.36 0.22,-0.24 0.4,-0.61 0.54,-1.11 0.13,-0.5 0.2,-1.12 0.2,-1.87 0,-0.7 -0.07,-1.3 -0.2,-1.8 -0.13,-0.51 -0.31,-0.89 -0.54,-1.16 -0.23,-0.27 -0.48,-0.4 -0.75,-0.4 -0.28,0 -0.53,0.13 -0.76,0.41 -0.22,0.27 -0.39,0.67 -0.52,1.18 -0.12,0.51 -0.18,1.11 -0.18,1.78zm10.34 0.67l-3.02 0c0,0.6 0.08,1.13 0.21,1.58 0.14,0.46 0.32,0.8 0.55,1.03 0.23,0.23 0.48,0.35 0.75,0.35 0.19,0 0.35,-0.04 0.51,-0.11 0.15,-0.07 0.3,-0.19 0.44,-0.35 0.14,-0.16 0.28,-0.33 0.4,-0.51 0.12,-0.18 0.28,-0.42 0.47,-0.73 0.08,-0.12 0.19,-0.17 0.34,-0.17 0.16,0 0.29,0.08 0.39,0.22 0.1,0.14 0.15,0.36 0.15,0.63 0,0.24 -0.06,0.51 -0.16,0.83 -0.11,0.32 -0.27,0.62 -0.5,0.91 -0.22,0.29 -0.5,0.54 -0.83,0.73 -0.33,0.19 -0.72,0.29 -1.15,0.29 -0.99,0 -1.76,-0.48 -2.31,-1.45 -0.55,-0.96 -0.82,-2.27 -0.82,-3.92 0,-0.78 0.07,-1.5 0.2,-2.17 0.13,-0.66 0.33,-1.23 0.59,-1.71 0.26,-0.47 0.58,-0.84 0.96,-1.09 0.38,-0.25 0.8,-0.38 1.26,-0.38 0.6,0 1.12,0.22 1.55,0.65 0.43,0.43 0.75,0.99 0.97,1.69 0.21,0.69 0.32,1.39 0.32,2.1 0,0.66 -0.11,1.09 -0.33,1.29 -0.22,0.19 -0.53,0.29 -0.94,0.29zm-3.02 -1.5l2.8 0c-0.04,-0.9 -0.18,-1.57 -0.43,-2.02 -0.25,-0.44 -0.57,-0.67 -0.97,-0.67 -0.39,0 -0.7,0.23 -0.95,0.68 -0.25,0.45 -0.4,1.12 -0.45,2.01zm6.99 -3.05l0 0.32c0.27,-0.61 0.57,-1.06 0.89,-1.35 0.32,-0.29 0.69,-0.43 1.11,-0.43 0.41,0 0.77,0.15 1.09,0.45 0.32,0.3 0.56,0.73 0.72,1.28 0.1,0.32 0.17,0.67 0.2,1.04 0.03,0.37 0.04,0.85 0.04,1.43l0 4.9c0,0.53 -0.07,0.93 -0.21,1.19 -0.14,0.27 -0.33,0.41 -0.55,0.41 -0.23,0 -0.42,-0.14 -0.56,-0.41 -0.14,-0.28 -0.21,-0.67 -0.21,-1.19l0 -4.39c0,-0.87 -0.07,-1.53 -0.21,-1.99 -0.14,-0.46 -0.42,-0.69 -0.84,-0.69 -0.27,0 -0.52,0.14 -0.75,0.42 -0.23,0.28 -0.39,0.66 -0.5,1.16 -0.08,0.39 -0.11,1.12 -0.11,2.2l0 3.3c0,0.53 -0.07,0.93 -0.22,1.2 -0.14,0.27 -0.33,0.4 -0.56,0.4 -0.22,0 -0.41,-0.14 -0.55,-0.41 -0.14,-0.28 -0.21,-0.67 -0.21,-1.19l0 -7.61c0,-0.5 0.06,-0.88 0.19,-1.12 0.13,-0.25 0.3,-0.37 0.52,-0.37 0.13,0 0.26,0.06 0.37,0.16 0.11,0.11 0.2,0.27 0.26,0.49 0.07,0.22 0.1,0.49 0.1,0.8z"/>
  </g>
  <path class="fil0" d="M37.7 29.46c-0.11,-0.3 -0.23,-0.59 -0.34,-0.93 -0.9,-2.82 -0.69,-3.3 1.64,-4.68 1.89,-1.12 4.87,-2.55 7.86,-2.22 -0.58,0.31 -1.94,0.39 -2.68,0.62 -2.64,0.84 -3.64,2.06 -6.4,3.54l0.38 4.56 -0.46 -0.89zm12.99 6.46l0.17 -0.42c0.17,-0.64 0.16,-1.04 -0.15,-1.45l-0.16 1.43c0.01,0.54 0.05,0.3 0.13,0.44zm3.52 1.12c0.48,-0.11 0.29,-1.06 0.21,-1.25l-0.28 -0.38 -0.19 1.19c0.13,0.8 0.04,0.21 0.25,0.45zm-34.04 -7.1c0.23,-0.5 0.98,-0.87 1.39,-1.35 1.61,-1.88 1.81,-3.28 3.67,-4.57 1.27,-0.88 5.78,-3.46 7.45,-3.82l-0.94 0.58c-0.3,0.16 -0.66,0.34 -0.95,0.49 -0.58,0.3 -1.26,0.69 -1.73,0.99 -4.54,2.81 -3.38,1.38 -6.06,5.07 -0.72,0.99 -1.48,2.32 -2.83,2.62zm22.24 -13.11c-4.67,-3.7 -3.7,-2.87 -8.43,-5.58l-0.37 -0.24c0.94,0.18 2.8,1.19 3.81,1.67 2.08,0.98 4.51,3.07 6.12,4.6 0.58,0.55 2.22,2.05 2.59,2.62l-3.73 -3.07zm-9.46 -0.03c-0.76,-0.26 -1.51,-0.74 -2.28,-1.12 -4.67,-2.3 -3.2,-1.14 -5.25,-4.59 -0.56,-0.95 -2.48,-2.21 -3.67,-2.9 -0.77,-0.44 -1.36,-0.75 -2.12,-1.18l-2.01 -1.17c1.19,0.34 3.29,1.48 4.52,2.12 1.45,0.75 2.94,1.81 3.68,2.87 1.6,2.3 0.39,2.24 2.94,3.6 0.71,0.38 3.41,1.68 4.01,2.19l0.17 0.17zm14.23 2.21l-0.4 -0.51c-0.95,-1.39 -3.13,-6.46 -4,-8.15 -1.8,-3.52 -4.66,-6.93 -5.14,-8.04 0.23,0.16 0.09,0.05 0.29,0.24 0.12,0.11 0.12,0.13 0.23,0.24l2.55 3.11c0.87,1.3 1.79,2.58 2.53,4l3.94 9.12zm-12.42 45.86c4.09,-0.25 4.13,-5.52 -0.78,-6.59 -4.28,-0.93 -10.52,-0.16 -14.34,-2.56 -6.89,-4.33 -2.39,-12.37 3.53,-13.03l-0.25 -0.9c0.45,1.98 2.42,2.03 2.9,3.14 -0.89,0.93 -3.86,1.87 -1.59,3.19 1.06,0.62 2.48,1.32 1.88,2.68 -0.28,0.64 -0.47,0.41 -0.9,0.83 0.11,0.58 0.35,1.14 1.12,0.95 0.64,-0.16 0.72,-0.8 0.92,-1.37 0.09,0.07 0.07,-0.04 0.25,0.31 0.23,0.42 0.33,1.04 0.28,1.49 -0.1,0.93 -0.67,0.65 -1.42,1 0.33,0.57 1.42,0.75 1.92,0.29 0.49,-0.46 0.38,-1.4 0.49,-2.17 0.48,0.49 0.3,0.65 0.62,1 0.26,-0.59 0.53,-0.77 0.49,-1.63 -0.03,-0.72 -0.47,-1.13 -0.84,-1.44 -0.82,-0.7 -1.62,-1.26 -2.08,-2.46 0.75,-0.55 1.81,-0.93 2.7,-1.32 1.01,-0.43 1.79,-1.03 1.82,-2.31 0.07,-2.81 -1.78,-3.75 -2.42,-5.67 0.53,0.52 1.1,0.97 1.62,1.66 0.25,0.33 0.49,0.61 0.7,1 0.16,0.3 0.35,0.88 0.65,1.12 2.2,-0.07 2.19,-0.21 3.65,-1.01 -0.31,0.74 -1.11,1.3 -1.05,2.33 0.07,1.32 2.58,1.12 3.22,3.77 0.11,0.45 0.06,1.78 -0.78,1.33 -0.24,-0.13 -0.2,-0.21 -0.31,-0.46l-0.26 1.24c1.8,1.43 2.56,-0.27 3.58,-0.85 -0.38,0.67 -0.79,0.9 -1.12,1.41 1.79,-0.61 2.66,-2.09 1.49,-2.96 -0.71,-0.53 -0.9,-0.39 -1.13,-1.56 -0.25,-1.32 -0.38,-1.07 -0.85,-1.99 1.27,-0.32 2.42,-1.25 3.18,-2.25l0.45 -0.54c-0.28,0.92 -1.06,1.58 -1.49,2.13 1.74,0.13 2.96,-0.78 3.5,-1.77 1.06,-1.96 -0.4,-4.68 1.53,-6.2 1.89,-1.47 4.22,-0.62 4.9,1.5l-0.94 -0.31c0.1,0.68 1.32,1.62 1.69,2.09 0.36,0.46 0.57,2.69 -0.61,1.69 -0.09,2.15 2.19,1.67 1.74,-0.66 0.21,0.22 0.04,-0.07 0.28,0.39 0.02,0.04 0.15,0.39 0.16,0.44 0.12,0.61 0.04,0.51 -0.4,0.67 0.36,0.3 0.43,0.55 0.57,0.98 0.01,0.03 0.02,0.08 0.04,0.12 3.46,-1.55 -0.27,-0.33 3.47,-3.7 0.56,-0.51 2.48,-3.47 2.71,-4.38 -1.13,0.36 -1.43,1.41 -2.44,1.75 -0.02,-2.52 0.97,-4.7 3.19,-5.77 0.41,-0.2 0.57,-0.27 0.78,-0.59 -2.92,1.13 -3.98,1.43 -5.53,3.63l-0.21 -0.42c-0.4,-1.04 -0.71,-2.1 -1.41,-2.98 -0.7,-0.88 -1.71,-1.89 -2.76,-2.37 0.89,1.12 2.03,2.47 2.35,4.34l-1.17 -1.29c-0.53,-0.62 -0.72,-0.73 -1.36,-1.21 -0.59,-0.45 -2.7,-1.42 -3.4,-1.6 1.7,1.73 3.89,2.57 4.81,5.1l-1.41 -1.53c-0.96,-0.9 -4.96,-2.95 -6.15,-2.29 1.17,0.54 0.88,0.17 1.62,1.04 -2.09,-0.44 -1.79,-0.09 -3.59,0.22l0.85 0.26c-2.63,0.71 -1.44,4.12 -2.83,5.67 0.23,-1.28 0.54,-1.65 0.27,-3.12 -0.65,-3.51 -1.54,-5.79 2.51,-7.4 1.87,-0.75 3.55,-1.23 5.72,-1.76 1.06,-0.26 2.09,-0.52 2.55,-1.19 0.53,-0.76 0.59,-1.93 0.07,-2.73 0.07,0.66 0.17,0.98 -0.22,1.45 -0.24,-0.94 -0.49,-2.57 -1.27,-3.04l0.3 1.39c-0.61,-0.67 -1.02,-1.79 -1.53,-2.61 -0.54,-0.86 -1.13,-1.6 -1.69,-2.43 -2.24,-3.28 -3.76,-7.84 -7.86,-10.89 -1.19,-0.88 -1.82,-2.58 -3.21,-3.19 0.39,3.3 0.09,3.45 -2.74,3.65 0.09,0.43 0.16,0.89 -0.22,1.3 -0.02,0.02 -0.05,0.05 -0.07,0.07l-0.32 0.27c2.55,1.63 3.01,1.25 5.62,4.22l-4.33 -2.93c-1.34,-0.79 -3.69,-1.76 -5.58,-1.94 0.42,0.61 1.67,1.69 0.54,2.33 -1.01,0.57 -2.32,-0.19 -3.05,-0.44 0.85,1.37 6.88,4.54 10.12,8.71 0.83,1.07 4.47,3.22 3.18,4.93 -1.44,1.91 -6.83,3.53 -5.96,7.52 0.54,2.46 3.48,3.49 4.71,5.52 0.42,0.7 0.55,2.17 0.17,2.96 -0.09,-3.11 -1.39,-3.89 -3.7,-5.56 -3.29,-2.38 -2.82,-4.7 -0.59,-7.5 2.07,-2.6 6.86,-2.89 3.02,-5.71 -0.48,-0.36 -0.85,-0.61 -1.27,-1.01 -1.97,-1.91 -3.93,-3.93 -6.31,-5.38 -0.95,-0.58 -1.99,-1.12 -2.87,-1.72 -0.94,-0.64 -1.89,-1.25 -2.93,-1.78 -3.55,-1.83 -9.64,-4.27 -14.65,-4.15l0.72 0.23c0.34,0.09 0.47,0.12 0.78,0.22 6.57,2.24 6.65,8.38 -3.61,8.17 -1.8,-0.04 -3.65,-0.01 -5.38,0.45 -0.27,0.07 -0.49,0.13 -0.78,0.22l-0.73 0.36c1.94,-0.1 3.98,-0.13 5.55,0.58 1.65,0.74 2.04,1.68 2.89,3.21l0.94 0.24c5.12,0.82 4.4,4.75 1.78,8.15 -0.52,0.68 -1.92,2.14 -2.19,2.84 1.36,-0.67 1.51,-1.12 3.41,-1.39 1.21,-0.17 3.43,-0.35 4.61,-0.15 2.74,0.47 1.59,2.8 0.1,3.96 -0.47,0.36 -1.21,0.69 -1.44,0.94 2.63,-0.04 4.11,-1.42 7.95,-0.93 1.83,0.24 5.22,1.76 6.12,3.23l-2.93 -1.71c-1.08,-0.49 -2.43,-0.89 -3.8,-0.98 1.01,1.28 3.66,2.14 1.43,4.68 -0.42,0.48 -0.78,0.89 -1.45,1.19 0.59,-1.08 0.98,-1.24 1.11,-2.81 -1.76,0.42 -4.4,1.97 -5.5,2.86 -1.47,1.19 -2.79,2.64 -3.96,4.44 -2.23,3.45 -3.5,8.75 -0.97,12.86 2.23,3.64 7.29,5.1 11.78,5.16 2.78,0.04 9.05,-0.57 10.23,2.48 0.22,0.57 0.2,1.22 -0.01,1.78 -0.08,0.2 -0.29,0.59 -0.34,0.65 -0.17,0.24 -0.1,0.13 -0.26,0.31l-0.21 0.23c-0.01,0.02 -0.05,0.05 -0.07,0.08z"/>
 </g>
</svg>
