<?xml version="1.0" encoding="UTF-8"?>
<!DOCTYPE svg PUBLIC "-//W3C//DTD SVG 1.1//EN" "http://www.w3.org/Graphics/SVG/1.1/DTD/svg11.dtd">
<!-- Creator: CorelDRAW -->
<svg xmlns="http://www.w3.org/2000/svg" xml:space="preserve" width="2.1184in" height="2.1184in" version="1.1" style="shape-rendering:geometricPrecision; text-rendering:geometricPrecision; image-rendering:optimizeQuality; fill-rule:evenodd; clip-rule:evenodd"
viewBox="0 0 384.39 384.39"
 xmlns:xlink="http://www.w3.org/1999/xlink"
 xmlns:xodm="http://www.corel.com/coreldraw/odm/2003">
 <defs>
  <style type="text/css">
   <![CDATA[
    .fil0 {fill:black}
   ]]>
  </style>
 </defs>
 <g id="Capa_x0020_1">
  <metadata id="CorelCorpID_0Corel-Layer"/>
  <path class="fil0" d="M111.74 0l160.9 0c61.46,0 111.74,50.28 111.74,111.74l0 160.9c0,61.46 -50.28,111.74 -111.74,111.74l-160.9 0c-61.46,0 -111.74,-50.28 -111.74,-111.74l0 -160.9c0,-61.46 50.28,-111.74 111.74,-111.74zm140.43 118.69c-7.29,0 -13.2,5.91 -13.2,13.21 0,7.29 5.91,13.2 13.2,13.2 7.29,0 13.22,-5.91 13.22,-13.2 0,-7.29 -5.93,-13.21 -13.22,-13.21zm-58.71 107.94c-19.59,0 -35.53,-15.94 -35.53,-35.53 0,-19.6 15.94,-35.54 35.53,-35.54 19.59,0 35.53,15.94 35.53,35.54 0,19.59 -15.94,35.53 -35.53,35.53zm0 -91c-30.59,0 -55.48,24.88 -55.48,55.48 0,30.58 24.88,55.48 55.48,55.48 30.59,0 55.48,-24.9 55.48,-55.48 0,-30.59 -24.89,-55.48 -55.48,-55.48zm-45.9 -35.98c-25.62,0 -46.46,20.85 -46.46,46.47l0 89.94c0,25.62 20.84,46.48 46.46,46.48l89.94 0c25.62,0 46.48,-20.85 46.48,-46.48l0 -89.94c0,-25.62 -20.85,-46.47 -46.48,-46.47l-89.94 0zm89.94 204.08l-89.94 0c-37.3,0 -67.67,-30.36 -67.67,-67.66l0 -89.94c0,-37.3 30.37,-67.66 67.67,-67.66l89.94 0c37.3,0 67.66,30.35 67.66,67.66l0 89.94c0,37.3 -30.35,67.66 -67.66,67.66z"/>
 </g>
</svg>
