<?xml version="1.0" encoding="UTF-8"?>
<!DOCTYPE svg PUBLIC "-//W3C//DTD SVG 1.1//EN" "http://www.w3.org/Graphics/SVG/1.1/DTD/svg11.dtd">
<!-- Creator: CorelDRAW -->
<svg xmlns="http://www.w3.org/2000/svg" xml:space="preserve" width="2.01937in" height="2.01937in" version="1.1" style="shape-rendering:geometricPrecision; text-rendering:geometricPrecision; image-rendering:optimizeQuality; fill-rule:evenodd; clip-rule:evenodd"
viewBox="0 0 1864.94 1864.94"
 xmlns:xlink="http://www.w3.org/1999/xlink"
 xmlns:xodm="http://www.corel.com/coreldraw/odm/2003">
 <defs>
  <style type="text/css">
   <![CDATA[
    .str0 {stroke:black;stroke-width:36.36;stroke-miterlimit:2.61313}
    .fil2 {fill:none}
    .fil1 {fill:black}
    .fil0 {fill:white}
   ]]>
  </style>
   <clipPath id="id0">
    <path d="M932.47 18.18c504.95,0 914.29,409.34 914.29,914.29 0,504.95 -409.34,914.29 -914.29,914.29 -504.95,0 -914.29,-409.34 -914.29,-914.29 0,-504.95 409.34,-914.29 914.29,-914.29z"/>
   </clipPath>
 </defs>
 <g id="Capa_x0020_1">
  <metadata id="CorelCorpID_0Corel-Layer"/>
  <path class="fil0" d="M932.47 18.18c504.95,0 914.29,409.34 914.29,914.29 0,504.95 -409.34,914.29 -914.29,914.29 -504.95,0 -914.29,-409.34 -914.29,-914.29 0,-504.95 409.34,-914.29 914.29,-914.29z"/>
  <g style="clip-path:url(#id0)">
   <g id="_2075863713408">
    <path id="_1" class="fil1" d="M1083.49 867.01c-2.36,-6.52 -4.74,-12.97 -7,-20.44 -18.76,-61.94 -14.24,-72.49 34.08,-102.78 39.13,-24.53 100.98,-56.02 162.85,-48.85 -12.1,6.75 -40.14,8.48 -55.46,13.62 -54.71,18.35 -75.51,45.34 -132.7,77.8l7.79 100.1 -9.54 -19.45zm269.23 141.99l3.6 -9.29c3.57,-14.12 3.34,-22.88 -3.01,-31.8l-3.29 31.37c0.12,11.97 1.09,6.56 2.7,9.73zm73.06 24.58c10.04,-2.45 6.12,-23.22 4.44,-27.54l-5.72 -8.39 -3.94 26.06c2.77,17.65 0.79,4.54 5.23,9.88zm-705.6 -155.94c4.82,-11.04 20.34,-19.11 28.86,-29.61 33.47,-41.27 37.62,-72.17 76.07,-100.51 26.26,-19.34 119.74,-76.01 154.42,-83.96l-19.54 12.7c-6.23,3.6 -13.71,7.42 -19.66,10.7 -11.97,6.6 -26.09,15.19 -35.94,21.67 -94.03,61.8 -70.12,30.32 -125.53,111.46 -14.9,21.82 -30.72,50.89 -58.68,57.55zm461.01 -288.11c-96.84,-81.27 -76.74,-63.16 -174.73,-122.6l-7.6 -5.3c19.5,4.02 58.01,26.26 79.04,36.72 43.16,21.47 93.47,67.47 126.78,101 12.07,12.15 45.93,45.07 53.78,57.65l-77.27 -67.47zm-196.04 -0.72c-15.78,-5.76 -31.39,-16.33 -47.19,-24.57 -96.88,-50.56 -66.41,-25 -108.81,-100.91 -11.64,-20.84 -51.49,-48.61 -76.16,-63.68 -15.97,-9.75 -28.09,-16.41 -43.86,-25.91l-41.75 -25.67c24.62,7.46 68.11,32.48 93.73,46.62 30.03,16.57 61.04,39.82 76.38,63.11 33.26,50.47 8.14,49.25 60.97,79.08 14.67,8.29 70.62,36.91 83.17,48.17l3.53 3.76zm294.93 48.61l-8.33 -11.29c-19.62,-30.58 -64.88,-141.87 -82.87,-179.09 -37.37,-77.37 -96.56,-152.19 -106.5,-176.76 4.8,3.41 1.89,1.21 6,5.29 2.45,2.42 2.58,2.75 4.68,5.19l52.9 68.4c18.01,28.55 37.15,56.73 52.51,87.91l81.6 200.35zm-257.49 1007.83c84.8,-5.59 85.53,-121.28 -16.25,-144.82 -88.72,-20.51 -218.09,-3.46 -297.33,-56.22 -142.76,-95.05 -49.51,-271.8 73.19,-286.4l-5.26 -19.82c9.34,43.49 50.23,44.56 60.14,69.09 -18.35,20.52 -80,41.01 -33.02,70.08 21.98,13.6 51.41,28.94 38.9,58.91 -5.84,13.98 -9.8,9.01 -18.56,18.23 2.35,12.65 7.24,25.11 23.24,20.82 13.31,-3.56 15.01,-17.6 19.12,-30.1 1.92,1.6 1.47,-0.79 5.23,6.73 4.68,9.34 6.85,22.78 5.79,32.72 -2.17,20.39 -13.92,14.39 -29.51,21.97 6.89,12.62 29.48,16.52 39.78,6.32 10.13,-10.04 7.78,-30.84 10.08,-47.69 9.97,10.8 6.13,14.39 12.89,21.97 5.39,-12.94 11.03,-16.99 10.21,-35.81 -0.69,-15.92 -9.7,-24.86 -17.32,-31.74 -17.1,-15.44 -33.6,-27.68 -43.17,-54.14 15.63,-12.18 37.61,-20.54 56.06,-28.91 20.93,-9.49 37.18,-22.65 37.8,-50.82 1.37,-61.8 -36.89,-82.3 -50.1,-124.49 10.93,11.34 22.79,21.33 33.6,36.48 5.1,7.16 10.17,13.31 14.54,21.92 3.37,6.62 7.35,19.27 13.57,24.67 45.63,-1.61 45.37,-4.61 75.73,-22.19 -6.35,16.35 -23.05,28.59 -21.85,51.26 1.53,29.06 53.54,24.61 66.85,82.78 2.27,9.91 1.17,39.15 -16.12,29.2 -4.93,-2.83 -4.17,-4.66 -6.52,-10.01l-5.29 27.28c37.22,31.47 53.1,-5.92 74.27,-18.61 -7.78,14.61 -16.47,19.81 -23.19,31.04 37.14,-13.3 55.18,-46.02 30.95,-65.01 -14.82,-11.62 -18.73,-8.5 -23.34,-34.34 -5.16,-28.91 -7.79,-23.46 -17.55,-43.65 26.34,-7.07 50.07,-27.51 65.98,-49.42l9.28 -11.87c-5.76,20.28 -21.94,34.8 -30.85,46.87 36.1,2.89 61.39,-17.06 72.54,-38.85 22.04,-43.03 -8.37,-102.91 31.73,-136.14 39.1,-32.4 87.44,-13.62 101.61,33.01l-19.39 -6.76c2.05,14.94 27.43,35.59 34.96,46.02 7.37,10.21 11.79,59.02 -12.57,37.23 -1.77,47.23 45.35,36.7 36.07,-14.58 4.45,4.82 0.84,-1.62 5.83,8.67 0.46,0.95 3.1,8.51 3.31,9.62 2.44,13.35 0.79,11.11 -8.32,14.76 7.39,6.68 8.84,12.05 11.91,21.49 0.2,0.64 0.4,1.8 0.91,2.54 71.69,-34.13 -5.51,-7.2 71.91,-81.22 11.71,-11.2 51.41,-76.31 56.24,-96.3 -23.33,7.95 -29.7,30.9 -50.58,38.55 -0.43,-55.41 20.16,-103.29 66.16,-126.87 8.42,-4.32 11.91,-5.86 16.08,-12.89 -60.51,24.77 -82.56,31.37 -114.62,79.83l-4.25 -9.21c-8.25,-22.8 -14.77,-46.11 -29.32,-65.45 -14.54,-19.31 -35.4,-41.45 -57.24,-51.97 18.5,24.52 42.01,54.26 48.63,95.32l-24.31 -28.41c-11.01,-13.68 -15.03,-16.05 -28.12,-26.57 -12.22,-9.81 -55.95,-31.17 -70.4,-35.26 35.29,37.93 80.57,56.41 99.64,112.03l-29.33 -33.63c-19.8,-19.78 -102.79,-64.73 -127.51,-50.4 24.17,11.97 18.26,3.7 33.53,22.92 -43.34,-9.72 -37.18,-1.97 -74.43,4.82l17.58 5.79c-54.6,15.54 -29.81,90.6 -58.68,124.61 4.8,-28.07 11.14,-36.28 5.52,-68.6 -13.39,-77.11 -31.85,-127.3 52.06,-162.69 38.86,-16.39 73.65,-27.01 118.49,-38.68 21.88,-5.69 43.37,-11.44 52.9,-26.05 10.95,-16.79 12.25,-42.32 1.47,-59.96 1.41,14.4 3.57,21.61 -4.52,31.84 -4.91,-20.67 -10.14,-56.44 -26.43,-66.84l6.18 30.44c-12.61,-14.76 -21.19,-39.34 -31.81,-57.31 -11.22,-18.97 -23.41,-35.2 -35.09,-53.35 -46.45,-72.19 -77.98,-172.3 -162.96,-239.27 -24.66,-19.44 -37.76,-56.72 -66.47,-70.1 8.16,72.44 1.85,75.9 -56.76,80.28 1.89,9.46 3.39,19.65 -4.61,28.65 -0.42,0.48 -1.09,1.08 -1.53,1.53l-6.6 5.9c52.8,35.92 62.33,27.57 116.51,92.78l-89.85 -64.44c-27.71,-17.33 -76.51,-38.57 -115.61,-42.59 8.72,13.49 34.63,37.21 11.1,51.19 -20.99,12.47 -48.14,-4.23 -63.21,-9.74 17.59,30.15 142.68,99.68 209.79,191.41 17.26,23.59 92.68,70.68 65.91,108.23 -29.93,41.98 -141.61,77.52 -123.54,165.14 11.16,54.11 72.2,76.58 97.71,121.25 8.73,15.29 11.39,47.7 3.42,64.97 -1.9,-68.27 -28.84,-85.44 -76.77,-122.14 -68.24,-52.25 -58.45,-103.37 -12.25,-164.88 42.89,-57.09 142.16,-63.51 62.63,-125.56 -10.04,-7.84 -17.7,-13.39 -26.32,-22.27 -40.82,-42.06 -81.42,-86.44 -130.86,-118.19 -19.74,-12.68 -41.22,-24.52 -59.52,-37.81 -19.41,-14.11 -39.17,-27.37 -60.68,-39.16 -73.5,-40.28 -199.77,-93.72 -303.67,-91.21l14.87 5.03c7.02,1.87 9.83,2.59 16.11,4.85 136.25,49.22 137.91,184.16 -74.83,179.43 -37.22,-0.83 -75.63,-0.27 -111.55,9.88 -5.66,1.6 -10.18,2.84 -16.24,4.89l-15.11 7.95c40.25,-2.27 82.47,-2.77 115.04,12.84 34.12,16.35 42.36,36.98 59.82,70.46l19.48 5.22c106.17,18.02 91.16,104.27 36.93,179.16 -10.87,15.01 -39.87,47.01 -45.45,62.39 28.15,-14.7 31.26,-24.53 70.69,-30.57 25.06,-3.84 71.08,-7.63 95.53,-3.22 56.88,10.25 32.95,61.62 1.97,87.01 -9.67,7.93 -25.08,15.09 -29.8,20.57 54.56,-0.99 85.28,-31.18 164.86,-20.34 37.92,5.17 108.14,38.68 126.87,70.98l-60.67 -37.49c-22.43,-10.86 -50.34,-19.64 -78.71,-21.64 20.85,28.11 75.94,46.98 29.64,102.8 -8.66,10.45 -16.23,19.62 -29.98,26.19 12.22,-23.8 20.41,-27.19 23.1,-61.73 -36.44,9.14 -91.27,43.33 -114.05,62.88 -30.54,26.2 -57.88,57.91 -82.01,97.51 -46.23,75.84 -72.57,192.36 -20.21,282.7 46.33,79.93 151.11,112.1 244.1,113.39 57.53,0.8 187.7,-12.5 211.99,54.4 4.54,12.51 4.13,26.87 -0.24,39.05 -1.56,4.34 -6.06,12.88 -6.96,14.23 -3.49,5.24 -1.99,2.75 -5.46,6.75l-4.42 4.97c-0.31,0.35 -1.01,1.1 -1.46,1.71z"/>
   </g>
  </g>
  <path class="fil2 str0" d="M932.47 18.18c504.95,0 914.29,409.34 914.29,914.29 0,504.95 -409.34,914.29 -914.29,914.29 -504.95,0 -914.29,-409.34 -914.29,-914.29 0,-504.95 409.34,-914.29 914.29,-914.29z"/>
 </g>
</svg>
