<?xml version="1.0" encoding="UTF-8"?>
<!DOCTYPE svg PUBLIC "-//W3C//DTD SVG 1.1//EN" "http://www.w3.org/Graphics/SVG/1.1/DTD/svg11.dtd">
<!-- Creator: CorelDRAW -->
<svg xmlns="http://www.w3.org/2000/svg" xml:space="preserve" width="1.00984in" height="1.00984in" version="1.1" style="shape-rendering:geometricPrecision; text-rendering:geometricPrecision; image-rendering:optimizeQuality; fill-rule:evenodd; clip-rule:evenodd"
viewBox="0 0 56.63 56.63"
 xmlns:xlink="http://www.w3.org/1999/xlink"
 xmlns:xodm="http://www.corel.com/coreldraw/odm/2003">
 <defs>
  <style type="text/css">
   <![CDATA[
    .str0 {stroke:black;stroke-width:0.55;stroke-miterlimit:22.9256}
    .fil2 {fill:none}
    .fil0 {fill:black}
    .fil1 {fill:black}
   ]]>
  </style>
   <clipPath id="id0">
    <path d="M0.28 0.28l56.08 0 0 56.08 -56.08 0 0 -56.08z"/>
   </clipPath>
 </defs>
 <g id="Capa_x0020_1">
  <metadata id="CorelCorpID_0Corel-Layer"/>
  <g>
  </g>
  <g style="clip-path:url(#id0)">
   <g id="_2074746791856">
    <g>
     <g>
      <path class="fil0" d="M26.74 52.04l-0.01 -1.05 -1.05 -0.01c-0.02,-0.07 -0.01,-0.92 -0.01,-1.05l3.17 -0 0 1.06 -1.05 0 -0 1.05 -1.06 -0zm-0 -6.33l3.17 -0 0 3.17 -3.16 -0c-0.02,-0.07 -0.01,-1.39 -0.01,-1.58 -0,-0.53 -0.01,-1.06 0,-1.59zm8.44 1.06l0 1.06 -1.05 -0c-0.02,-0.08 -0.01,-0.91 -0.01,-1.06l1.06 0zm-3.17 -0l1.06 0 0 1.06 -1.05 -0c-0.02,-0.08 -0.01,-0.91 -0.01,-1.06zm3.17 0l-0.01 -1.06 1.06 0 0 1.06 -1.06 -0zm-15.82 -4.22l-0 1.06 -1.05 -0 -0 1.06 2.11 -0c0.02,0.16 -0.02,0.99 0.01,1.05 0.06,0.04 2.79,-0.01 3.15,0.01 0.02,0.18 0,1.3 0,1.58 0,0.18 -0.02,1.53 0.01,1.58 0.05,0.03 0.89,0 1.04,0.01l0 1.05 -1.05 0 -0.01 1.05 1.06 -0 -0 1.06 2.11 -0c0.01,0.15 -0.02,0.99 0.01,1.04 0.06,0.03 1.84,-0.01 2.1,0.01 0.02,0.16 -0.02,0.98 0.01,1.04 0.04,0.02 1.87,0.01 2.1,0.01 0.15,0 2.01,0.01 2.11,-0l0 -1.05c-0.1,0.01 -0.88,0 -1.05,0 -0.35,-0 -0.71,0.01 -1.06,-0.01l-0 -1.05 1.05 -0 0 -1.05c-0.12,0.02 -2.02,-0 -2.11,-0.01l0 -1.05 1.05 -0 0 -1.05 5.27 -0 0 -1.05 1.06 0 -0.01 -2.11 1.06 0 -0.01 -2.1 -1.05 -0 -0 1.06 -3.16 -0c-0.02,-0.07 -0.01,-0.91 -0.01,-1.05l1.05 -0 0 -2.1c-0.1,0.01 -0.98,0.01 -1.04,-0.01 -0.01,-0.01 -0.01,-0.02 -0.01,-0.06l0 -0.2c0,-0.09 0,-0.17 0,-0.26 0,-0.28 -0.01,-1.39 0,-1.58l-1.05 -0 -0 4.22 -1.05 0 -0 2.11 -1.05 -0.01c-0.03,-0.1 0.01,-0.85 -0.01,-1.05l-1.04 -0.01c-0.04,-0.11 0.01,-0.85 -0.01,-1.05l-1.05 0 -0 1.05 -1.05 -0.01c-0.02,-0.09 -0.01,-0.66 -0.01,-0.79 0,-0.21 0.01,-2.26 -0,-2.37l-1.05 0 -0 3.16 -1.05 -0 0 2.11 -1.05 -0c-0.02,-0.07 -0.01,-0.42 -0.01,-0.52 0,-0.18 0,-0.35 0,-0.53 -0,-0.17 -0,-0.35 -0,-0.52 -0,-0.17 -0.01,-0.37 0,-0.53l-1.06 -0.01 0 -2.11 2.11 -0 0 -4.22 2.11 0 -0 1.05 2.11 0 -0 2.11 1.06 0c0.01,0.16 -0.02,0.98 0.01,1.04 0.03,0.02 0.94,0.02 1.04,0.01l0 -3.16c-0.11,0.01 -0.91,0 -1.06,-0.01l-0 -1.05 -2.1 -0.01c-0.02,-0.06 -0.01,-0.43 -0.01,-0.53 0,-0.15 0.01,-0.38 -0,-0.52 -0.09,-0.02 -0.29,-0 -0.4,-0.01 -0.13,0 -0.26,-0 -0.39,-0 -0.26,-0 -0.53,-0 -0.79,-0 -0.42,0 -1.2,0.02 -1.57,-0 -0.03,-0.1 0.01,-0.85 -0.01,-1.04 -0.13,-0.02 -0.39,-0 -0.53,-0.01 -0.17,-0 -0.35,-0 -0.52,-0 -0.18,0 -0.35,0 -0.53,0 -0.16,0 -0.36,-0.01 -0.52,0l-0 1.05 -2.11 -0c-0.03,-0.1 0.01,-0.85 -0.01,-1.05l-1.05 -0c0.02,0.26 -0.02,2.04 0.01,2.1 0.06,0.04 3.74,-0.02 4.21,0.01l-0 1.05 -2.11 0 -0 4.22 -1.05 -0.01c-0.02,-0.06 -0.01,-0.91 -0.01,-1.05 0,-0.25 0.01,-3.05 -0,-3.16l-1.05 0 -0 3.16 -1.05 -0z"/>
      <path class="fil0" d="M44.66 34.11l1.06 0 0 1.06 -1.05 -0c-0.02,-0.07 -0.01,-0.91 -0.01,-1.06zm4.22 1.06c-0.11,0.01 -0.91,0 -1.06,-0.01l-0 -1.04 -1.04 -0.01c-0.02,-0.07 -0.01,-3.03 -0.01,-3.16l1.06 0c0.02,0.16 -0.02,0.98 0.01,1.04 0.04,0.02 0.92,0.01 1.05,0.01l-0 3.17zm-3.15 -5.28c-0.02,-0.04 -0.01,-0.14 -0.01,-0.19 0,-0.07 0,-0.13 0,-0.2 0,-0.9 -0.01,-1.88 0,-2.77l3.17 0 -0 3.16c-0.25,0.01 -0.54,-0 -0.79,-0l-1.59 0c-0.16,0 -0.65,0.02 -0.77,-0.01zm4.21 -1.05c-0.02,-0.08 -0.01,-0.91 -0.01,-1.05l1.06 0 -0 1.06 -1.05 -0.01zm-5.28 -3.16l-0 3.17 -1.05 -0.01c-0.02,-0.06 -0.01,-0.44 -0.01,-0.53 0,-0.15 0.01,-0.38 -0,-0.52l-1.05 0 -0 2.11 -1.05 -0 0.01 2.11 1.05 0 -0 -1.06 1.05 -0 0 -1.05 1.06 0c0.03,0.28 -0.03,2.02 0.01,2.1 0.05,0.03 0.89,0 1.05,0.01l-0 1.05 -2.11 -0 -0 1.06 -1.05 0c-0.01,0.19 -0.01,2.06 0.01,2.09 0.06,0.03 1.84,-0.01 2.1,0.01 0.02,0.16 -0.02,0.98 0.01,1.04 0.05,0.03 0.89,0 1.04,0.01 0.01,0.16 -0.02,0.98 0.01,1.04 0.03,0.01 0.94,0.02 1.04,0.01l0 -1.05 1.06 0 0 3.16 1.05 0 -0 -3.16 1.06 0 -0 -1.05 -1.05 -0c-0.02,-0.07 -0.01,-0.94 -0,-1.05l1.06 -0 -0.01 -1.06 1.06 0 -0 -1.05 -1.05 -0c-0.04,-0.11 0.01,-0.86 -0.01,-1.05l-1.05 -0.01 -0 -1.06 1.05 0 0 -1.05 2.11 0 0 1.05 1.05 0 -0.01 -1.06 1.05 -0 0 -1.05 -2.1 -0.01c-0.02,-0.07 -0.01,-1.87 -0.01,-2.11 -0,-0.35 0,-0.7 -0,-1.05 -0,-0.17 0.01,-0.95 -0,-1.05l-1.05 -0.01 0 1.06 -3.16 -0c-0.03,-0.11 0.01,-0.85 -0.01,-1.05 -0.12,-0.02 -0.38,-0.01 -0.52,-0.01 -0.18,-0 -0.35,-0 -0.53,-0 -0.23,0 -0.87,-0.01 -1.05,0l-0 1.05 -1.06 -0z"/>
      <path class="fil0" d="M52.04 15.14l1.06 0 0 1.06 -1.05 -0c-0.02,-0.07 -0.01,-0.92 -0.01,-1.06zm-6.33 -1.05l1.06 0 -0 1.05c-0.17,0.01 -0.59,0 -0.8,0 -0.04,-0 -0.09,-0 -0.13,-0 -0.04,-0 -0.1,0.01 -0.12,-0.01 -0.03,-0.04 -0.01,-0.92 -0,-1.04zm0 0l-1.05 -0c-0.02,-0.07 -0.01,-0.43 -0.01,-0.52 0,-0.15 0.01,-0.39 -0,-0.53l-1.04 -0 -0 1.05 -1.05 0 -0 1.05 -1.05 -0c-0.03,-0.1 0.01,-0.85 -0.01,-1.05l-1.05 -0.01 -0 1.06 -1.05 -0 -0 3.16 1.05 -0 0 -2.11 1.06 0c0.01,0.1 0,1.44 0,1.58 0,0.18 -0.02,1.52 0.01,1.58 0.06,0.03 1.84,-0 2.1,0.01l-0 1.05 1.06 -0 -0.01 -1.06 1.05 -0 0 -1.05 -2.1 -0.01c-0.02,-0.06 -0.01,-1.9 -0.01,-2.11l4.22 0 -0 -1.06 2.11 0 -0 2.11 -1.05 -0 0 2.11 -1.06 -0 0 2.11 -2.11 -0c0.02,0.26 -0.02,2.04 0.01,2.1 0.03,0.02 0.94,0.02 1.04,0.01l0 -1.05 1.06 0c0.02,0.16 -0.02,0.99 0.01,1.04 0.03,0.01 0.94,0.02 1.04,0.01l0 -3.16 1.05 -0 0 -2.11 2.11 -0 0 -1.05 2.11 -0 0 -3.15 -2.1 -0.01c-0.03,-0.1 0.01,-0.86 -0.01,-1.05l-1.04 -0 -0 1.05 -2.11 -0c-0.02,-0.08 -0.01,-0.91 -0.01,-1.06l1.05 -0 0 -2.1 -1.05 -0 -0 1.05 -1.05 -0c-0.02,-0.06 -0.01,-0.43 -0.01,-0.52 0,-0.15 0.01,-0.38 -0,-0.53l-2.1 -0.01 -0 3.16z"/>
      <path class="fil0" d="M22.52 13.03l-0.01 -1.06 1.05 0 0 -1.05 1.06 -0 0 2.11 -2.11 -0zm4.21 -5.27l3.17 0 0 3.16 -3.16 -0c-0.03,-0.09 -0.01,-1.37 -0.01,-1.58 0,-0.53 -0.01,-1.06 0,-1.59zm5.28 1.06l0 1.06c-0.15,0.01 -0.95,0.02 -1.05,-0.01 -0.01,-0.01 -0.01,-0 -0.01,-0.02 -0,-0.01 -0,-0.02 -0,-0.03 -0,-0.02 0,-0.05 0,-0.07l0 -0.93 1.06 0zm-5.27 -5.27l0 2.1 2.11 0 0 1.06 -4.22 -0c-0.01,0.12 -0.01,1 0.01,1.04 0.05,0.02 0.89,0 1.04,0.01l0 3.16c-0.13,0.01 -0.93,0.01 -1.06,-0.01l-0 -2.1 -1.05 -0 -0 1.05 -1.05 -0c-0.03,-0.11 0.01,-0.85 -0.01,-1.05l-1.04 -0 -0 1.05 -1.06 -0c0.01,0.15 -0.02,0.99 0.01,1.04 0.05,0.03 0.9,0 1.04,0.01l0 1.05 -1.05 0 -0.01 1.05 2.11 -0 -0 1.06 1.06 -0 -0 1.06 1.06 -0 -0.01 -1.06 1.06 0 -0.01 -2.11 3.17 -0 0 1.05 1.05 0.01 -0.01 -1.06 1.05 -0 0 -1.05 2.11 0c0.02,0.16 -0.02,0.98 0.01,1.05 0.03,0.02 0.94,0.02 1.04,0.01l0 -2.1 -1.05 -0c-0.02,-0.06 -0.01,-0.43 -0.01,-0.52 0,-0.15 0.01,-0.39 -0,-0.53l-1.05 -0.01 -0.01 -1.06 1.05 0 0 -1.05 2.11 0 -0 -2.11 -1.05 -0 0 1.06 -1 -0c-0.03,-0 -0.05,-0 -0.06,-0.01 -0.03,-0.04 -0.01,-0.92 -0,-1.04l-1.05 -0c-0.03,-0.1 0.01,-0.85 -0.01,-1.05 -0.15,-0.02 -1,0.02 -1.04,-0.01 -0.01,-0.01 -0.01,-0 -0.01,-0.02 -0,-0.01 -0,-0.02 -0,-0.03 -0.02,-0.22 0.02,-0.78 -0,-0.99l-1.04 -0 -0 2.11 -1.05 -0c-0.03,-0.1 0.01,-0.86 -0.01,-1.05l-2.1 -0.01z"/>
      <path class="fil0" d="M47.83 50.98l-0.01 -1.06 1.06 0 0 1.06 -1.06 -0zm-2.11 -5.27l3.17 0 0 3.17 -3.16 -0c-0.02,-0.09 -0.01,-0.64 -0.01,-0.78 0,-0.26 0,-0.53 0,-0.79 -0,-0.53 -0.01,-1.06 0,-1.59zm5.27 -2.11c-0.11,0.01 -2.02,-0 -2.11,-0.01l0 -1.05 2.11 0 -0 1.05zm2.11 -2.11c-0.1,0.01 -1.03,0.01 -1.05,-0.01 -0.01,-0.01 -0.01,0 -0.01,-0.03l0 -1.02 1.06 0 -0 1.05zm-4.22 -1.06l-0 1.06 -1.05 0 -0 3.16 -3.16 0 -0 1.05 -1.05 -0c0.01,0.15 -0.02,0.99 0.01,1.04 0.05,0.03 0.9,0 1.04,0.01l-0 3.16 2.11 0 0 1.05 1.05 0c0.01,0.15 -0.02,0.99 0.01,1.04 0.06,0.03 1.84,-0 2.1,0.01l-0 1.05 1.06 0 0 1.05 3.15 -0 -0 -1.05 -2.1 -0c-0.02,-0.07 -0.01,-0.43 -0.01,-0.53 0,-0.21 0.01,-1.48 -0,-1.57l-1.04 -0.01c-0.02,-0.05 -0.01,-3.84 -0.01,-4.22l1.06 0 -0.01 -1.05 -2.1 -0.01c-0.02,-0.07 -0.01,-0.91 -0.01,-1.05l1.05 -0 0 -1.05 1.06 0c0.01,0.16 -0.02,0.99 0.01,1.04 0.02,0.01 1.93,0.02 2.09,0.01l-0 -1.05 -1.04 -0.01c-0.02,-0.07 -0.01,-0.91 -0.01,-1.05l1.05 -0 -0 -3.15c-0.1,-0.01 -0.29,-0 -0.4,-0.01 -0.13,0 -0.26,-0 -0.39,-0l-1.59 0c-0.09,0 -0.76,0.02 -0.78,-0.01 -0,-0 -0,-0.01 -0,-0.01 -0.01,-0.04 -0.01,-0.37 -0.01,-0.51 0,-0.17 -0,-0.35 0,-0.53l1.05 -0 0 -1.05 -2.11 -0 -0 3.17 -1.05 -0z"/>
      <path class="fil0" d="M10.92 41.49l-1.05 -0 -0 1.06c-0.2,0.01 -0.57,0 -0.8,-0 -0.04,-0 -0.23,0.01 -0.25,-0.02 -0.03,-0.04 -0.01,-0.92 -0,-1.04l-1.05 -0c-0.02,-0.06 -0.01,-0.94 -0.01,-1.05l-1.05 -0c-0.02,-0.06 -0.01,-0.43 -0.01,-0.53 0,-0.14 0.01,-0.38 -0,-0.52l-1.05 0 -0 1.05 -1.05 -0.01c-0.02,-0.06 -0.01,-0.43 -0.01,-0.53 0,-0.15 0.01,-0.38 -0,-0.52l-1.04 -0.01c-0.02,-0.06 -0.01,-0.92 -0.01,-1.05l5.28 0 -0 -1.05c-0.13,0.02 -0.39,0 -0.53,0 -0.49,-0 -1.12,0.01 -1.58,-0.01l-0 -1.05 -1.05 0 -0 1.05 -2.1 -0.01c-0.02,-0.07 -0.01,-1.89 -0.01,-2.11l7.38 -0 -0 -1.04c-0.1,-0.02 -3.06,-0.01 -3.16,-0.01 -0.53,0 -1.06,0 -1.59,0 -0.51,0 -1.07,0.02 -1.57,-0 -0.03,-0.1 0.01,-0.85 -0.01,-1.05l-1.05 0 -0 1.05 -1.05 0c-0.02,0.24 -0,0.54 -0,0.79 0,0.79 -0.01,5.5 0.01,5.52 0.06,0.03 0.89,0 1.05,0.01l-0 4.22 -1.05 0 0 1.05 3.15 -0 0 -1.05 1.05 0 -0 -1.05 -2.1 -0.01c-0.02,-0.08 -0.01,-0.91 -0.01,-1.05l3.17 0c0.02,0.16 -0.02,0.98 0.01,1.04 0.04,0.02 1.88,0.01 2.1,0.01 0.16,0 2,0.01 2.11,-0l-0 -1.05 -1.05 -0.01c-0.02,-0.07 -0.01,-0.94 -0.01,-1.05z"/>
      <path class="fil0" d="M7.76 29.89c-0.02,-0.07 -0.01,-3.03 -0.01,-3.16l3.17 0 -0 3.16 -3.16 -0zm5.27 -2.1l1.06 0 -0 1.06 -1.05 -0.01c-0.02,-0.07 -0.01,-0.93 -0.01,-1.05zm0 0c-0.13,0.02 -0.38,0 -0.53,0 -0.18,-0 -0.35,0 -0.53,-0.01l0 -1.05 1.06 0 -0 1.05zm-6.32 -2.11l-0 2.11 -1.05 -0 -0 1.06 -1.05 -0c0.01,0.15 -0.02,0.99 0.01,1.04 0.05,0.03 0.89,0 1.04,0.01 0.02,0.27 -0.02,2.03 0.01,2.1 0.03,0.01 0.94,0.02 1.04,0.01l0 -1.05 1.06 0 0 2.1 4.22 0 -0.01 -1.05 -3.16 -0.01c-0.03,-0.08 -0.01,-0.91 -0.01,-1.06l3.16 -0 0 -1.05 2.11 0c0.02,0.19 0,1.29 0,1.58 0,0.18 -0.02,1.53 0.01,1.58 0.03,0.02 0.94,0.02 1.04,0.01l0 -5.27 1.06 0 -0 -1.05c-0.13,0.02 -0.39,0 -0.53,0 -0.25,-0 -1.52,0.01 -1.58,-0.02l0.01 -1.04 -2.1 -0c-0.02,-0.07 -0.01,-0.93 -0,-1.05l-2.11 -0 -0 1.06 -1.05 -0.01c-0.02,-0.07 -0.01,-0.93 -0.01,-1.05l-1.05 0 -0 1.05 -1.06 -0z"/>
      <path class="fil0" d="M33.06 17.25l2.11 0 -0 1.06 -1.05 0 -0 1.05c-0.12,0.01 -0.98,0.01 -1.05,-0.01 -0.02,-0.06 -0.02,-1.92 -0.01,-2.1zm0 0l-1.05 -0c-0.02,-0.06 -0.01,-0.92 -0.01,-1.05l1.06 0 -0 1.05zm2.11 -2.11l-0 1.06 -1.05 -0.01c-0.02,-0.08 -0.01,-0.91 -0.01,-1.05l1.06 0zm-2.11 -1.05l-0 1.06 -2.11 -0c0.02,0.37 -0.02,3.09 0.01,3.15 0.05,0.03 0.89,0 1.04,0.01l-0 1.05 1.06 -0c0,0.13 -0.02,1 0.01,1.05 0.01,0.01 1.94,0.02 2.09,0.01l0 -1.05 1.06 -0c0,0.23 -0.02,2.05 0.01,2.1 0.06,0.03 0.89,0 1.04,0.01 0.02,0.27 -0.02,2.03 0.01,2.1 0.05,0.02 0.9,0 1.04,0.01l-0 -3.16c-0.12,0.01 -0.9,0 -1.06,-0.01l-0 -1.04c-0.17,-0.03 -0.78,0.02 -1.05,-0.01l-0 -2.11 1.06 0c0.02,0.16 -0.02,0.99 0.01,1.04 0.05,0.03 0.9,0 1.04,0.01l-0.01 -2.1c-0.1,-0.01 -0.62,-0 -0.8,-0.01 -0.05,-0 -0.22,0.01 -0.25,-0.02 -0.02,-0.04 -0.01,-0.93 -0.01,-1.04l-2.11 -0 -0 -1.06 2.11 0 -0.01 -1.05c-0.07,-0.01 -0.66,-0.01 -0.79,-0.01l-1.59 0c-0.24,0 -0.54,-0.01 -0.78,0l-0 1.05 -1.05 -0z"/>
      <path class="fil0" d="M8.81 11.97l3.17 0 -0 1.05 -3.16 -0c0.01,0.15 -0.02,0.99 0.01,1.04 0.05,0.03 0.9,0 1.04,0.01l-0 1.05 1.06 -0 0 2.11 -2.11 0 -0.01 1.05 1.06 -0 -0 1.06 1.05 -0 0 -1.05 2.11 -0 0 -1.05 1.06 -0 0 2.11 -1.05 0 -0 1.05 3.16 0 0 -1.05 -1.06 -0 -0 -2.1c-0.12,-0.02 -0.39,-0 -0.53,-0 -0.17,-0 -0.36,0.01 -0.52,-0.01l-0.01 -2.1 -1.05 -0 -0 1.05 -1.05 -0c-0.02,-0.07 -0.01,-1.89 -0.01,-2.11l1.05 -0 0 -1.05 1.05 -0 0 -1.05c-0.06,0.01 -1.03,0.02 -1.05,-0.01l-0.01 -0.52c0,-0.17 0,-0.35 0,-0.52 0,-0.23 -0.01,-0.87 0,-1.05l-1.05 -0c-0.02,-0.06 -0.01,-0.94 -0.01,-1.05l-1.05 0 -0 2.11 -2.11 0 -0.01 1.05z"/>
      <path class="fil0" d="M34.12 3.54l1.06 0 -0 1.05 2.11 -0 -0 1.06 1.05 -0 0 -1.05 1.06 0c0.03,0.28 -0.03,2.03 0.01,2.1 0.05,0.03 1.84,-0.01 2.1,0.01l-0 2.11 1.06 -0c0.01,0.16 -0.02,0.99 0.01,1.05 0.03,0.02 0.94,0.02 1.04,0.01l0 -2.1 -1.05 -0.01c-0.02,-0.07 -0.01,-3.04 -0.01,-3.16l1.06 0c0.02,0.27 -0.02,2.03 0.01,2.1 0.03,0.01 0.94,0.02 1.04,0.01l0 -1.05 1.05 0 0 -3.16 -1.05 -0 -0 1.05 -3.16 -0c-0.03,-0.11 0.01,-0.85 -0.01,-1.05l-2.1 -0 -0 1.05 -3.16 -0c-0.02,-0.06 -0.01,-0.43 -0.01,-0.52 0,-0.15 0.01,-0.39 -0,-0.53 -0.1,-0.02 -1.36,-0 -1.57,-0 -0.16,0 -0.37,-0.01 -0.53,0l-0.01 1.05z"/>
      <path class="fil0" d="M13.03 37.28l-0 -1.06 1.06 0 -0 1.06 -1.05 -0zm-4.22 0l4.22 -0 0 1.06 -1.05 0 -0 1.05 -1.06 -0 -0 2.11 1.05 -0 0 -1.05 1.06 0.01 0 1.05 1.05 0 -0.01 -2.11 1.05 0 0 -2.11 1.05 0 0 -1.05 2.11 -0 0 -1.05 -2.11 -0 0 -1.05 -1.05 0 -0 1.05 -1.05 -0.01c-0.02,-0.06 -0.01,-0.44 -0.01,-0.53 0,-0.15 0.01,-0.38 -0,-0.52l-1.04 -0.01c-0.03,-0.1 0.01,-0.85 -0.01,-1.05l-1.05 -0 -0 3.16 -3.16 0 -0 1.05z"/>
      <path class="fil0" d="M47.87 3.59c0.2,-0.01 0.44,-0 0.64,-0 0.21,0 0.43,0 0.64,0l3.8 0c0.04,0 0.08,-0 0.09,0.02l0.01 0.3c0,0.11 0,0.21 0,0.32l0 1.94c0,0.43 0,0.86 0,1.29 0,0.43 0.01,0.87 -0,1.29 -0.05,0.02 -2.32,0 -2.58,0 -0.86,-0 -1.73,0.01 -2.59,-0l-0 -5.16zm6.27 6.27l0 -7.37c-0.13,-0.02 -6.21,-0.01 -6.92,-0 -0.14,0 -0.32,-0.01 -0.46,0 -0.02,0.28 -0,0.62 -0,0.91 0,0.92 -0.01,6.44 0.01,6.46 0.02,0.02 5.53,0.01 6.45,0.01 0.17,0 0.81,0.01 0.92,-0z"/>
      <path class="fil0" d="M3.59 47.87c0.2,-0.01 0.45,-0 0.65,-0l4.2 0c0.05,0 0.11,0 0.16,0l0.14 0.01c0.03,0.01 0.02,0.03 0.03,0.04l-0.01 5.11c-0.02,0.02 -0.04,0.01 -0.07,0.01 -0.03,-0 -0.05,-0 -0.08,-0l-2.42 -0c-0.86,0 -1.73,0.01 -2.59,-0l0 -5.16zm-1.1 6.27l7.37 -0 -0 -7.37c-0.13,-0.02 -5.23,-0.01 -5.54,-0.01 -0.31,0 -0.62,-0 -0.92,0 -0.2,0 -0.76,-0.01 -0.91,0l0 7.37z"/>
      <path class="fil0" d="M3.59 3.59c0.18,-0.01 5.1,-0 5.13,0 0.04,0.01 0.04,0.02 0.04,0.05 0,0.01 0,0.03 0,0.04l0 0.56c0,1.45 0.01,2.91 0,4.36 -0,0.03 0,0.05 -0,0.08l-0.01 0.05c-0.01,0.03 -0.03,0.02 -0.05,0.03l-2.53 -0.01c-0.86,0 -1.74,0.02 -2.59,-0l0 -5.16zm-1.1 6.27l7.37 0 0 -7.37c-0.08,-0.01 -0.77,-0.01 -0.91,-0.01l-6 0c-0.14,0 -0.32,-0.01 -0.46,0l-0 7.37z"/>
      <path class="fil0" d="M43.61 41.49c-0.09,0.01 -0.99,0.01 -1.04,-0.01 -0.04,-0.02 -0.01,-1.03 -0.01,-1.05l1.06 0 -0 1.06zm0 0l1.06 -0 -0.01 -2.1 -1.04 -0.01c-0.04,-0.11 0.01,-0.85 -0.01,-1.05l-1.04 -0.01c-0.03,-0.09 0.01,-0.86 -0.01,-1.05l-1.05 -0 -0 1.06 -1.05 0 -0 2.11 -1.05 0c-0.01,0.17 -0,0.36 -0,0.53 0,0.53 -0.01,3.66 0.01,3.67 0.03,0.02 0.94,0.02 1.04,0.01l0 -1.05 3.16 -0 0 -2.11z"/>
      <path class="fil0" d="M6.7 20.41l1.06 0 -0 1.06 -1.05 -0c0.02,0.26 -0.02,2.04 0.01,2.1 0.03,0.01 0.94,0.02 1.04,0.01l0 -1.05 3.17 -0 0 1.05 1.05 0.01 -0.01 -1.06 1.06 0 -0.01 -1.05c-0.12,-0.02 -0.38,-0 -0.52,-0.01 -0.18,-0 -0.35,-0 -0.53,-0l-2.11 0c-0.34,0 -0.71,0.01 -1.05,-0 -0.02,-0.08 -0.01,-0.91 -0.01,-1.05l1.05 -0 0 -1.05 -1.06 -0.01 0 -1.05 -1.05 -0c-0.01,-0.34 -0.01,-0.7 -0.01,-1.05 -0,-0.35 -0.01,-0.71 0,-1.06l2.11 -0 0 -1.05c-0.13,0.02 -0.39,0 -0.53,0 -0.18,-0 -0.35,-0 -0.53,-0 -0.35,0 -0.7,0.01 -1.05,-0.01l-0 -1.04 -1.05 -0c0.03,0.47 -0.03,4.14 0.01,4.21 0.04,0.02 0.92,0.01 1.05,0.01l0 1.06 -1.05 0 -0.01 1.05z"/>
      <path class="fil0" d="M16.19 34.11l2.11 -0 -0 1.06 1.06 -0c0.01,0.15 -0.02,0.99 0.01,1.04 0.05,0.03 0.9,0 1.04,0.01l-0.01 -7.38 -1.05 0 -0 1.05 -1.05 -0.01c-0.03,-0.1 0.01,-0.85 -0.01,-1.05l-1.05 -0 0 1.06 -1.05 0c-0.01,0.19 -0.01,2.06 0.01,2.1 0.03,0.01 0.94,0.02 1.04,0.01l0 -1.05 1.06 0 0 2.11 -2.11 0 -0.01 1.05z"/>
      <path class="fil0" d="M40.45 47.82c-0.02,-0.08 -0.01,-0.91 -0.01,-1.05l1.06 0 -0 1.06 -1.05 -0.01zm-2.11 -2.11c0.01,0.15 -0.02,0.99 0.01,1.04 0.05,0.03 0.9,0 1.05,0.01l-0 1.05 -2.11 -0 -0 2.11 1.05 -0 0 -1.05 1.06 0 -0 2.11 1.05 -0 0 -2.11 2.11 0 -0 -3.17 1.06 0 -0.01 -1.05c-0.08,-0.01 -1.96,-0.01 -2.1,-0l-0 1.05 -3.16 -0z"/>
      <path class="fil0" d="M11.97 8.81l1.06 -0 -0 1.06 1.06 -0 -0.01 -1.06 1.06 0 -0.01 -1.06 1.05 0 0 -1.05 1.05 -0 0 -1.05c-0.11,0.01 -2.02,-0 -2.11,-0.01l-0 -1.04 -1.05 -0.01 0 1.06 -2.11 0 -0 1.05 -1.05 0c-0.01,0.12 -0.01,1 0.01,1.04 0.06,0.03 0.89,0 1.04,0.01l-0 1.05z"/>
      <path class="fil0" d="M15.14 46.76l-0.01 -1.06 1.06 0 0 1.06 -1.06 -0zm0 0c0.01,0.15 -0.02,0.99 0.01,1.04 0.05,0.03 1.84,-0 2.1,0.01l-0 1.05 1.06 0c0.01,0.16 -0.02,0.99 0.01,1.04 0.06,0.03 1.84,-0 2.1,0.01l-0 -1.05 -1.05 -0.01c-0.03,-0.11 0.01,-0.85 -0.01,-1.05l-1.04 -0.01c-0.04,-0.11 0.01,-0.85 -0.01,-1.05 -0.15,-0.02 -0.99,0.02 -1.04,-0.01 -0.04,-0.02 -0.01,-1.03 -0.01,-1.05l1.05 -0 0 -1.05 -1.06 -0.01 0 -1.05 -1.05 -0 -0 1.06 -1.05 -0.01c-0.02,-0.07 -0.01,-0.93 -0,-1.05l-1.05 -0 0.01 3.16 1.05 0z"/>
      <path class="fil0" d="M21.46 52.04l1.06 0 -0 1.06 -1.05 -0.01c-0.02,-0.07 -0.01,-0.93 -0,-1.05zm-1.05 -2.11c0.01,0.15 -0.02,0.99 0.01,1.04 0.05,0.03 0.9,0 1.05,0.01l-0 1.05 -1.05 0c-0.01,0.18 -0.01,2.07 0.01,2.09 0.05,0.03 1.87,0.01 2.1,0.01 0.18,0 1.98,0.01 2.11,-0l0 -2.1c-0.13,0.02 -0.38,0 -0.53,0l-0.4 -0c-0.02,-0 -0.05,0 -0.07,-0 -0.01,-0 -0.02,-0 -0.03,-0 -0.03,-0.01 0,0.01 -0.02,-0.01 -0.03,-0.04 -0.01,-0.92 -0.01,-1.04 -0.09,0.01 -0.99,0.01 -1.04,-0.01l-0.01 -0.02c-0.03,-0.07 0.01,0.05 -0.01,-0.02l-0 -0.1c0,-0.3 0.01,-1.86 -0,-1.97l-1.05 0 -0 1.05 -1.05 -0z"/>
      <path class="fil0" d="M23.57 18.3l3.16 -0c0.01,0.16 -0.02,0.99 0.01,1.05 0.05,0.03 1.84,-0 2.1,0.01 0.01,0.16 -0.02,0.98 0.01,1.04 0.02,0.01 0.97,0.02 1.04,0.01l0 -3.16 -1.05 -0 -0 1.05 -1.05 -0c-0.03,-0.1 0.01,-0.85 -0.01,-1.05 -0.09,-0.01 -0.28,-0.01 -0.39,-0.01l-2.73 -0c-0.06,-0.01 -0.02,0 -0.04,-0.01 -0.03,-0.05 -0.01,-0.92 -0,-1.04l-1.05 -0c-0.02,-0.06 -0.02,-0.94 -0.01,-1.05l-1.05 -0c0.01,0.26 -0.02,2.04 0.01,2.1 0.05,0.03 0.89,0 1.05,0.01l-0 1.05z"/>
      <path class="fil0" d="M19.36 4.59c0.01,0.26 -0.02,2.03 0.01,2.1 0.06,0.03 0.89,0 1.04,0.01l-0 1.05 2.11 -0 0 -1.05 1.05 0 0 -2.11 -1.05 -0c-0.02,-0.06 -0.01,-0.94 -0.01,-1.05l-1.05 -0 0 1.06 -2.11 -0z"/>
      <path class="fil0" d="M36.23 38.33l1.06 -0 -0 -3.16 2.11 0 -0.01 -2.1 -1.04 -0.01c-0.03,-0.1 0.01,-0.86 -0.01,-1.05l-1.04 -0.01c-0.04,-0.12 0.01,-0.85 -0.01,-1.05l-1.04 0c-0.01,0.18 -0.01,2.07 0.01,2.09 0.06,0.03 0.89,0 1.05,0.01l-0 1.06 -1.05 0 -0 4.21z"/>
      <path class="fil0" d="M38.34 23.57c0.01,0.15 -0.02,0.99 0.01,1.04 0.05,0.03 0.9,0 1.04,0.01l-0 1.05 2.11 -0 0 -1.05 -1.05 -0.01c-0.03,-0.09 -0.01,-0.9 -0.01,-1.06l2.11 0 -0.01 -1.05 -1.05 -0.01c-0.02,-0.07 -0.01,-1.32 -0.01,-1.57 0,-0.14 0.02,-0.39 -0,-0.53 -0.1,-0.02 -1.85,0.01 -2.1,-0.01l-0 3.17 -1.05 -0z"/>
      <path class="fil0" d="M18.3 14.08l1.06 0 -0 1.05 1.06 0 -0 1.06 -1.05 -0 -0 1.06 1.06 0 -0 1.05 1.06 -0 -0 1.06 2.11 -0 -0 -1.05c-0.12,0.02 -2.07,0.01 -2.1,-0 -0.03,-0.07 -0.01,-0.66 -0.01,-0.79 -0,-0.78 -0.01,-1.6 0,-2.37l1.06 0 -0 -1.05 -2.1 -0c-0.02,-0.08 -0.01,-0.92 -0,-1.05l-2.1 0 -0 1.05z"/>
      <path class="fil0" d="M4.6 48.88c-0.02,0.25 0,3.14 0.01,3.15 0.02,0.02 1.42,0.01 1.58,0.01l1.57 -0 -0 -3.15c-0.1,-0.02 -2.18,-0.01 -2.37,-0 -0.24,0 -0.55,-0.02 -0.78,0z"/>
      <path class="fil0" d="M4.6 4.6c-0.02,0.25 0,3.14 0.01,3.15 0.02,0.02 1.42,0.01 1.58,0.01l1.57 -0 -0 -3.15c-0.1,-0.02 -2.18,-0.01 -2.37,-0 -0.24,0 -0.55,-0.02 -0.78,0z"/>
      <path class="fil0" d="M52.04 7.75l0 -3.15c-0.1,-0.01 -0.28,-0 -0.39,-0 -0.13,-0 -0.26,-0 -0.39,-0l-1.98 0c-0.12,0 -0.28,-0.01 -0.4,0 -0.02,0.25 0,3.14 0.01,3.15 0.01,0.01 2.36,0.01 2.75,0.01 0.12,0 0.28,0.01 0.4,-0z"/>
      <path class="fil0" d="M50.99 34.11l-0 1.06 2.11 -0 0 1.06 -1.05 0 -0.01 1.05 1.06 -0c0.01,0.16 -0.02,0.99 0.01,1.05 0.03,0.02 0.94,0.02 1.04,0.01l0 -5.26 -1.05 -0 -0 1.05 -2.11 -0z"/>
      <polygon class="fil0" points="14.08,25.68 16.19,25.68 16.19,26.73 18.3,26.73 18.3,25.68 19.36,25.68 19.35,24.63 14.09,24.63 "/>
      <path class="fil0" d="M37.28 14.08l-0 1.06 2.11 -0 -0.01 -1.05 1.06 0 -0.01 -1.06 2.11 -0 0 -1.05c-0.07,-0.01 -0.66,-0.01 -0.78,-0.01 -0.77,-0 -1.63,0.02 -2.38,-0l-0 1.06 -1.05 0 -0 1.05 -1.05 -0z"/>
      <path class="fil0" d="M33.06 38.33l1.06 -0 -0 1.06 1.06 -0 -0 2.11 1.05 -0 0 -1.05 1.06 0 -0 -1.05c-0.12,0.01 -0.61,0 -0.79,0 -0.04,-0 -0.09,-0 -0.13,-0 -0.02,0 -0.05,0 -0.07,-0 -0.03,-0 -0.04,-0 -0.06,-0.01 -0.03,-0.04 -0.01,-0.92 -0.01,-1.04 -0.12,0.02 -2.07,0 -2.1,-0 -0.05,-0.1 0.02,-1.8 -0.02,-2.1l-1.05 0 -0 2.1z"/>
      <path class="fil0" d="M27.79 14.08l-0 1.06 3.17 -0 -0.01 -1.05 2.11 0 -0.01 -1.05c-0.09,-0.02 -0.29,-0 -0.4,-0.01 -0.13,-0 -0.26,-0 -0.39,-0 -0.26,-0 -0.53,-0 -0.79,-0 -0.52,-0 -1.06,0.02 -1.58,-0l0 1.06 -2.11 -0z"/>
      <path class="fil0" d="M6.7 14.08l-0 -1.05c-0.14,0.02 -0.38,0 -0.53,0 -0.18,-0 -0.35,-0 -0.53,-0.01l0 -1.05 1.06 0 -0.01 -1.05c-0.08,-0.01 -1.96,-0.01 -2.1,-0 -0.01,0.16 -0,0.35 -0,0.52 0,0.53 -0.01,3.67 0.01,3.68 0.03,0.01 0.94,0.02 1.04,0.01l0 -1.05 1.06 0z"/>
      <path class="fil0" d="M10.93 44.66c-0.01,0.21 -0,0.45 -0,0.66l0 2.31c0,0.2 -0.05,0.19 0.14,0.19 0.22,-0 0.43,-0 0.65,-0 0.23,0 1.16,0.01 1.31,-0l-0 -3.15c-0.12,-0.02 -0.39,-0 -0.53,-0.01 -0.17,-0 -0.35,-0 -0.52,-0 -0.21,0 -0.89,-0.01 -1.05,0z"/>
      <path class="fil0" d="M16.19 42.55l1.06 -0 -0.01 -1.05 1.06 0 -0 1.06 1.06 -0 -0.01 -2.1 -1.05 -0.01c-0.03,-0.1 0.01,-0.86 -0.01,-1.05l-1.04 -0 -0 1.05 -1.05 0 -0 2.11z"/>
      <polygon class="fil0" points="37.28,26.73 37.28,28.85 36.23,28.85 36.23,29.89 38.33,29.89 38.33,27.78 39.39,27.79 39.39,25.68 38.34,25.68 38.34,26.74 "/>
      <path class="fil0" d="M36.23 53.09l1.06 -0 -0 -3.16 -2.1 0c-0.01,0.19 -0.01,2.06 0.01,2.09 0.05,0.03 0.9,0 1.05,0.01l-0 1.05z"/>
      <path class="fil0" d="M6.7 21.46l-0 -1.05 -1.06 -0 -0 -2.1c-0.1,-0.02 -1.36,-0 -1.57,-0 -0.16,0 -0.37,-0.01 -0.53,0 -0.01,0.11 -0.01,1 0.01,1.04 0.05,0.03 0.89,0 1.04,0.01 0.02,0.27 -0.02,2.03 0.01,2.1 0.05,0.03 1.85,-0 2.1,0.01z"/>
      <path class="fil0" d="M39.39 11.97l-0.01 -1.05 -1.05 -0.01c-0.02,-0.06 -0.02,-0.95 -0.01,-1.05l-1.05 -0 0 1.06 -2.11 0 -0 1.05 4.22 0.01z"/>
      <path class="fil0" d="M22.52 3.54l1.06 0 -0 1.05 2.11 -0 0 -1.05 -1.06 -0 -0 -1.05c-0.08,-0.01 -1.97,-0.01 -2.1,-0l-0.01 1.05z"/>
      <path class="fil0" d="M13.03 49.93c0.02,0.26 -0.02,2.04 0.01,2.1 0.02,0.01 1.93,0.02 2.1,0.01l-0 -2.1 -2.1 -0z"/>
      <path class="fil0" d="M39.39 27.79c0.01,0.15 -0.02,0.99 0.01,1.04 0.05,0.03 0.9,0 1.05,0.01l-0 1.05 1.06 -0 -0.01 -3.16 -1.05 -0 -0 1.05 -1.06 -0z"/>
      <path class="fil0" d="M3.54 28.84l1.06 -0 -0.01 -1.06 1.06 0 -0.01 -1.05 -1.05 -0.01c-0.02,-0.07 -0.01,-0.94 -0.01,-1.05l-1.05 -0 -0 3.16z"/>
      <path class="fil0" d="M32.01 50.98l1.06 0 -0 2.11 1.05 -0 -0 -3.15c-0.09,-0.01 -0.89,-0.01 -1.05,-0.01 -0.2,0 -0.91,-0.01 -1.05,0l-0 1.05z"/>
      <polygon class="fil0" points="14.09,9.87 14.08,11.98 15.14,11.97 15.13,10.92 16.19,10.92 16.19,8.82 15.14,8.81 15.14,9.87 "/>
      <path class="fil0" d="M53.1 20.41l0 1.06 -1.05 0c-0.01,0.11 -0.01,1 0.01,1.04 0.06,0.03 0.89,0 1.04,0.01 0.01,0.16 -0.02,0.98 0.01,1.04 0.03,0.02 0.94,0.02 1.04,0.01l0 -3.15 -1.05 -0.01z"/>
      <path class="fil0" d="M4.59 25.68l2.11 -0 -0.01 -1.05 -1.05 -0.01c-0.02,-0.08 -0.01,-1.32 -0.01,-1.58 0,-0.15 0.01,-0.38 -0,-0.53l-1.04 -0 -0.01 3.16z"/>
      <path class="fil0" d="M3.54 28.84l-1.05 0 -0 3.15 2.1 0 0 -1.05 -1.05 -0.01c-0.01,-0.04 -0.02,-1.94 -0.01,-2.11z"/>
      <path class="fil0" d="M50.99 24.63l-0.01 -3.16 -1.05 -0c-0.02,0.26 -0,3.13 0.01,3.15 0.05,0.02 0.9,0 1.04,0.01z"/>
      <path class="fil0" d="M43.61 52.04l2.11 -0 -0.01 -1.05c-0.15,-0.02 -0.99,0.02 -1.04,-0.01l-0.01 -0.02c-0.02,-0.07 0.01,0.05 -0.01,-0.02l-0 -0.49c-0,-0.16 -0.01,-0.37 0,-0.52l-1.05 -0 -0 2.11z"/>
      <path class="fil0" d="M52.04 46.76c0.01,0.15 -0.02,0.99 0.01,1.04 0.02,0.01 1.93,0.02 2.1,0.01l-0 -2.1 -1.05 0 -0 1.05 -1.05 -0z"/>
      <polygon class="fil0" points="18.3,15.14 18.3,14.08 15.14,14.08 15.14,15.13 "/>
      <path class="fil0" d="M3.54 15.13l0 -3.15 -1.05 -0c-0.01,0.19 -0,0.81 -0,1.05 0,0.18 -0.01,2.08 0.01,2.1 0.01,0.01 0.94,0.02 1.04,0.01z"/>
      <path class="fil0" d="M14.09 4.59l-0 -1.05 -1.05 -0c-0.03,-0.1 0.01,-0.85 -0.01,-1.05l-1.04 -0 -0 2.1 2.11 0.01z"/>
      <path class="fil0" d="M41.5 37.28l-0.01 -1.05 -1.05 -0.01c-0.02,-0.09 -0.01,-0.92 -0,-1.05l-1.05 -0 0.01 2.11 2.1 0z"/>
      <polygon class="fil0" points="39.4,54.14 41.5,54.14 41.49,52.04 40.45,52.04 40.44,53.09 39.39,53.1 "/>
      <polygon class="fil0" points="6.7,13.03 8.81,13.03 8.81,11.97 6.7,11.97 "/>
      <polygon class="fil0" points="38.33,20.41 39.39,20.41 39.39,18.3 38.34,18.3 "/>
      <polygon class="fil0" points="8.81,39.39 10.92,39.38 10.92,38.33 8.81,38.33 "/>
      <path class="fil0" d="M14.08 22.52l2.11 -0 0 -1.05c-0.08,-0.01 -1.97,-0.01 -2.1,-0l-0.01 1.05z"/>
      <path class="fil0" d="M43.61 52.04l-1.05 0c-0.01,0.18 -0.01,2.06 0.01,2.09 0.03,0.02 0.94,0.02 1.04,0.01l0 -2.1z"/>
      <polygon class="fil0" points="37.28,8.81 38.34,8.81 38.33,6.71 37.28,6.7 "/>
      <path class="fil0" d="M11.97 49.93l-1.05 0c-0.01,0.18 -0.01,2.07 0.01,2.09 0.03,0.02 0.94,0.02 1.04,0.01l0 -2.1z"/>
      <path class="fil0" d="M19.35 38.33l0 -1.04c-0.1,-0.02 -1.36,-0.01 -1.57,-0 -0.16,0 -0.37,-0.01 -0.53,0 -0.02,0.24 -0,0.54 -0,0.78 0,0.06 0,0.13 -0,0.19 -0,0.1 0.01,0.08 0.12,0.08l1.2 -0c0.14,0 0.7,0.01 0.79,-0z"/>
      <path class="fil0" d="M20.41 22.51l0 -1.04c-0.09,-0.01 -0.89,-0.01 -1.05,-0.01 -0.17,0 -0.35,0 -0.52,0 -0.16,0 -0.37,-0.01 -0.53,0 -0.02,0.29 0,0.66 -0,0.97 -0,0.1 0.01,0.08 0.12,0.08l1.59 0c0.12,0 0.28,0.01 0.4,-0z"/>
      <path class="fil0" d="M53.1 20.41l-0 -1.05c-0.08,-0.01 -1.95,-0.01 -2.1,-0l-0 1.04 2.11 0.01z"/>
      <path class="fil0" d="M22.51 47.82l0 -1.04c-0.12,-0.02 -0.39,-0 -0.52,-0.01 -0.27,-0 -1.41,-0.01 -1.58,0 -0.02,0.28 0,0.67 -0,0.97 -0,0.1 0.01,0.08 0.12,0.08 0.13,-0 0.27,-0 0.4,-0l1.58 -0z"/>
      <path class="fil0" d="M23.57 19.35c0.01,0.15 -0.02,0.99 0.01,1.04 0.02,0.01 1.93,0.02 2.09,0.01l0 -1.04 -2.1 -0.01z"/>
      <path class="fil0" d="M15.14 11.97c0.01,0.15 -0.02,0.99 0.01,1.04 0.02,0.01 1.94,0.02 2.09,0.01l0 -1.04 -2.1 -0.01z"/>
      <polygon class="fil0" points="44.66,10.92 45.72,10.92 45.71,8.82 44.67,8.82 "/>
      <polygon class="fil0" points="16.19,19.35 18.3,19.35 18.3,18.3 16.2,18.31 "/>
      <polygon class="fil0" points="34.12,9.87 35.17,9.86 35.17,7.76 34.12,7.76 "/>
      <polygon class="fil0" points="47.83,19.35 47.82,17.25 46.77,17.25 46.77,19.35 "/>
      <polygon class="fil0" points="45.71,41.49 46.77,41.49 46.77,39.39 45.72,39.39 "/>
      <polygon class="fil0" points="40.44,35.17 41.5,35.16 41.49,33.06 40.45,33.06 "/>
      <polygon class="fil0" points="3.54,25.68 3.54,23.58 2.49,23.57 2.49,25.67 "/>
      <path class="fil0" d="M3.54 22.51l0 -2.1 -1.05 -0c-0.01,0.24 -0,0.53 -0,0.78l-0 1.29c0,0.04 0.01,0.04 0.06,0.04l0.99 -0z"/>
      <polygon class="fil0" points="18.3,3.54 18.3,2.49 16.2,2.49 16.2,3.54 "/>
      <polygon class="fil0" points="17.25,43.6 18.3,43.6 18.3,42.55 17.25,42.55 "/>
      <polygon class="fil0" points="15.14,43.6 16.19,43.6 16.19,42.55 15.14,42.55 "/>
      <polygon class="fil0" points="25.68,15.14 26.74,15.14 26.74,14.08 25.68,14.08 "/>
      <path class="fil0" d="M45.72 42.55l-0 -1.05 -1.05 -0c0.01,0.15 -0.02,0.99 0.01,1.04 0.05,0.03 0.9,0 1.04,0.01z"/>
      <path class="fil0" d="M20.41 19.35l-0 -1.05 -1.05 -0c0.01,0.15 -0.02,0.99 0.01,1.04 0.05,0.03 0.89,0 1.04,0.01z"/>
      <path class="fil0" d="M19.36 16.19l-0 -1.05 -1.05 -0c0.01,0.15 -0.02,0.99 0.01,1.04 0.05,0.03 0.9,0 1.04,0.01z"/>
      <path class="fil0" d="M19.35 26.73l-1.05 -0c0.01,0.15 -0.02,0.99 0.01,1.04 0.03,0.02 0.93,0.02 1.04,0.01l0 -1.05z"/>
      <path class="fil0" d="M21.46 19.36l-1.05 -0c0.01,0.16 -0.02,0.98 0.01,1.04 0.03,0.02 0.94,0.02 1.04,0.01l0 -1.05z"/>
      <path class="fil0" d="M41.5 8.81l-1.05 -0c0.01,0.15 -0.02,0.99 0.01,1.04 0.03,0.02 0.94,0.02 1.04,0.01l0 -1.05z"/>
      <path class="fil0" d="M37.28 9.87l-0 -1.05 -1.05 0c-0.01,0.11 -0.01,1 0.01,1.04 0.05,0.03 0.89,0 1.04,0.01z"/>
      <path class="fil0" d="M18.3 53.09l-1.05 -0c0.01,0.15 -0.02,0.99 0.01,1.04 0.03,0.01 0.94,0.02 1.04,0.01l0 -1.05z"/>
      <path class="fil0" d="M36.23 53.09l-1.05 0c-0.01,0.12 -0.01,1 0.01,1.04 0.03,0.02 0.94,0.02 1.04,0.01l0 -1.05z"/>
      <path class="fil0" d="M49.93 53.09l-1.05 0c-0.01,0.11 -0.01,1 0.01,1.04 0.03,0.02 0.94,0.02 1.04,0.01l0 -1.05z"/>
      <path class="fil0" d="M14.09 43.6l-0 -1.05 -1.05 0c-0.01,0.11 -0.01,1.01 0.01,1.04 0.05,0.02 0.9,0 1.04,0.01z"/>
      <polygon class="fil0" points="33.06,4.6 34.12,4.59 34.12,3.54 33.07,3.54 "/>
      <polygon class="fil0" points="7.76,40.44 8.81,40.44 8.81,39.39 7.76,39.39 "/>
      <polygon class="fil0" points="14.08,42.55 15.14,42.55 15.13,41.5 14.09,41.49 "/>
      <polygon class="fil0" points="38.33,9.87 39.38,9.86 39.39,8.81 38.34,8.81 "/>
      <polygon class="fil0" points="18.3,18.3 19.36,18.3 19.35,17.25 18.31,17.25 "/>
      <polygon class="fil0" points="13.03,23.57 14.08,23.57 14.08,22.52 13.03,22.52 "/>
      <polygon class="fil0" points="42.55,49.93 43.61,49.93 43.6,48.88 42.55,48.87 "/>
      <path class="fil0" d="M32.01 19.35l-1.05 0c-0.01,0.12 -0.01,1 0.01,1.04 0.03,0.02 0.94,0.02 1.04,0.01l0 -1.05z"/>
      <polygon class="fil0" points="32.01,39.39 33.06,39.38 33.06,38.33 32.01,38.34 "/>
      <polygon class="fil0" points="49.93,36.22 50.98,36.22 50.99,35.17 49.94,35.17 "/>
      <polygon class="fil0" points="24.63,16.19 25.68,16.19 25.68,15.14 24.63,15.14 "/>
      <polygon class="fil0" points="36.23,6.7 37.28,6.7 37.28,5.65 36.23,5.65 "/>
      <polygon class="fil0" points="35.17,7.76 36.22,7.76 36.23,6.7 35.17,6.7 "/>
      <polygon class="fil0" points="47.82,17.25 48.88,17.25 48.87,16.2 47.83,16.19 "/>
      <path class="fil0" d="M17.25 48.87l-1.05 0c-0.01,0.11 -0.01,1 0.01,1.04 0.03,0.02 0.94,0.02 1.04,0.01l0 -1.05z"/>
      <polygon class="fil0" points="11.97,24.63 13.02,24.62 13.03,23.57 11.98,23.57 "/>
      <polygon class="fil0" points="8.81,41.49 9.87,41.49 9.86,40.44 8.81,40.44 "/>
      <path class="fil0" d="M42.55 49.93l-1.05 0c-0.01,0.11 -0.01,1 0.01,1.04 0.03,0.02 0.94,0.02 1.04,0.01l0 -1.05z"/>
      <path class="fil0" d="M27.79 39.39l-1.05 0c-0.01,0.11 -0.01,1.01 0.01,1.04 0.03,0.02 0.94,0.02 1.04,0.01l0 -1.05z"/>
      <path class="fil0" d="M45.72 21.46l-0.01 -1.05 -1.05 -0c0.01,0.15 -0.02,0.99 0.01,1.04 0.05,0.03 0.9,0 1.04,0.01z"/>
      <path class="fil0" d="M27.79 15.14l-1.05 -0c0.01,0.15 -0.02,1 0.01,1.04 0.02,0.01 0.94,0.02 1.04,0.01l0 -1.05z"/>
      <path class="fil0" d="M43.61 33.06l-0.01 -1.05 -1.05 -0c0.01,0.15 -0.02,0.99 0.01,1.04 0.05,0.03 0.9,0 1.04,0.01z"/>
      <path class="fil0" d="M43.61 24.63l-0 -1.05 -1.05 -0.01c0.01,0.15 -0.02,0.99 0.01,1.04 0.05,0.03 0.9,0 1.04,0.01z"/>
      <path class="fil0" d="M17.25 28.84l-0.01 -1.05 -1.05 -0c0.01,0.15 -0.02,0.99 0.01,1.04 0.05,0.03 0.9,0 1.04,0.01z"/>
      <polygon class="fil0" points="18.3,4.6 19.36,4.59 19.35,3.55 18.3,3.54 "/>
      <path class="fil0" d="M45.71 53.09l-1.05 0c-0.01,0.11 -0.01,1 0.01,1.04 0.03,0.02 0.94,0.02 1.04,0.01l0 -1.05z"/>
      <path class="fil0" d="M29.9 41.49l-1.05 0c-0.01,0.11 -0.01,1.01 0.01,1.04 0.03,0.01 0.94,0.02 1.04,0.01l0 -1.05z"/>
      <path class="fil0" d="M43.61 20.41l-1.05 0c-0.01,0.11 -0.01,1.01 0.01,1.04 0.03,0.01 0.94,0.02 1.04,0.01l0 -1.05z"/>
      <path class="fil0" d="M44.66 25.68l-0.01 -1.05 -1.05 -0.01c0.01,0.15 -0.02,0.99 0.01,1.04 0.04,0.02 0.91,0 1.04,0.01z"/>
      <path class="fil0" d="M44.66 10.92l-1.05 0c-0.01,0.11 -0.01,1.01 0.01,1.04 0.03,0.01 0.94,0.02 1.04,0.01l0 -1.05z"/>
      <path class="fil0" d="M53.1 30.95c0.01,0.15 -0.02,0.99 0.01,1.04 0.04,0.02 0.93,0.02 1.04,0.01l0 -1.04 -1.05 -0.01z"/>
      <path class="fil0" d="M37.28 53.09c0.01,0.15 -0.02,0.99 0.01,1.04 0.03,0.01 0.94,0.02 1.04,0.01l-0 -1.05 -1.05 -0z"/>
      <path class="fil0" d="M39.39 50.98l-1.05 0c-0.01,0.11 -0.01,1.01 0.01,1.04 0.02,0.01 0.95,0.02 1.04,0.01l0 -1.05z"/>
      <path class="fil0" d="M37.28 40.44c0.01,0.15 -0.02,0.99 0.01,1.04 0.04,0.02 0.93,0.02 1.04,0.01l-0 -1.05 -1.05 -0z"/>
      <path class="fil0" d="M45.72 42.55c0.01,0.15 -0.02,0.99 0.01,1.04 0.03,0.02 0.94,0.02 1.04,0.01l-0 -1.05 -1.05 -0z"/>
      <path class="fil0" d="M21.47 3.54l-0 -1.05 -1.05 -0c-0.01,0.11 -0.01,1.01 0.01,1.04 0.05,0.03 0.9,0 1.04,0.01z"/>
      <polygon class="fil0" points="19.35,26.73 20.41,26.73 20.41,25.68 19.36,25.68 "/>
      <polygon class="fil0" points="17.25,52.04 18.3,52.04 18.3,50.99 17.25,50.99 "/>
      <polygon class="fil0" points="37.28,39.39 38.33,39.38 38.33,38.33 37.28,38.33 "/>
      <polygon class="fil0" points="39.39,8.81 40.45,8.81 40.44,7.76 39.39,7.76 "/>
      <polygon class="fil0" points="11.97,49.93 13.03,49.93 13.02,48.88 11.98,48.88 "/>
      <polygon class="fil0" points="45.71,53.09 46.77,53.09 46.76,52.04 45.72,52.04 "/>
      <polygon class="fil0" points="24.63,44.66 25.68,44.66 25.68,43.61 24.63,43.61 "/>
      <polygon class="fil0" points="18.3,53.09 19.35,53.09 19.35,52.04 18.3,52.04 "/>
      <polygon class="fil0" points="26.74,14.08 27.79,14.08 27.79,13.03 26.74,13.03 "/>
      <polygon class="fil0" points="17.25,5.65 18.3,5.65 18.3,4.6 17.25,4.6 "/>
      <polygon class="fil0" points="25.68,3.54 26.74,3.54 26.73,2.49 25.69,2.49 "/>
      <polygon class="fil0" points="8.81,24.63 9.87,24.63 9.86,23.58 8.82,23.57 "/>
      <path class="fil0" d="M53.1 49.93c-0.01,0.1 -0.01,1.02 0.01,1.04 0.01,0.01 0.94,0.02 1.04,0.01l-0 -1.05 -1.04 0z"/>
      <path class="fil0" d="M11.98 53.1c-0.01,0.1 -0.01,1.02 0.01,1.04 0.01,0.01 0.94,0.02 1.04,0.01l-0 -1.05 -1.04 0z"/>
      <path class="fil0" d="M8.82 44.66c-0.01,0.1 -0.01,1.02 0.01,1.04 0.01,0.01 0.94,0.02 1.04,0.01l-0 -1.05 -1.04 0z"/>
      <path class="fil0" d="M29.91 36.23c-0.01,0.1 -0.01,1.02 0.01,1.04 0.01,0.01 0.95,0.02 1.04,0.01l-0 -1.05 -1.04 0z"/>
      <polygon class="fil0" points="17.25,53.09 17.25,52.04 16.2,52.04 16.2,53.09 "/>
      <path class="fil0" d="M9.86 28.84l0 -1.04 -1.05 -0c-0.01,0.1 -0.01,1.03 0.01,1.04 0.01,0.01 0.94,0.02 1.04,0.01z"/>
      <path class="fil0" d="M28.84 9.86l0 -1.04 -1.05 -0c-0.01,0.1 -0.01,1.03 0.01,1.04 0.01,0.01 0.95,0.02 1.04,0.01z"/>
      <path class="fil0" d="M47.82 28.84l0 -1.04 -1.05 -0c-0.01,0.1 -0.01,1.03 0.01,1.04 0.01,0.01 0.95,0.02 1.04,0.01z"/>
      <path class="fil0" d="M28.84 47.82l0 -1.04 -1.05 -0c-0.01,0.1 -0.01,1.03 0.01,1.04 0.01,0.01 0.95,0.02 1.04,0.01z"/>
      <path class="fil0" d="M47.82 47.82l0 -1.04 -1.05 -0c-0.01,0.1 -0.01,1.03 0.01,1.04 0.01,0.01 0.95,0.02 1.04,0.01z"/>
      <path class="fil0" d="M17.24 17.24l0 -1.04 -1.05 -0c-0.01,0.1 -0.01,1.03 0.01,1.04 0.01,0.01 0.95,0.02 1.04,0.01z"/>
      <polygon class="fil0" points="19.35,24.63 20.41,24.62 20.41,23.58 19.36,23.57 "/>
      <polygon class="fil0" points="14.08,3.54 15.13,3.54 15.14,2.49 14.09,2.49 "/>
      <polygon class="fil0" points="50.99,33.06 52.04,33.06 52.04,32.01 50.99,32.01 "/>
      <polygon class="fil0" points="40.44,29.9 39.39,29.9 39.4,30.95 40.44,30.95 "/>
      <polygon class="fil0" points="37.28,26.73 37.28,25.68 36.23,25.68 36.23,26.73 "/>
      <polygon class="fil0" points="37.28,43.6 37.28,42.55 36.23,42.55 36.23,43.6 "/>
     </g>
     <path class="fil1" d="M30 27.63c-0.03,-0.07 -0.05,-0.14 -0.08,-0.23 -0.21,-0.69 -0.16,-0.8 0.38,-1.14 0.43,-0.27 1.12,-0.62 1.8,-0.54 -0.13,0.07 -0.44,0.09 -0.61,0.15 -0.61,0.2 -0.84,0.5 -1.47,0.86l0.09 1.11 -0.11 -0.22zm2.98 1.57l0.04 -0.1c0.04,-0.16 0.04,-0.25 -0.03,-0.35l-0.04 0.35c0,0.13 0.01,0.07 0.03,0.11zm0.81 0.27c0.11,-0.03 0.07,-0.26 0.05,-0.3l-0.06 -0.09 -0.04 0.29c0.03,0.2 0.01,0.05 0.06,0.11zm-7.82 -1.73c0.05,-0.12 0.23,-0.21 0.32,-0.33 0.37,-0.46 0.42,-0.8 0.84,-1.11 0.29,-0.21 1.33,-0.84 1.71,-0.93l-0.22 0.14c-0.07,0.04 -0.15,0.08 -0.22,0.12 -0.13,0.07 -0.29,0.17 -0.4,0.24 -1.04,0.68 -0.78,0.34 -1.39,1.23 -0.16,0.24 -0.34,0.56 -0.65,0.64zm5.11 -3.19c-1.07,-0.9 -0.85,-0.7 -1.94,-1.36l-0.08 -0.06c0.22,0.04 0.64,0.29 0.88,0.41 0.48,0.24 1.04,0.75 1.4,1.12 0.13,0.13 0.51,0.5 0.6,0.64l-0.86 -0.75zm-2.17 -0.01c-0.17,-0.06 -0.35,-0.18 -0.52,-0.27 -1.07,-0.56 -0.74,-0.28 -1.21,-1.12 -0.13,-0.23 -0.57,-0.54 -0.84,-0.71 -0.18,-0.11 -0.31,-0.18 -0.49,-0.29l-0.46 -0.28c0.27,0.08 0.75,0.36 1.04,0.52 0.33,0.18 0.68,0.44 0.85,0.7 0.37,0.56 0.09,0.55 0.68,0.88 0.16,0.09 0.78,0.41 0.92,0.53l0.04 0.04zm3.27 0.54l-0.09 -0.13c-0.22,-0.34 -0.72,-1.57 -0.92,-1.98 -0.41,-0.86 -1.07,-1.69 -1.18,-1.96 0.05,0.04 0.02,0.01 0.07,0.06 0.03,0.03 0.03,0.03 0.05,0.06l0.59 0.76c0.2,0.32 0.41,0.63 0.58,0.97l0.9 2.22zm-2.85 11.16c0.94,-0.06 0.95,-1.34 -0.18,-1.6 -0.98,-0.23 -2.42,-0.04 -3.29,-0.62 -1.58,-1.05 -0.55,-3.01 0.81,-3.17l-0.06 -0.22c0.1,0.48 0.56,0.49 0.67,0.77 -0.2,0.23 -0.89,0.45 -0.37,0.78 0.24,0.15 0.57,0.32 0.43,0.65 -0.06,0.15 -0.11,0.1 -0.21,0.2 0.03,0.14 0.08,0.28 0.26,0.23 0.15,-0.04 0.17,-0.19 0.21,-0.33 0.02,0.02 0.02,-0.01 0.06,0.07 0.05,0.1 0.08,0.25 0.06,0.36 -0.02,0.23 -0.15,0.16 -0.33,0.24 0.08,0.14 0.33,0.18 0.44,0.07 0.11,-0.11 0.09,-0.34 0.11,-0.53 0.11,0.12 0.07,0.16 0.14,0.24 0.06,-0.14 0.12,-0.19 0.11,-0.4 -0.01,-0.18 -0.11,-0.28 -0.19,-0.35 -0.19,-0.17 -0.37,-0.31 -0.48,-0.6 0.17,-0.13 0.42,-0.23 0.62,-0.32 0.23,-0.11 0.41,-0.25 0.42,-0.56 0.02,-0.68 -0.41,-0.91 -0.56,-1.38 0.12,0.13 0.25,0.24 0.37,0.4 0.06,0.08 0.11,0.15 0.16,0.24 0.04,0.07 0.08,0.21 0.15,0.27 0.51,-0.02 0.5,-0.05 0.84,-0.25 -0.07,0.18 -0.26,0.32 -0.24,0.57 0.02,0.32 0.59,0.27 0.74,0.92 0.03,0.11 0.01,0.43 -0.18,0.32 -0.05,-0.03 -0.05,-0.05 -0.07,-0.11l-0.06 0.3c0.41,0.35 0.59,-0.07 0.82,-0.21 -0.09,0.16 -0.18,0.22 -0.26,0.34 0.41,-0.15 0.61,-0.51 0.34,-0.72 -0.16,-0.13 -0.21,-0.09 -0.26,-0.38 -0.06,-0.32 -0.09,-0.26 -0.19,-0.48 0.29,-0.08 0.55,-0.3 0.73,-0.55l0.1 -0.13c-0.06,0.22 -0.24,0.39 -0.34,0.52 0.4,0.03 0.68,-0.19 0.8,-0.43 0.24,-0.48 -0.09,-1.14 0.35,-1.51 0.43,-0.36 0.97,-0.15 1.13,0.37l-0.21 -0.08c0.02,0.17 0.3,0.39 0.39,0.51 0.08,0.11 0.13,0.65 -0.14,0.41 -0.02,0.52 0.5,0.41 0.4,-0.16 0.05,0.05 0.01,-0.02 0.06,0.1 0.01,0.01 0.03,0.09 0.04,0.11 0.03,0.15 0.01,0.12 -0.09,0.16 0.08,0.07 0.1,0.13 0.13,0.24 0,0.01 0,0.02 0.01,0.03 0.79,-0.38 -0.06,-0.08 0.8,-0.9 0.13,-0.12 0.57,-0.84 0.62,-1.07 -0.26,0.09 -0.33,0.34 -0.56,0.43 -0,-0.61 0.22,-1.14 0.73,-1.41 0.09,-0.05 0.13,-0.06 0.18,-0.14 -0.67,0.27 -0.91,0.35 -1.27,0.88l-0.05 -0.1c-0.09,-0.25 -0.16,-0.51 -0.32,-0.72 -0.16,-0.21 -0.39,-0.46 -0.63,-0.58 0.2,0.27 0.47,0.6 0.54,1.06l-0.27 -0.31c-0.12,-0.15 -0.17,-0.18 -0.31,-0.29 -0.14,-0.11 -0.62,-0.35 -0.78,-0.39 0.39,0.42 0.89,0.62 1.1,1.24l-0.32 -0.37c-0.22,-0.22 -1.14,-0.72 -1.41,-0.56 0.27,0.13 0.2,0.04 0.37,0.25 -0.48,-0.11 -0.41,-0.02 -0.82,0.05l0.19 0.06c-0.6,0.17 -0.33,1 -0.65,1.38 0.05,-0.31 0.12,-0.4 0.06,-0.76 -0.15,-0.85 -0.35,-1.41 0.58,-1.8 0.43,-0.18 0.82,-0.3 1.31,-0.43 0.24,-0.06 0.48,-0.13 0.59,-0.29 0.12,-0.19 0.14,-0.47 0.02,-0.66 0.02,0.16 0.04,0.24 -0.05,0.35 -0.05,-0.23 -0.11,-0.63 -0.29,-0.74l0.07 0.34c-0.14,-0.16 -0.23,-0.44 -0.35,-0.63 -0.12,-0.21 -0.26,-0.39 -0.39,-0.59 -0.51,-0.8 -0.86,-1.91 -1.8,-2.65 -0.27,-0.22 -0.42,-0.63 -0.74,-0.78 0.09,0.8 0.02,0.84 -0.63,0.89 0.02,0.1 0.04,0.22 -0.05,0.32 -0,0.01 -0.01,0.01 -0.02,0.02l-0.07 0.07c0.58,0.4 0.69,0.31 1.29,1.03l-1 -0.71c-0.31,-0.19 -0.85,-0.43 -1.28,-0.47 0.1,0.15 0.38,0.41 0.12,0.57 -0.23,0.14 -0.53,-0.05 -0.7,-0.11 0.19,0.33 1.58,1.1 2.32,2.12 0.19,0.26 1.03,0.78 0.73,1.2 -0.33,0.46 -1.57,0.86 -1.37,1.83 0.12,0.6 0.8,0.85 1.08,1.34 0.1,0.17 0.13,0.53 0.04,0.72 -0.02,-0.76 -0.32,-0.95 -0.85,-1.35 -0.76,-0.58 -0.65,-1.14 -0.14,-1.83 0.47,-0.63 1.57,-0.7 0.69,-1.39 -0.11,-0.09 -0.2,-0.15 -0.29,-0.25 -0.45,-0.47 -0.9,-0.96 -1.45,-1.31 -0.22,-0.14 -0.46,-0.27 -0.66,-0.42 -0.22,-0.16 -0.43,-0.3 -0.67,-0.43 -0.81,-0.45 -2.21,-1.04 -3.36,-1.01l0.16 0.06c0.08,0.02 0.11,0.03 0.18,0.05 1.51,0.55 1.53,2.04 -0.83,1.99 -0.41,-0.01 -0.84,-0 -1.24,0.11 -0.06,0.02 -0.11,0.03 -0.18,0.05l-0.17 0.09c0.45,-0.03 0.91,-0.03 1.27,0.14 0.38,0.18 0.47,0.41 0.66,0.78l0.22 0.06c1.18,0.2 1.01,1.15 0.41,1.98 -0.12,0.17 -0.44,0.52 -0.5,0.69 0.31,-0.16 0.35,-0.27 0.78,-0.34 0.28,-0.04 0.79,-0.08 1.06,-0.04 0.63,0.11 0.36,0.68 0.02,0.96 -0.11,0.09 -0.28,0.17 -0.33,0.23 0.6,-0.01 0.94,-0.35 1.83,-0.23 0.42,0.06 1.2,0.43 1.41,0.79l-0.67 -0.42c-0.25,-0.12 -0.56,-0.22 -0.87,-0.24 0.23,0.31 0.84,0.52 0.33,1.14 -0.1,0.12 -0.18,0.22 -0.33,0.29 0.14,-0.26 0.23,-0.3 0.26,-0.68 -0.4,0.1 -1.01,0.48 -1.26,0.7 -0.34,0.29 -0.64,0.64 -0.91,1.08 -0.51,0.84 -0.8,2.13 -0.22,3.13 0.51,0.89 1.67,1.24 2.7,1.26 0.64,0.01 2.08,-0.14 2.35,0.6 0.05,0.14 0.05,0.3 -0,0.43 -0.02,0.05 -0.07,0.14 -0.08,0.16 -0.04,0.06 -0.02,0.03 -0.06,0.07l-0.05 0.05c-0,0 -0.01,0.01 -0.02,0.02z"/>
    </g>
   </g>
  </g>
  <polygon class="fil2 str0" points="0.28,0.28 56.36,0.28 56.36,56.36 0.28,56.36 "/>
 </g>
</svg>
