<?xml version="1.0" encoding="UTF-8"?>
<!DOCTYPE svg PUBLIC "-//W3C//DTD SVG 1.1//EN" "http://www.w3.org/Graphics/SVG/1.1/DTD/svg11.dtd">
<!-- Creator: CorelDRAW -->
<svg xmlns="http://www.w3.org/2000/svg" xml:space="preserve" width="1.00984in" height="1.00984in" version="1.1" style="shape-rendering:geometricPrecision; text-rendering:geometricPrecision; image-rendering:optimizeQuality; fill-rule:evenodd; clip-rule:evenodd"
viewBox="0 0 50.01 50.01"
 xmlns:xlink="http://www.w3.org/1999/xlink"
 xmlns:xodm="http://www.corel.com/coreldraw/odm/2003">
 <defs>
  <style type="text/css">
   <![CDATA[
    .str0 {stroke:black;stroke-width:0.49;stroke-miterlimit:22.9256}
    .fil1 {fill:none}
    .fil0 {fill:black}
   ]]>
  </style>
   <clipPath id="id0">
    <path d="M0.24 0.24l49.52 0 0 49.52 -49.52 0 0 -49.52z"/>
   </clipPath>
 </defs>
 <g id="Capa_x0020_1">
  <metadata id="CorelCorpID_0Corel-Layer"/>
  <g>
  </g>
  <g style="clip-path:url(#id0)">
   <g id="_2075859390784">
    <g>
     <path class="fil0" d="M29.77 43.61l0.02 2.77 -1.37 -0.01 0.01 -1.4 -2.76 -0.04 0 -2.65 2.67 0 0 1.38 1.42 -0.05zm12.38 1.31l-1.28 -0 -0 -2.6 1.38 -0.06 0.02 -1.38 1.27 0.01 0.06 1.37 1.32 0.01 -0.01 1.34 -2.76 -0 0 1.32zm-6.84 -1.32l0.04 -1.28 4.04 -0.05 0 1.34 -1.33 -0.01 0 1.33 -1.34 -0 -0 -1.3 -1.42 -0.03zm1.42 -3.2l0 -3.65 4.11 -0.01 -0.01 4.11 -4.1 -0 -0 -0.44zm-11.05 -3.53l0 -0.13 1.36 0 -0 1.35 -1.33 -0.01 -0.02 -1.21zm6.88 -0.21l-1.44 -0 0 1.44 -1.3 -0.02c0.12,-3.49 -0.42,-2.55 1.39,-2.74l0.01 -2.75 1.3 0.01 0.05 1.38 5.5 0 0 1.34 -2.74 0 -0.01 1.33 -1.34 -0 -0.01 -1.31 -1.4 -0.02 -0.01 1.33zm-4.11 -2.68l1.35 0 -0 1.35 -1.36 -0 0.01 -1.35zm12.33 -2.76l0.08 -1.4 1.32 0.04 -0 1.35 4.19 -0 -0.01 1.34 -6.87 0.01 0.01 -1.36 1.28 0.01zm-5.42 0.05l1.29 -0.07 -0.01 1.35 -1.29 -0.01 0.01 -1.28zm8.24 -4.23l0.02 1.41 1.3 -0 0.01 1.35 -2.66 0 0.01 -2.73 1.33 -0.03zm-2.74 2.78l-1.45 -0.02 0 1.33 -1.3 -0.01 0.02 -2.75 -1.38 0 0 -2.67 1.34 -0 0 1.38 1.28 -0 0.07 1.39 1.41 -0 0.02 1.37zm-5.57 -2.75l0.03 2.73 -1.34 0 -0 -1.42 -1.38 -0.04c0.01,-1.43 -0.64,-1.34 2.7,-1.27zm-24.8 -1.37l1.31 -0.02 0.01 1.37 -1.32 -0.02 0 -1.33zm24.88 -1.36l1.25 -0.05 0.03 1.32 -1.29 -0.02 0.01 -1.25zm-17.95 -2.81l1.27 0.01c0.13,0.41 0.07,0.82 0.09,1.3l-1.38 -0.01 0.02 -1.31zm-13.87 -1.43c0.25,0 0.5,0 0.75,-0 0.05,-0 0.31,-0.01 0.34,-0.01 0.4,0.03 0.23,0.03 0.34,0.09l-0.01 1.34 -1.33 0.01c-0.14,-0.1 -0.08,-0.01 -0.13,-0.24 -0.02,-0.07 -0.02,-0.35 -0.02,-0.44 0,-0.3 0.01,-0.46 0.06,-0.75zm28.93 1.42c0.06,-0.51 -0.05,-0.95 0.14,-1.38 0.22,-0.03 0.37,-0.02 0.6,-0.03 0.04,-0 0.31,-0.01 0.34,-0.01 0.37,0.03 0.18,0.01 0.33,0.09l0 1.34 1.47 0.01 0.01 -1.32 2.72 -0.06 0.05 -1.35 2.71 -0.07 0.03 1.38 -1.47 -0.04 0.01 1.44 -1.33 -0.01 0 1.33 -6.87 0 0.02 -1.31 1.25 -0.01zm8.36 -2.79l0.04 -1.32 1.28 -0.01 -0 1.36 -1.32 -0.03zm-6.87 -1.34l1.34 0.01 0.02 1.36 -1.36 0 0 -1.37zm-29.01 -1.39l4.05 0.01 0.03 2.75 1.42 -0.01 0.03 -1.28c0.16,-0.14 -0.23,-0.11 0.31,-0.15l0.95 0.04c0.03,-0.56 -0.06,-0.94 0.15,-1.32l1.3 -0.03 0.04 1.4 1.31 -0.02 -0 1.36 -1.31 0.01 -0.01 2.78 1.29 0 0.04 1.3 -1.32 0.01 -0.01 1.44 -4.13 -0 -0.01 -1.39 -2.77 -0.05 0 -2.69 1.38 0.01 0.01 1.38 1.37 -0.02 0.01 -1.39 -1.38 -0.06 -0 -2.73 -2.76 -0.02 0.01 -1.31zm26.26 -1.31c0.3,-0.19 0.72,-0.09 1.29,-0.12l0.02 -1.35 0.18 0.01 1.16 0.02 0.01 2.75 -2.67 0.01 0.02 -1.31zm-20.75 -0.06l1.32 -0.01 0.01 1.37 -1.32 -0.01 0 -1.35zm2.77 -0.09c-0.01,-0.19 -0.04,-0.72 -0.03,-0.89 0.03,-0.37 -0.07,-0.42 0.34,-0.41l2.42 0 0.01 2.75 -1.37 0 0.01 -1.42 -1.38 -0.03zm5.51 -4.08l0.01 -1.35 1.32 -0 -0.04 1.32 0.15 0.06 1.31 -0.02 0.05 1.4 1.28 0.01 0 1.36 -2.76 -0 -0 1.34 -1.31 -0.04 -0.01 -1.29 -1.37 -0.01 0.03 -2.75 1.35 -0.02zm6.94 0.02l1.33 -0.02 0.01 1.33 -1.36 -0 0.02 -1.31zm-2.76 0l1.32 -0.02 0.01 1.33 -1.35 0 0.03 -1.32zm9.59 2.74l-1.41 0.02 -0.02 1.32 -2.75 -0 0 1.44 -1.32 -0.01 0.04 -2.73 2.75 -0.02 -0 -1.35 1.37 -0.03 0.06 -1.39 1.25 0.06 0.12 -1.44c0.25,-0.05 0.46,-0.05 0.72,-0.05 0.66,0.01 0.45,-0 0.54,0.13l-0 1.3 -1.2 0.01 -0.14 0.05 -0 2.69zm-4.09 -6.89l2.68 0.01 -0 4.14 -1.32 -0.02 -0.01 1.34 -1.35 -0 -0 -5.46zm-1.4 -1.39l0 4.09 -1.36 -0 -0 -1.32 -1.41 -0.01 0.01 1.33 -4.13 0.01 0 -2.71 4.12 0.01 0.06 -1.31c0.38,-0.16 1.76,-0.09 2.7,-0.09zm-4.12 -1.38l1.37 0.01 -0 1.38 -1.36 -0 -0.01 -1.38zm-17.95 12.43l-1.38 -0.01 -0.01 -2.72 -1.39 -0.04 0 4.17 1.32 -0.01 0.02 2.71 -1.35 -0.02 0.01 2.84 2.75 0 0 1.38 1.29 0 0.03 1.3 -1.32 0 -0.01 1.43 1.34 -0.02c0.03,-0.64 -0.06,-0.99 0.11,-1.31l1.29 -0.02 0.05 -1.36 1.25 -0.02 0.06 2.74 -1.32 0.01 -0.01 1.32 -1.43 0 -0 1.47 1.44 -0 -0 -1.35 1.32 -0.03 0 1.38 1.43 -0.02 0.02 -1.28c0.21,-0.22 -0.55,-0.11 1.29,-0.13 -0.01,-0.22 -0.02,-0.48 -0.02,-0.69 0,-0.05 0.01,-0.3 0.02,-0.33 0.05,-0.22 0.07,-0.19 0.13,-0.29l1.29 -0.01 0.05 2.74 1.38 0 0 -4.13 2.69 -0 -0.01 1.37 -1.32 -0.02 0 2.8 1.4 -0.02 0.01 -2.75 1.71 0 -0.29 -1.43 -1.43 -0.03 0.01 -1.3 1.36 -0 0.01 -1.24c0.47,-0.39 0.25,0.1 0.62,-0.68 0.16,-0.33 0.28,-0.56 0.44,-0.82l-1.08 -0.05 0.02 -2.74 -1.45 -0.01 -0 2.77 -2.67 -0.01 -0.01 -2.75 1.37 0 0 -1.36 1.37 -0.02 0.01 -2.76 1.38 -0 -0.01 2.77 2.75 -0.01 0.03 -2.72 1.3 -0.06 0 1.39 4.19 -0.02 0 1.35 -2.76 -0.02 0 1.48 2.77 -0.04 0.01 -1.3 1.38 -0.08 0.01 -1.37 2.64 -0 0.04 1.31 -1.33 0.01c-0.02,0.81 -0,1.62 -0.01,2.42 -0.01,1.87 0.01,0.7 1.02,2.73 0.61,1.24 0.38,1.63 0.54,3.2l1.2 0.01 0.01 1.37 -1.35 -0.01 -0.05 -0.71c0.2,1.04 -1.41,2.19 -1.35,3.48l1.4 -0.07 -0 -1.29 1.35 -0 -0 2.68 -2.62 -0.01 -0.09 -0.01 0.01 0.11 -0.06 1.33 -2.74 0.01 -0.01 2.76 -1.42 -0 -0.02 1.32 -1.32 0 -0.01 1.46 1.28 0.01 0.05 2.72 -1.31 -0.01 0 -1.41 -1.37 0.04 -0.03 0.05 -0.06 2.75 1.44 0 0 1.34 -2.76 -0.01 -0.01 1.33 -1.43 -0.01 -0 2.87 2.85 -0.01 -0.01 -2.76 2.69 0.01 -0 1.33 -1.32 0 -0.01 1.42 1.41 0 -0.01 -1.37 1.36 0.01 -0.01 1.37 5.55 -0 0 -1.1c-0.32,-0.17 -0.25,0.26 -0.25,-0.33l-1.12 0.01 -0 -2.74 -1.43 -0.02 0.06 -1.43 -1.39 -0.01 0.01 -1.19c0.23,-0.28 0.54,-0.09 1.32,-0.15l0 -0.99c0.07,-0.62 -0.03,-0.1 0.12,-0.34l2.63 -0.01 0.04 -1.37 0.98 -0.06c0.61,-0.01 0.13,-0.03 0.33,0.16l0 1.28 1.43 -0 0 1.34 -2.76 0 -0 2.79 2.76 -0.04 0 2.77 -1.33 0.06 -0.05 0.01 -0.06 1.36 1.49 0 0.03 -1.31c0.33,-0.21 0.74,-0.12 1.24,-0.12 0.47,0 0.95,-0.01 1.42,-0.01l0.08 -1.35 1.26 0.02 -0 1.38 1.38 0 0.06 1.38 4.19 0.01 -0.01 -1.42 -1.4 -0.03 0.01 -1.26 1.39 -0.07 0.02 -1.38 2.74 0.01 0 -1.49 -1.38 -0.02 -0 -1.3 -1.38 -0.01 0 -1.42 -2.76 -0.02 0.02 -1.29 1.36 0.01 0 -2.79 -2.78 -0.02 0.01 -1.28 5.49 -0.06 -0.01 2.68 -1.43 -0.01 0 1.47 2.86 0.01 0 -9.76 -1.39 -0.02 0.01 -1.3 -2.81 -0.01 0.05 -2.69 1.37 -0.06 0.01 -1.46 -2.87 0 0 1.45 -1.2 -0.01 -0.11 0.1 -0.01 2.66 -1.33 -0 -0.04 -2.68 0.59 -0.14c0.23,-0.01 0.48,0.01 0.71,0l0.1 -4.1 2.72 0.01 -0.02 -3.7c0.07,-0.67 -0.04,-0.25 0.22,-0.41l1.1 -0 0.04 1.4 2.82 -0.02 0.04 -1.4 -1.4 -0.02 0.01 -1.27 1.34 -0.09 0.05 -1.38 -2.86 0 -0.01 1.33 -1.29 -0.02 0.01 -1.3 -1.48 -0.01 -0 2.76 -1.3 -0.02 0.02 -1.41 -1.38 -0 -0 -1.32 -1.42 -0.01 -0 4.09 -1.34 0.02 -0 -1.33 -1.37 -0.03 -0.02 -2.71 -1.36 -0.04 -0 -2.74 1.28 0.05 0.11 -1.47 1.37 -0.07 -0.01 -6.79 -2.85 -0.02 -0.01 2.77 1.42 -0.01 0.01 2.76 -2.73 -0.01 -0 -1.41 -1.38 -0.01 -0 -1.3 -4.17 -0.03c0.02,-0.26 0.01,-0.42 0.02,-0.67 0,-0.09 0,-0.24 0.01,-0.32 0,-0.03 0.01,-0.06 0.02,-0.09 0.01,-0.03 0.02,-0.06 0.02,-0.08 0.01,-0.02 0.02,-0.06 0.03,-0.08 0.01,-0.02 0.02,-0.05 0.03,-0.07l2.65 -0.07 -0 -1.37 -2.79 -0.01 -0 1.33 -1.34 -0 -0 -1.31 -2.84 -0.02 -0 1.32 -1.33 0.01 0 1.45 -1.37 -0.01 0 -2.72 -4.16 -0.05 0 1.33 -1.36 0 -0 -1.28 -1.39 -0.05 0 2.77 2.77 0 0 -1.36 2.75 -0.02 -0 2.71 -1.43 -0.01 -0 1.44 -1.31 -0.01 -0 -1.43 -2.76 0 -0.02 1.43 1.33 0 0.02 1.39 1.41 -0.01 0 2.7 -1.36 -0 -0.01 -1.28 -1.38 -0.05 -0.01 2.76 -4.2 0 0.01 1.32 -1.32 -0 0.01 -1.32 -2.76 -0 0.01 2.77z"/>
     <path class="fil0" d="M16.05 40.91l1.25 -0.03 0.02 1.3 -1.32 -0.02 0.05 -1.26zm1.4 -5.46c0.27,-0.14 0.86,-0.07 1.29,-0.09l0 4.06 -4.04 -0.01c-0.2,-0.2 -0.07,0.17 -0.15,-0.32l0.06 -0.94c0.62,-0.26 1.98,-0.11 2.7,-0.09 0.04,-0.51 -0.11,-2.22 0.14,-2.61zm-1.48 -0.1l0.02 1.31 -2.69 -0.03 -0.01 0.14 -0.04 4.13 1.3 -0.01 0.02 1.29 -1.32 0 0 2.87 1.38 -0.05 0.08 -1.34 1.27 0 0.02 1.39 2.77 -0 0.02 -1.31 -0.09 -0.16 -1.31 0.05 0.01 -1.34 1.14 0c0,-0.3 -0.07,-0.23 0.24,-0.17l-0 -2.57 1.31 -0.01 -0.01 1.32 1.43 0.01 0 -1.28c-0.27,0.08 -0.2,0.13 -0.2,-0.15l-1.14 0 0 -2.67 2.75 -0.02 0.07 -1.36 1.31 -0.01 0.04 -2.74 1.35 -0.03 0 -1.32c-0.39,-0.02 -2.52,-0.01 -2.68,-0.2l-0.11 -0.12c-0.49,-0.47 -0.9,-0.44 -1.38,-0.32l-0 1.97 1.31 -0.01 0.02 1.31 -2.69 0 -0.01 -1.32 -1.39 -0.02 -0.01 1.33 -1.42 0 -0.01 1.43 -1.34 0.02z"/>
     <path class="fil0" d="M39.5 3.58l6.86 0 0.01 6.89 -6.87 -0.01 0 -6.07 0 -0.82zm-1.42 7.89l0.03 0.4 9.63 -0c0.13,-0.98 0.05,-8.1 0.05,-9.67l-9.71 0 0 9.28z"/>
     <path class="fil0" d="M3.58 39.52l6.9 0 0.01 6.86 -6.9 -0 -0 -6.07 0 -0.78zm-1.37 8.29l9.66 -0.05 0.01 -9.67 -9.67 0 0.01 9.71z"/>
     <path class="fil0" d="M3.58 3.58l6.89 0.01 0 6.89 -6.9 0 0.01 -6.9zm-1.39 8.2l9.61 0.03 -0.02 -9.61 -9.58 -0 -0 9.58z"/>
     <path class="fil0" d="M10.48 31.23l1.33 -0.01 -0 1.35 -1.32 -0.02 -0.01 -1.32zm-6.95 3.88c0.31,0 0.22,-0.07 0.17,0.26l1.24 -0.01 0.04 1.39 2.74 0 -0 -1.28c0.16,-0.18 0.01,-0.12 0.33,-0.17l1.01 0.01 0.01 -0.97c-0.02,-0.55 -0.03,-0.15 0.12,-0.33l2.67 -0.06 0.08 -1.34 2.69 0 -0.01 -1.47 -1.37 -0.02 -0 -1.3 -2.78 -0.01 0.01 1.32 -2.77 0.01 0 1.46 1.31 0 0.02 1.29 -2.71 0 -0.01 -1.31 -1.37 -0.02 0 1.33 -1.44 0 0 1.21z"/>
     <path class="fil0" d="M20.43 29.58c2.02,-0.44 1.84,-0.79 3.07,-0.33 2.67,1.01 6.58,-0.86 5.97,-5.32l-0.78 -0.02c0.13,1.15 0.21,1.74 -0.28,2.75 -0.32,0.66 -1.01,1.34 -1.65,1.66 -0.76,0.37 -1.8,0.54 -2.74,0.3 -0.42,-0.11 -0.84,-0.42 -1.18,-0.43 -0.33,-0.01 -0.89,0.24 -1.32,0.27 0.49,-2.44 0.35,-0.55 -0.17,-2.47 -0.26,-0.99 -0.15,-1.94 0.26,-2.71 0.88,-1.66 2.09,-2.19 4.53,-1.97l-0.01 -0.75c-2.62,-0.5 -4.48,0.81 -5.28,2.53 -0.45,0.97 -0.55,2.19 -0.19,3.28 0.25,0.75 0.47,0.65 0.2,1.58 -0.15,0.52 -0.35,1.13 -0.43,1.64z"/>
     <polygon class="fil0" points="4.95,41.29 4.96,44.5 4.96,45.03 9.11,45.04 9.1,44.5 9.1,43.94 9.1,42.73 9.1,40.9 4.96,40.85 "/>
     <polygon class="fil0" points="40.84,9.11 44.97,9.11 45.03,4.98 40.84,4.96 "/>
     <polygon class="fil0" points="4.96,9.01 9.04,9.05 9.03,4.96 4.96,4.96 "/>
     <path class="fil0" d="M27.31 25.98l-1.14 -0.48c-0.32,0.33 -0.26,0.37 -0.57,0.59 -0.96,-0.22 -1.26,-0.77 -1.72,-1.39 0.17,-0.46 0.71,-0.44 -0.14,-1.83 -1.54,0 -1.32,1.8 0.19,3.18 0.73,0.67 3.31,2.1 3.38,-0.07z"/>
     <polygon class="fil0" points="3.52,30.36 3.53,31.13 2.21,31.14 2.2,32.59 3.6,32.59 3.57,31.22 4.93,31.22 4.95,29.81 3.52,29.81 "/>
     <polygon class="fil0" points="13.29,36.76 13.3,36.62 13.25,35.33 10.48,35.34 10.5,36.75 "/>
     <polygon class="fil0" points="27.58,21.64 26.56,21.64 26.54,22.41 27.59,22.41 27.59,23.52 28.36,23.52 28.37,22.42 29.44,22.4 29.44,21.66 28.37,21.63 28.36,20.54 27.58,20.54 "/>
     <polygon class="fil0" points="35.43,10.5 35.3,10.55 35.32,13.21 36.73,13.25 36.73,10.49 "/>
     <path class="fil0" d="M2.2 11.78c0.13,0.22 -0.09,0.11 0.43,0.15l9.25 -0.05c0.11,-0.85 0.04,-6.71 0.03,-8.47 -0,-0.35 0.1,-0.95 -0.13,-1.21l0.02 9.61 -9.61 -0.03z"/>
     <path class="fil0" d="M32.33 46.37c0,0.59 -0.07,0.16 0.25,0.33 0.15,-0.27 -0.25,-0.14 0.3,-0.28l1.05 0.01 0.05 -0.01 -0.02 -1.47 -1.41 -0.02 -0.01 1.1c-0.11,0.39 0.14,0.11 -0.21,0.33z"/>
     <polygon class="fil0" points="44.92,20.86 44.93,21.54 46.39,21.55 46.41,20.86 46.4,20.09 44.92,20.09 "/>
     <polygon class="fil0" points="46.4,46.43 47.77,46.43 47.79,44.94 46.35,44.93 "/>
     <polygon class="fil0" points="15.98,35.35 16.01,33.89 14.57,33.9 14.56,35.35 "/>
     <polygon class="fil0" points="17.32,47.81 18.77,47.8 18.77,46.37 17.32,46.38 17.32,47.37 "/>
     <path class="fil0" d="M21.29 39.42c0,0.28 -0.07,0.23 0.2,0.15l0.1 -0.06 1.3 0.01 0.03 -0.05 0 -1.37 -1.42 -0c0,0.18 0.03,0.62 0.02,0.77 -0.05,0.65 0.11,0.4 -0.24,0.55z"/>
     <polygon class="fil0" points="38.07,39.08 38.08,39.52 39.49,39.52 39.49,38.1 38.96,38.09 38.07,38.09 "/>
     <path class="fil0" d="M3.7 35.37c0.05,-0.33 0.13,-0.26 -0.17,-0.26 -0.21,0.27 0.32,0.22 -0.34,0.22l-0.99 -0.01 0.02 1.43 1.37 -0.04c-0.01,-0.49 -0.08,-0.93 0.12,-1.35z"/>
     <path class="fil0" d="M18.75 43.56l1.34 0.02 0.02 -1.42 -1.33 -0.06c-0.31,-0.06 -0.24,-0.13 -0.24,0.17 0.35,0.15 0.19,-0.05 0.24,0.55 0.01,0.13 -0.02,0.57 -0.02,0.73z"/>
     <polygon class="fil0" points="13.24,47.82 14.63,47.76 14.64,46.39 13.23,46.38 "/>
     <path class="fil0" d="M29.85 31.23l-0.01 -0.11 -0.03 -1.3c-0.61,-0.03 -0.74,-0.06 -1.16,0.28 -0.42,0.33 -0.32,0.5 -0.27,1.12l1.47 0.01z"/>
     <polygon class="fil0" points="16.01,32.54 17.35,32.54 17.33,31.12 15.99,31.13 "/>
     <polygon class="fil0" points="31.11,3.52 32.54,3.53 32.52,2.21 31.11,2.2 "/>
     <polygon class="fil0" points="10.47,20.07 11.78,20.12 11.77,18.77 10.46,18.76 "/>
     <polygon class="fil0" points="10.48,22.84 11.79,22.89 11.75,21.53 10.48,21.53 "/>
     <polygon class="fil0" points="2.19,25.59 3.49,25.64 3.5,24.29 2.2,24.29 "/>
     <polygon class="fil0" points="2.19,28.34 3.48,28.42 3.49,27.05 2.2,27.05 "/>
     <polygon class="fil0" points="18.76,11.76 20.08,11.8 20.01,10.45 18.76,10.47 "/>
     <path class="fil0" d="M40.87 20.12l-0.1 4.1c-0.23,0.01 -0.48,-0.01 -0.71,-0l-0.59 0.14 1.38 0.02 0.11 -0.1 -0.03 -4.04c0.82,-0 2.02,0.11 2.76,-0.07 0.02,-0.93 -0.13,-3.45 0.1,-4.15 -0.26,0.17 -0.15,-0.26 -0.22,0.41l0.02 3.7 -2.72 -0.01z"/>
     <path class="fil0" d="M21.51 19.81c0.42,-0.14 0.77,-0.41 1.23,-0.59 0.49,-0.2 0.99,-0.26 1.44,-0.42l-2.66 -0.04 -0.01 1.05z"/>
     <path class="fil0" d="M4.96 9.01c0.17,0.17 -0.26,0.15 0.32,0.14l3.83 -0c0.04,-0.32 0.17,-3.88 -0.08,-4.19l0.01 4.08 -4.08 -0.04z"/>
     <path class="fil0" d="M14.7 39.41l-0.03 -1.22 2.7 -0.03 0.08 -2.72c-0.25,0.39 -0.1,2.1 -0.14,2.61 -0.73,-0.02 -2.08,-0.17 -2.7,0.09l-0.06 0.94c0.07,0.5 -0.05,0.12 0.15,0.32z"/>
     <path class="fil0" d="M20.01 10.45l0.07 1.34 -1.32 -0.04c0.08,0.14 -0.09,0.16 0.65,0.15 0.25,-0 0.5,-0 0.75,-0.02l0.03 -1.39 -0.15 -0.06 -0.03 0.01z"/>
     <path class="fil0" d="M35.4 46.5l2.77 -0.03 -0.02 -1.44 -0.08 1.35c-0.47,0 -0.95,0.01 -1.42,0.01 -0.5,-0 -0.91,-0.09 -1.24,0.12z"/>
     <path class="fil0" d="M18.75 43.56l-0.05 0.01 0.09 0.16 1.35 -0.05c0.08,-0.33 0.07,-0.5 0.07,-0.85 0,-0.11 0.01,-0.33 -0.01,-0.43 -0.03,-0.18 -0.06,-0.17 -0.09,-0.24l-0.02 1.42 -1.34 -0.02z"/>
     <path class="fil0" d="M20.07 40.85c0.2,0.2 0.25,0.16 0.79,0.16 0.4,-0.01 0.36,0.05 0.73,-0.11l0.01 -1.38 -0.1 0.06 -0 1.28 -1.43 -0.01z"/>
     <path class="fil0" d="M31.11 3.52c0.09,0.15 -0.08,0.15 0.67,0.14 0.35,-0 0.5,0.02 0.84,-0.07 0.03,-1.88 0.08,-1.17 -0.1,-1.38l0.02 1.32 -1.42 -0.01z"/>
     <path class="fil0" d="M31.23 14.7l1.38 -0.02 0.1 -1.44 -0.18 -0.01 -0.02 1.35c-0.57,0.03 -0.98,-0.07 -1.29,0.12z"/>
     <path class="fil0" d="M2.19 25.59c0.08,0.13 -0.1,0.16 0.66,0.16 0.29,0 0.47,-0.01 0.76,-0.04l-0.01 -1.09c0.06,-0.64 0.04,-0.13 -0.1,-0.33l-0.02 1.36 -1.29 -0.06z"/>
     <path class="fil0" d="M35.26 10.55l0.05 0.01 0.13 -0.05 -0.04 -1.33c0.24,0 0.47,0 0.69,0.01 0.67,0.01 0.5,0.02 0.65,-0.17l-1.37 0.07 -0.11 1.47z"/>
     <path class="fil0" d="M10.47 20.07c0.16,0.15 -0.27,0.12 0.33,0.14l1.09 -0.02 0.01 -1.1c-0.04,-0.3 0.02,-0.16 -0.14,-0.32l0.02 1.35 -1.31 -0.05z"/>
     <path class="fil0" d="M7.71 35.47l1.43 -0.08 0.03 -1.39c-0.15,0.18 -0.14,-0.22 -0.12,0.33l-0.01 0.97 -1.01 -0.01c-0.32,0.05 -0.16,-0.01 -0.33,0.17z"/>
     <path class="fil0" d="M2.19 28.34c0.15,0.28 -0.07,0.08 0.23,0.15l1.19 -0.03c0,-0.36 0.12,-1.15 -0.12,-1.41l-0.01 1.37 -1.29 -0.07z"/>
     <path class="fil0" d="M10.48 22.84c0.19,0.16 -0.29,0.13 0.33,0.13l1.09 -0.01 0.01 -1.11c-0.05,-0.3 0.02,-0.16 -0.15,-0.32l0.04 1.35 -1.31 -0.04z"/>
     <path class="fil0" d="M32.53 39.51c0.24,-0.17 0.12,-0.94 0.13,-1.29l1.22 0.02c-0.2,-0.18 0.28,-0.17 -0.33,-0.16l-0.98 0.06 -0.04 1.37z"/>
     <path class="fil0" d="M10.49 28.53l1.39 -0.05 0.03 -1.4c-0.06,0.1 -0.08,0.07 -0.13,0.29 -0.01,0.03 -0.02,0.29 -0.02,0.33 -0,0.22 0.01,0.48 0.02,0.69 -1.84,0.02 -1.08,-0.09 -1.29,0.13z"/>
     <path class="fil0" d="M10.49 17.48l1.4 -0.05 0.02 -1.38c-0.22,0.38 -0.12,0.76 -0.15,1.32l-0.95 -0.04c-0.54,0.05 -0.16,0.01 -0.31,0.15z"/>
     <path class="fil0" d="M28.45 40.99l1.4 -0.04 0.04 -1.44c-0.15,0.24 -0.05,-0.28 -0.12,0.34l-0 0.99c-0.78,0.06 -1.09,-0.13 -1.32,0.15z"/>
     <path class="fil0" d="M3.63 21.54l-0.02 -1.33 1.36 -0.03c-0.11,-0.06 0.06,-0.06 -0.34,-0.09 -0.03,-0 -0.29,0.01 -0.34,0.01 -0.25,0.01 -0.5,0.01 -0.75,0 -0.05,0.29 -0.06,0.45 -0.06,0.75 -0,0.08 0.01,0.37 0.02,0.44 0.05,0.23 -0,0.14 0.13,0.24z"/>
     <path class="fil0" d="M16.01 32.54c0.17,0.23 1.02,0.12 1.37,0.09l0.09 -1.17c-0.07,-0.51 0.02,-0.16 -0.14,-0.33l0.02 1.42 -1.34 -0z"/>
     <path class="fil0" d="M32.49 10.55l0.04 -0 0.14 -0.05 -0.04 -1.32 1.24 0.01c-0.09,-0.14 0.12,-0.12 -0.54,-0.13 -0.26,-0 -0.47,0.01 -0.72,0.05l-0.12 1.44z"/>
     <path class="fil0" d="M32.48 21.53c0.32,-0.29 0.09,-0.47 0.18,-1.29l1.23 -0.03c-0.15,-0.08 0.04,-0.06 -0.33,-0.09 -0.02,-0 -0.29,0.01 -0.34,0.01 -0.23,0 -0.38,0 -0.6,0.03 -0.19,0.43 -0.08,0.87 -0.14,1.38z"/>
     <path class="fil0" d="M29.84 31.12l0.09 0.01 -0.01 -1.26 0.97 0.05c0.55,-0.04 0.16,-0.01 0.31,-0.16l-1.4 0.07 0.03 1.3z"/>
     <path class="fil0" d="M4.95 27.04c0.31,0.17 1.04,0.07 1.43,0.1l0.02 -1.43c-0.17,0.32 -0.08,0.67 -0.11,1.31l-1.34 0.02z"/>
     <path class="fil0" d="M40.77 31.23c0.3,-0.13 0.18,-0.05 0.19,-0.53 0.01,-0.24 -0.01,-0.57 -0.02,-0.82l1.23 -0.01 -1.32 -0.04 -0.08 1.4z"/>
     <path class="fil0" d="M29.9 21.79c-0.05,-0.56 0.17,-0.35 -0.31,-0.37 0.15,0.39 -0.02,0.16 0.31,0.37z"/>
     <path class="fil0" d="M28.36 20.32c0.59,0.28 0.24,0.07 0.38,-0.01 -0.23,-0.13 -0.21,-0.1 -0.38,0.01z"/>
    </g>
   </g>
  </g>
  <polygon class="fil1 str0" points="0.24,0.24 49.76,0.24 49.76,49.76 0.24,49.76 "/>
 </g>
</svg>
