<?xml version="1.0" encoding="UTF-8"?>
<!DOCTYPE svg PUBLIC "-//W3C//DTD SVG 1.1//EN" "http://www.w3.org/Graphics/SVG/1.1/DTD/svg11.dtd">
<!-- Creator: CorelDRAW -->
<svg xmlns="http://www.w3.org/2000/svg" xml:space="preserve" width="2.11764in" height="2.11762in" version="1.1" style="shape-rendering:geometricPrecision; text-rendering:geometricPrecision; image-rendering:optimizeQuality; fill-rule:evenodd; clip-rule:evenodd"
viewBox="0 0 265.91 265.91"
 xmlns:xlink="http://www.w3.org/1999/xlink"
 xmlns:xodm="http://www.corel.com/coreldraw/odm/2003">
 <defs>
  <style type="text/css">
   <![CDATA[
    .fil0 {fill:black;fill-rule:nonzero}
   ]]>
  </style>
 </defs>
 <g id="Capa_x0020_1">
  <metadata id="CorelCorpID_0Corel-Layer"/>
  <path class="fil0" d="M-0 196.35l0 -126.79c0,-38.26 31.3,-69.56 69.55,-69.56l126.8 0c38.25,0 69.55,31.3 69.55,69.56l0 126.79c0,38.26 -31.3,69.56 -69.55,69.56l-126.8 0c-38.26,0 -69.55,-31.3 -69.55,-69.56zm51.14 -71.92c1.37,4.7 -2.95,23.75 9.86,46.45 1.87,3.32 -0.26,7.25 -1.17,10.67 -1.87,6.98 -8.63,29.51 -8.98,33.5 3.59,-0.29 29.69,-7.44 36.4,-9.3 8.16,-2.27 5.4,-1.96 12.06,0.94 15.66,6.82 33.4,9.5 51.97,5.16 17.36,-4.06 30.63,-12.99 39.68,-22.05 4.46,-4.46 9.57,-11.06 13.24,-17.61 6.52,-11.63 5.76,-15.61 8.64,-22.14 1.17,-11.78 3.55,-23.76 -0.56,-36.96l-14.02 0.16c0.5,3.77 1.75,7.64 2.22,12.2 1.32,12.7 -1.17,26.15 -6.82,37.26 -17.32,34.05 -59.46,46.61 -90.26,30.69 -3.42,-1.77 -6.21,-4.55 -9.89,-3.63 -4.95,1.23 -19.11,5.76 -23.1,5.8 0.22,-2.81 2.34,-8.97 3.09,-11.77 4.64,-17.36 4.43,-9.28 -1.71,-22.14 -20.77,-43.45 8.85,-92.86 54.7,-97.01 15.39,-1.39 17.53,1.57 26.73,2.43l0.02 -11.04c-0.08,-1.91 0.09,-1.52 -0.49,-2.94 -9.14,-3.94 -29.65,-2.72 -39.67,-0.16 -22.53,5.76 -39.19,19.27 -50.63,38.11 -2.67,4.4 -5.19,9.86 -6.99,15.19 -2.78,8.21 -2.93,14.01 -3.94,17.32 -0.03,0.12 -0.16,0.51 -0.19,0.44 -0.03,-0.07 -0.12,0.3 -0.2,0.43zm122.85 27.01c-3.75,-2.49 -9.99,-5.15 -14.73,-7.44 -2.62,-1.27 -5.54,-3.1 -7.76,-0.16 -7.15,9.49 -6.92,11.66 -19.04,4.26 -4.37,-2.67 -8.61,-6.08 -12.16,-10.02 -2.21,-2.46 -9.22,-10.2 -7.02,-13.48 3.69,-5.52 8.09,-5.57 4.36,-14.19 -1.27,-2.94 -5.07,-13.89 -6.98,-15.17 -1.84,-1.24 -7.54,-0.9 -9.48,-0.04 -2.11,0.94 -4.05,3.27 -5.52,5.27 -17.54,23.78 25.41,66.7 54.72,70.77 13.02,1.81 26.23,-6.31 23.61,-19.78zm4.86 -79l-18.57 0.07 -0.2 13.74 18.43 -0.13 1.32 0.63 -0.1 18.79 12.71 0.24c0.23,-3.4 0.09,-6.94 0.1,-10.18 0,-4.04 -0.75,-8.41 1.09,-9.45l18.34 0.26 0.08 -13.93 -18.7 -0.25c-1,-0.81 -0.81,1.68 -0.79,-4.76 0,-1.63 0,-3.25 0.01,-4.87 0.01,-3.04 0.06,-6.22 -0.1,-9.3l-12.71 0.09 -0.17 17.86c-0.33,1.45 -0.11,0.46 -0.74,1.21z"/>
 </g>
</svg>
