<?xml version="1.0" encoding="UTF-8"?>
<!DOCTYPE svg PUBLIC "-//W3C//DTD SVG 1.1//EN" "http://www.w3.org/Graphics/SVG/1.1/DTD/svg11.dtd">
<!-- Creator: CorelDRAW -->
<svg xmlns="http://www.w3.org/2000/svg" xml:space="preserve" width="2.11764in" height="2.11763in" version="1.1" style="shape-rendering:geometricPrecision; text-rendering:geometricPrecision; image-rendering:optimizeQuality; fill-rule:evenodd; clip-rule:evenodd"
viewBox="0 0 262.01 262.01"
 xmlns:xlink="http://www.w3.org/1999/xlink"
 xmlns:xodm="http://www.corel.com/coreldraw/odm/2003">
 <defs>
  <style type="text/css">
   <![CDATA[
    .fil0 {fill:black;fill-rule:nonzero}
   ]]>
  </style>
 </defs>
 <g id="Capa_x0020_1">
  <metadata id="CorelCorpID_0Corel-Layer"/>
  <path class="fil0" d="M-0 193.48l0 -124.94c0,-37.69 30.83,-68.54 68.54,-68.54l124.93 0c37.69,0 68.55,30.85 68.55,68.54l0 124.94c0,37.69 -30.85,68.53 -68.55,68.53l-124.93 0c-37.7,0 -68.54,-30.84 -68.54,-68.53zm164.72 -11.16c-0.83,-4.8 -4.19,-22.3 -11.94,-43.66 4.35,-0.67 8.56,-0.94 12.53,-0.94 13.01,0 23.2,2.85 25.55,3.58 -2.8,16.95 -12.52,31.63 -26.15,41.03zm-35.26 10.95c-14.28,0 -27.46,-4.83 -37.98,-12.94 1.78,-3.48 14.69,-26.73 48.8,-38.59l0.07 -0.03c8.55,22.26 12.17,40.95 13.15,46.73 -7.39,3.12 -15.52,4.83 -24.04,4.83zm-62.26 -62.16l0.02 -1.54 1.64 0.01c7.72,0 34.55,-0.64 62.18,-8.84 1.68,3.27 3.28,6.61 4.76,9.94l-2.07 0.62c-31.12,10.05 -48.21,36.66 -50.85,41.01 -9.76,-10.98 -15.68,-25.41 -15.68,-41.2zm35.51 -56.15c2.16,2.96 12.81,17.84 22.79,35.47 -26.77,7.05 -50.53,7.5 -56.28,7.5l-0.6 0c4.12,-19 16.94,-34.78 34.09,-42.96zm26.76 -6.02c15.7,0 30.05,5.82 41.02,15.44 -1.74,2.36 -11.15,14.13 -32.16,22.07 -9.73,-17.77 -20.37,-32.5 -22.9,-35.91 4.51,-1.05 9.21,-1.59 14.04,-1.59zm48.49 23.2c8.4,10.42 13.51,23.59 13.75,37.92 -2.79,-0.58 -14.64,-2.79 -28.8,-2.79 -4.57,0 -9.38,0.23 -14.19,0.83 -0.41,-0.99 -0.82,-1.97 -1.24,-2.97 -1.25,-2.94 -2.6,-5.86 -4,-8.74 21.79,-8.98 32.3,-21.43 34.48,-24.26zm-48.49 -34.74c-40.63,0 -73.7,33.03 -73.7,73.61 0,40.58 33.07,73.59 73.7,73.59 40.64,0 73.69,-33.01 73.69,-73.59 0,-40.58 -33.05,-73.61 -73.69,-73.61z"/>
 </g>
</svg>
